<ttFont>
<head>
    <!-- Most of this table will be recalculated by the compiler -->
    <tableVersion value="1.0"/>
    <fontRevision value="2.004"/>
    <checkSumAdjustment value="0x1d4768f2"/>
    <magicNumber value="0x5f0f3cf5"/>
    <flags value="00000000 00000011"/>
    <unitsPerEm value="1000"/>
    <created value="Thu Oct  8 10:00:06 2009"/>
    <modified value="Thu Oct  8 10:00:06 2009"/>
    <xMin value="-446"/>
    <yMin value="-314"/>
    <xMax value="1510"/>
    <yMax value="1154"/>
    <macStyle value="00000000 00000000"/>
    <lowestRecPPEM value="3"/>
    <fontDirectionHint value="2"/>
    <indexToLocFormat value="0"/>
    <glyphDataFormat value="0"/>
  </head>
          <CharString index="0">
            436 hmoveto
            288 vlineto
            102 -78 69 -99 -63 -48 -13 -30 -56 vhcurveto
            6 -73 rlineto
            22 33 49 30 79 hhcurveto
            44 46 -33 -75 hvcurveto
            -40 vlineto
            -148 -5 -146 -31 -93 vvcurveto
            -50 34 -78 88 43 79 9 39 53 vhcurveto
            -38 vlineto
            -3 142 rmoveto
            -20 0 -26 -35 -21 vhcurveto
            -18 -32 -39 -1 -11 hhcurveto
            -55 -42 25 38 64 169 6 45 2 hvcurveto
            return
          </CharString>
          <CharString index="1">
            440 219 rmoveto
            46 -5 67 -39 57 vhcurveto
            51 -36 -60 19 -49 hhcurveto
            -122 -94 -107 -127 -128 100 -107 132 58 60 17 31 51 hvcurveto
            -6 71 rlineto
            -40 -56 -63 -13 -43 hhcurveto
            -87 -66 71 92 -3 hvcurveto
            267 60 rmoveto
            -260 hlineto
            80 23 59 34 50 hhcurveto
            44 65 -21 -93 19 hvcurveto
            return
          </CharString>
          <CharString index="2">
            6 callgsubr
            hintmask 11100110
            -107 callsubr
            return
          </CharString>
          <CharString index="3">
            677 hmoveto
            -275 694 rlineto
            -97 hlineto
            -275 -694 rlineto
            82 hlineto
            78 198 rlineto
            304 hlineto
            78 -198 rlineto
            -103 257 rmoveto
            -254 hlineto
            128 361 rlineto
            return
          </CharString>
          <CharString index="4">
            rmoveto
            -126 134 rlineto
            -60 hlineto
            -126 -134 rlineto
            59 hlineto
            97 97 97 -97 rlineto
            return
          </CharString>
          <CharString index="5">
            rmoveto
            -12 68 rlineto
            -22 -67 -1 -29 -76 hvcurveto
            -2 -1 rlineto
            24 -36 -35 7 -29 hhcurveto
            -98 -73 -77 -86 -35 12 -36 23 -28 hvcurveto
            -14 -17 -15 -28 -38 vvcurveto
            -39 16 -25 9 -12 vhcurveto
            hintmask 1110001011100000
            -55 -32 -11 -46 -24 vvcurveto
            -76 105 -60 130 131 104 60 76 141 -175 0 -43 vhcurveto
            -93 hlineto
            -16 -43 0 52 20 7 10 1 2 hvcurveto
            -22 35 35 -7 27 hhcurveto
            98 73 77 86 32 -9 29 -18 27 hvcurveto
            -4 6 0 2 0 vvcurveto
            4 60 0 5 vhcurveto
            0 39 0 36 -4 vhcurveto
            -186 -95 rmoveto
            -78 -50 -24 -43 vhcurveto
            hintmask 1001000111000000
            -54 -40 34 67 78 50 24 43 54 40 -34 -67 hvcurveto
            95 -361 rmoveto
            -43 -75 -30 -84 vhcurveto
            hintmask 0100001000100000
            -84 -75 30 43 5 0 59 81 hvcurveto
            96 hlineto
            23 118 0 -64 hvcurveto
            return
          </CharString>
          <CharString index="6">
            81 -47 46 -20 21 vhcurveto
            -42 41 -46 11 -77 18 -61 14 -32 8 -24 23 rrcurveto
            -13 13 -23 23 38 vvcurveto
            56 56 58 97 76 53 -24 -43 51 vhcurveto
            16 90 rlineto
            33 -64 -57 16 -74 hhcurveto
            -151 -89 -102 -96 -41 13 -48 49 -46 hvcurveto
            44 -41 46 -10 62 -15 84 -20 23 -5 29 -30 rrcurveto
            19 -19 16 -28 -34 vvcurveto
            -62 -56 -64 -97 -57 -92 17 67 -79 vhcurveto
            -16 -90 rlineto
            -29 50 83 -40 112 hhcurveto
            139 99 101 112 hvcurveto
            return
          </CharString>
          <CharString index="7">
            -20 -101 callgsubr
            hintmask 00110000
            return
          </CharString>
          <CharString index="8">
            635 39 rmoveto
            261 -223 -66 136 -155 vlineto
            -13 -44 -46 -7 -46 hhcurveto
            -67 -62 33 51 -44 hvcurveto
            -48 57 -23 73 74 vvcurveto
            75 23 72 48 57 vhcurveto
            51 44 62 33 67 hhcurveto
            35 36 -4 -12 34 hvcurveto
            34 -12 31 -19 29 -23 16 91 rcurveline
            -34 16 -35 14 -36 8 rrcurveto
            8 -36 -37 3 -37 hhcurveto
            -92 -88 -39 -66 -64 hvcurveto
            -65 -68 -36 -91 -94 vvcurveto
            -94 36 -91 65 -68 vhcurveto
            -66 64 88 -38 92 hhcurveto
            77 76 16 33 70 hvcurveto
            return
          </CharString>
          <CharString index="9">
            592 hmoveto
            78 -90 vlineto
            -252 -2 rlineto
            -52 250 349 66 -349 230 146 hlineto
            -49 callgsubr
            197 70 -480 -691 hlineto
            return
          </CharString>
          <CharString index="10">
            -20 -100 callgsubr
            hintmask 00011000
            return
          </CharString>
          <CharString index="11">
            hstemhm
            hintmask 11100000
            -104 callsubr
            return
          </CharString>
          <CharString index="12">
            657 hmoveto
            -208 324 rlineto
            143 42 36 87 54 vvcurveto
            104 -122 83 -145 vhcurveto
            -263 -694 98 314 165 hlineto
            195 -314 rlineto
            -19 507 rmoveto
            -70 -69 -57 -120 vhcurveto
            -152 255 152 hlineto
            115 74 -54 -74 hvcurveto
            return
          </CharString>
          <CharString index="13">
            -39 callsubr
            hintmask 00010000
            -32 -1 -11 -27 -28 hhcurveto
            -25 -25 17 8 -11 hvcurveto
            hintmask 00001000
            19 -30 -23 15 -28 hhcurveto
            hintmask 00010000
            -51 -52 -46 -79 -1 hvcurveto
            66 hlineto
            hintmask 00001000
            32 1 11 27 28 hhcurveto
            25 25 -17 -8 11 hvcurveto
            hintmask 00010000
            -19 30 23 -15 28 hhcurveto
            hintmask 00001000
            51 52 46 79 1 hvcurveto
            endchar
          </CharString>
          <CharString index="14">
            623 46 rmoveto
            -6 76 -31 -20 -32 -20 -35 -11 rlinecurve
            -11 -35 -36 -1 -36 hhcurveto
            -67 -62 33 51 -44 hvcurveto
            -48 57 -23 73 74 vvcurveto
            75 23 72 48 57 vhcurveto
            51 44 62 33 67 hhcurveto
            32 32 -3 -9 31 hvcurveto
            32 -10 29 -16 28 -18 16 91 rcurveline
            -32 11 -33 10 -34 6 rrcurveto
            6 -33 -34 2 -34 hhcurveto
            -92 -88 -39 -66 -64 hvcurveto
            -65 -68 -36 -91 -94 vvcurveto
            -94 36 -91 65 -68 vhcurveto
            -66 64 88 -38 92 hhcurveto
            37 37 1 9 36 hvcurveto
            36 10 33 17 32 19 rrcurveto
            return
          </CharString>
          <CharString index="15">
            723 344 rmoveto
            96 -33 94 -64 72 vhcurveto
            -12 14 -13 12 -13 11 67 52 rcurveline
            1 1 rlineto
            87 vlineto
            -2 2 rlineto
            -87 hlineto
            -2 53 callsubr
            59 callsubr
            -33 -29 rlineto
            32 -50 -57 18 -60 hhcurveto
            -90 -85 -41 -68 -60 hvcurveto
            -64 -72 -33 -94 -96 vvcurveto
            -95 33 -93 64 -70 vhcurveto
            -66 61 84 -41 90 hhcurveto
            90 84 41 66 61 hvcurveto
            return
          </CharString>
          <CharString index="16">
            -39 callsubr
            hintmask 10000000
            -32 -1 -11 -27 -28 hhcurveto
            -25 -25 17 8 -11 hvcurveto
            hintmask 01000000
            19 -30 -23 15 -28 hhcurveto
            hintmask 10000000
            -51 -52 -46 -79 -1 hvcurveto
            66 hlineto
            hintmask 01000000
            32 1 11 27 28 hhcurveto
            25 25 -17 -8 11 hvcurveto
            hintmask 10000000
            -19 30 23 -15 28 hhcurveto
            hintmask 01000000
            51 52 46 79 1 hvcurveto
            endchar
          </CharString>
          <CharString index="17">
            -20 -96 callsubr
            return
          </CharString>
          <CharString index="18">
            710 444 rmoveto
            -78 hlineto
            -96 -301 -8 -29 -10 -32 -3 -23 rlinecurve
            -1 hlineto
            -6 41 -35 108 -2 7 -74 229 rcurveline
            -76 hlineto
            -29 -86 -75 -224 -8 -73 rrcurveto
            -1 hlineto
            -8 71 -74 221 -16 48 -8 24 0 2 -5 17 rrcurveto
            -82 hlineto
            146 -444 rlineto
            84 hlineto
            63 194 15 49 30 96 5 44 rlinecurve
            1 1 2 -21 6 -22 7 -25 rlinecurve
            21 -75 77 -241 rlineto
            92 hlineto
            return
          </CharString>
          <CharString index="19">
            -90 callsubr
            hintmask 00011000
            return
          </CharString>
          <CharString index="20">
            rmoveto
            -63 167 rlineto
            -87 hlineto
            84 -167 rlineto
            -111 hmoveto
            -63 167 rlineto
            -87 hlineto
            84 50 callsubr
          </CharString>
          <CharString index="21">
            -20 -87 callgsubr
            hintmask 00011000
            return
          </CharString>
          <CharString index="22">
            rmoveto
            80 -81 -81 25 vlineto
            -26 -115 rlineto
            40 hlineto
            endchar
          </CharString>
          <CharString index="23">
            rmoveto
            273 -121 69 -96 -89 -41 -42 -29 -29 vhcurveto
            -64 -65 -2 -69 -39 vvcurveto
            -129 70 -111 98 113 62 75 6 5 vhcurveto
            -159 -14 -78 -70 -82 hhcurveto
            -52 -32 19 19 -23 hvcurveto
            -34 -58 rlineto
            -36 49 45 -10 47 hhcurveto
            140 128 141 215 hvcurveto
            -96 77 rmoveto
            -74 -45 -79 -87 -38 -30 11 41 -26 vhcurveto
            -26 39 -2 38 45 vvcurveto
            39 0 45 31 44 vhcurveto
            30 21 30 24 50 hhcurveto
            return
          </CharString>
          <CharString index="24">
            rmoveto
            -59 hlineto
            -97 -97 -97 97 rlineto
            -59 hlineto
            126 -134 rlineto
            60 hlineto
            endchar
          </CharString>
          <CharString index="25">
            -76 callsubr
            endchar
          </CharString>
          <CharString index="26">
            -100 callsubr
            -75 return
          </CharString>
          <CharString index="27">
            354 27 rmoveto
            -17 64 rlineto
            -24 -33 -35 -8 -28 hhcurveto
            -42 -11 41 46 hvcurveto
            235 148 63 -148 127 -77 -127 -91 -63 88 -253 vlineto
            return
          </CharString>
          <CharString index="28">
            -72 callsubr
            169 rmoveto
            -89 hlineto
            -197 122 rlineto
            111 hlineto
            endchar
          </CharString>
          <CharString index="29">
            rmoveto
            -87 hlineto
            -137 -167 rlineto
            66 hlineto
            endchar
          </CharString>
          <CharString index="30">
            649 hmoveto
            694 -84 -615 -1 vlineto
            -328 615 rlineto
            -136 -694 84 615 1 hlineto
            328 -615 rlineto
            return
          </CharString>
          <CharString index="31">
            rmoveto
            -61 callgsubr
            return
          </CharString>
          <CharString index="32">
            rmoveto
            112 -2 -88 70 -90 hhcurveto
            -91 -87 -70 -112 -2 hvcurveto
            66 hlineto
            71 2 58 38 54 hhcurveto
            54 58 -39 -70 2 hvcurveto
            endchar
          </CharString>
          <CharString index="33">
            767 -10 66 0 64 69 60 -30 60 0 64 50 66 -64 64 hstemhm
            49 80 211 64 -57 80 245 64 hintmask 1010101110000000
            736 219 rmoveto
            39 -2 71 -38 58 vhcurveto
            56 -36 -57 16 -43 hhcurveto
            -89 -54 -56 -19 -19 hvcurveto
            33 -22 -47 42 -80 hhcurveto
            -62 -50 -14 -29 -55 hvcurveto
            6 -73 rlineto
            19 28 50 33 83 hhcurveto
            10 38 0 -42 26 hvcurveto
            17 -26 0 -14 -64 vvcurveto
            -183 -5 -108 -46 -80 vvcurveto
            -25 15 -103 108 28 152 0 73 52 vhcurveto
            -23 24 56 -50 92 hhcurveto
            73 56 30 18 26 hvcurveto
            -6 71 rlineto
            -37 -45 -55 -16 -47 hhcurveto
            hintmask 0101010101100000
            -78 -68 64 99 -5 hvcurveto
            245 60 rmoveto
            -238 hlineto
            70 19 52 44 56 hhcurveto
            29 65 -13 -101 17 hvcurveto
            -325 -155 rmoveto
            -68 -97 0 -25 -61 -35 29 35 27 24 14 55 13 vhcurveto
            hintmask 0010000001000000
            37 9 34 4 63 2 rrcurveto
            2 -16 3 -34 -15 vvcurveto
            endchar
          </CharString>
          <CharString index="34">
            rmoveto
            91 -91 -91 vlineto
            288 hmoveto
            91 -91 -91 vlineto
            return
          </CharString>
          <CharString index="35">
            -103 callsubr
            46 return
          </CharString>
          <CharString index="36">
            595 hmoveto
            71 -100 vlineto
            -306 -2 400 581 rlineto
            44 -515 -67 209 vlineto
            14 12 1 14 hhcurveto
            137 hlineto
            -401 -582 rlineto
            -46 vlineto
            return
          </CharString>
          <CharString index="37">
            rmoveto
            91 -91 -91 vlineto
            258 hmoveto
            91 -91 -91 vlineto
            return
          </CharString>
          <CharString index="38">
            707 341 rmoveto
            196 -146 157 -179 vhcurveto
            -284 -694 284 hlineto
            180 145 152 189 hvcurveto
            -98 1 rmoveto
            -186 -122 -97 -132 vhcurveto
            -159 576 159 hlineto
            137 117 -109 -184 hvcurveto
            return
          </CharString>
          <CharString index="39">
            510 -10 66 135 59 145 64 return
          </CharString>
          <CharString index="40">
            427 hmoveto
            67 -155 vlineto
            -12 -12 -1 -12 hhcurveto
            -87 hlineto
            275 336 rlineto
            42 -380 -64 147 vlineto
            12 12 1 12 hhcurveto
            78 hlineto
            -275 -337 rlineto
            -44 vlineto
            return
          </CharString>
          <CharString index="41">
            -75 65 -53 64 -20 vhcurveto
            -88 -27 -56 -68 -77 vvcurveto
            -107 95 -96 126 126 95 96 107 vhcurveto
            -92 319 rmoveto
            -71 -56 -43 -73 -71 -58 41 73 64 45 50 84 83 46 -50 -64 vhcurveto
            1 -318 rmoveto
            -94 -62 -44 -68 return
          </CharString>
          <CharString index="42">
            -18 callgsubr
            261 167 -18 callgsubr
            endchar
          </CharString>
          <CharString index="43">
            -67 callgsubr
            -20 return
          </CharString>
          <CharString index="44">
            821 hmoveto
            694 -123 vlineto
            -141 -347 -12 -30 -72 -176 -10 -42 rlinecurve
            -1 hlineto
            -7 29 -46 115 -10 26 -172 425 rcurveline
            -122 -694 84 614 1 hlineto
            8 -35 52 -132 5 -11 167 -415 rcurveline
            79 hlineto
            149 368 rlineto
            0 69 171 17 55 vhcurveto
            1 -615 hlineto
            return
          </CharString>
          <CharString index="45">
            rmoveto
            89 -90 -90 28 vlineto
            -29 -128 rlineto
            45 hlineto
            return
          </CharString>
          <CharString index="46">
            -88 callsubr
            168 return
          </CharString>
          <CharString index="47">
            -2 callgsubr
            157 -93 callgsubr
          </CharString>
          <CharString index="48">
            -86 callsubr
            378 return
          </CharString>
          <CharString index="49">
            rmoveto
            70 -382 -70 vlineto
            endchar
          </CharString>
          <CharString index="50">
            64 68 1 71 35 vvcurveto
            -92 hmoveto
            -38 0 -42 -27 -42 vhcurveto
            -36 -24 -30 -20 -46 hhcurveto
            -106 -17 131 44 -5 hvcurveto
            6 0 15 1 5 vhcurveto
            68 43 83 89 122 0 -140 -34 vhcurveto
            endchar
          </CharString>
          <CharString index="51">
            785 -21 71 596 69 return
          </CharString>
          <CharString index="52">
            870 hmoveto
            78 -73 vlineto
            -218 -2 rlineto
            -34 252 280 66 -280 231 112 hlineto
            -49 callgsubr
            162 70 -525 hlineto
            -300 -694 rlineto
            83 hlineto
            95 219 rlineto
            237 -219 hlineto
            278 vmoveto
            -212 hlineto
            151 347 rlineto
            61 hlineto
            return
          </CharString>
          <CharString index="53">
            767 0 77 572 66 hstem
            59 101 446 101 vstem
            719 hmoveto
            77 -91 vlineto
            -12 -12 -1 -12 hhcurveto
            -57 hlineto
            14 44 17 35 47 72 rrcurveto
            50 80 44 71 84 vvcurveto
            136 -139 117 -185 -185 -139 -118 -135 -85 45 -72 52 -82 vhcurveto
            46 -72 16 -33 13 -42 rrcurveto
            -57 hlineto
            -12 -12 1 -12 hhcurveto
            -91 -77 262 hlineto
            -1 81 -30 63 -37 75 rrcurveto
            -45 89 -36 72 81 vvcurveto
            108 95 80 128 129 94 -81 -107 -81 -37 -75 -39 -77 vhcurveto
            -39 -79 -33 -65 -1 -84 rrcurveto
            endchar
          </CharString>
          <CharString index="54">
            -13 callgsubr
            -429 403 rmoveto
            116 -68 86 -78 -73 -75 -80 -122 -119 73 -82 75 79 67 88 113 vhcurveto
            307 179 rmoveto
            13 -10 10 -13 -12 -4 -6 -13 -8 vhcurveto
            -462 -743 rlineto
            -6 -10 -3 -4 -7 37 callsubr
            12 4 6 10 6 vhcurveto
            464 746 rlineto
            7 11 2 3 7 vvcurveto
            return
          </CharString>
          <CharString index="55">
            116 -68 86 -78 -75 -73 -83 -118 -122 75 -80 73 79 67 88 113 vhcurveto
            return
          </CharString>
          <CharString index="56">
            198 hmoveto
            694 -101 -694 vlineto
            return
          </CharString>
          <CharString index="57">
            708 0 59 269 66 241 59 hstemhm
            100 94 250 87 0 87 hintmask 00001000
            648 188 rmoveto
            88 -93 71 -111 16 vhcurveto
            hintmask 11110100
            104 25 70 60 72 vvcurveto
            92 -115 82 -147 vhcurveto
            -256 -694 285 hlineto
            148 115 88 100 hvcurveto
            -117 331 rmoveto
            -67 -91 -58 -113 vhcurveto
            -133 241 132 hlineto
            112 93 -52 -64 hvcurveto
            26 -330 rmoveto
            -74 -93 -56 -110 vhcurveto
            -160 269 143 hlineto
            126 94 -64 -75 hvcurveto
            endchar
          </CharString>
          <CharString index="58">
            693 hmoveto
            -299 420 284 274 rlineto
            -102 hlineto
            -382 -368 rlineto
            368 -94 -694 94 228 vlineto
            139 133 257 -361 rlineto
            return
          </CharString>
          <CharString index="59">
            hmoveto
            296 vlineto
            78 -23 80 -123 return
          </CharString>
          <CharString index="60">
            231 rmoveto
            68 -11 70 -45 50 vhcurveto
            47 -41 -64 17 -62 hhcurveto
            -62 -64 -17 -47 -41 hvcurveto
            -45 -50 -11 -70 -68 vvcurveto
            -68 11 -70 45 -50 vhcurveto
            -47 41 64 -17 62 hhcurveto
            62 64 17 47 41 hvcurveto
            45 50 11 70 68 vvcurveto
            -87 hmoveto
            -49 -5 -51 -29 -39 vhcurveto
            -32 -24 -38 -15 -40 hhcurveto
            -40 -38 15 32 -24 hvcurveto
            -29 39 -5 51 49 vvcurveto
            49 5 51 29 39 vhcurveto
            32 24 38 15 40 hhcurveto
            40 38 -15 -32 24 hvcurveto
            29 -39 5 -51 -49 vvcurveto
            endchar
          </CharString>
          <CharString index="61">
            531 -10 69 334 66 return
          </CharString>
          <CharString index="62">
            325 rmoveto
            48 0 117 -47 82 vhcurveto
            90 -51 -77 15 -48 hhcurveto
            -45 -78 -14 -86 -50 hvcurveto
            -48 -80 -2 -109 -63 vvcurveto
            -74 4 -91 42 -76 vhcurveto
            -81 44 74 -24 59 hhcurveto
            100 55 58 63 30 hvcurveto
            35 71 3 92 62 vvcurveto
            -87 13 rmoveto
            -66 0 -75 -24 -64 vhcurveto
            -72 -28 -51 -16 -33 hhcurveto
            -42 -48 24 72 -25 hvcurveto
            -20 61 -1 63 73 vvcurveto
            92 0 181 136 136 0 -181 -92 vhcurveto
            endchar
          </CharString>
          <CharString index="63">
            21 -42 callsubr
            return
          </CharString>
          <CharString index="64">
            -201 272 178 172 rlineto
            -97 hlineto
            -214 -207 rlineto
            457 -78 -694 74 140 vlineto
            85 82 165 -222 rlineto
            return
          </CharString>
          <CharString index="65">
            -21 694 -20 return
          </CharString>
          <CharString index="66">
            767 0 59 253 70 253 59 hstem
            98 98 413 98 cntrmask 11100000
            707 341 rmoveto
            196 -146 157 -179 vhcurveto
            -284 -312 -86 -70 86 -312 284 hlineto
            180 145 152 189 hvcurveto
            -98 1 rmoveto
            -186 -122 -97 -132 vhcurveto
            -159 253 102 70 -102 253 52 callsubr
          </CharString>
          <CharString index="67">
            594 -187 rmoveto
            -63 callgsubr
            -1 44 43 53 callgsubr
            44 78 -90 hlineto
            -252 -2 rlineto
            -52 250 349 66 -349 230 146 hlineto
            -49 callgsubr
            197 70 -480 -691 387 hlineto
            71 callgsubr
            -56 callgsubr
            return
          </CharString>
          <CharString index="68">
            rmoveto
            -66 hlineto
            return
          </CharString>
          <CharString index="69">
            -22 -9 -23 -6 -22 1 19 callsubr
            47 53 callgsubr
            37 hlineto
            -275 694 rlineto
            -97 hlineto
            -275 -694 rlineto
            82 hlineto
            78 198 rlineto
            304 hlineto
            78 -198 -14 callgsubr
            rlinecurve
            -43 1 31 -42 67 hhcurveto
            hintmask 01010000
            33 25 6 19 40 hvcurveto
            -213 444 rmoveto
            -254 hlineto
            128 361 rlineto
            return
          </CharString>
          <CharString index="70">
            729 -21 59 656 -20 return
          </CharString>
          <CharString index="71">
            463 hmoveto
            694 -84 -293 vlineto
            47 -64 -65 6 -29 hhcurveto
            -105 -80 -105 -127 -127 79 -105 103 hvcurveto
            return
          </CharString>
          <CharString index="72">
            23 -22 0 -14 vhcurveto
            -635 -11 callsubr
            635 hlineto
            14 22 0 23 hvcurveto
            return
          </CharString>
          <CharString index="73">
            679 21 -21 285 62 288 59 hstem
            98 98 332 91 vstem
            619 491 rmoveto
            107 -106 96 -145 vhcurveto
            -270 -694 101 285 176 hlineto
            129 115 91 115 hvcurveto
            -91 hmoveto
            -82 -68 -62 -117 vhcurveto
            -147 288 147 hlineto
            113 72 -60 -84 hvcurveto
            endchar
          </CharString>
          <CharString index="74">
            760 -48 callsubr
            -84 -52 -49 -32 -24 vhcurveto
            27 -10 -25 54 -100 hhcurveto
            -57 -55 -23 -53 -44 hvcurveto
            73 -80 -451 44 callsubr
            -12 callsubr
            return
          </CharString>
          <CharString index="75">
            327 309 rmoveto
            38 -96 368 -16 vlineto
            -47 -36 -59 -2 -43 -1 rrcurveto
            -38 vlineto
            28 1 36 1 36 12 rrcurveto
            -305 -95 -38 vlineto
            return
          </CharString>
          <CharString index="76">
            45 44 7 27 37 hvcurveto
            37 28 12 44 34 vvcurveto
            return
          </CharString>
          <CharString index="77">
            -23 callsubr
            -429 403 rmoveto
            return
          </CharString>
          <CharString index="78">
            55 80 214 87 return
          </CharString>
          <CharString index="79">
            70 callgsubr
            hstem
            692 hmoveto
            -297 366 253 328 rlineto
            -109 hlineto
            -193 -256 -197 256 rlineto
            -119 hlineto
            267 -328 -282 -366 rlineto
            109 hlineto
            222 301 227 -301 rlineto
            endchar
          </CharString>
          <CharString index="80">
            -14 -22 0 -23 -23 22 0 14 hvcurveto
            return
          </CharString>
          <CharString index="81">
            441 36 rmoveto
            -6 73 rlineto
            -32 -50 -54 -18 -62 hhcurveto
            return
          </CharString>
          <CharString index="82">
            549 -10 42 callgsubr
            return
          </CharString>
          <CharString index="83">
            vlineto
            hintmask 11001100
            87 47 hlineto
            -19 22 48 -38 73 hhcurveto
            109 88 102 131 hvcurveto
            -87 hmoveto
            -122 -83 -45 -70 -37 -35 17 45 -28 vhcurveto
            197 vlineto
            16 0 12 35 23 vhcurveto
            9 15 27 13 34 hhcurveto
            67 75 -45 -120 hvcurveto
            endchar
          </CharString>
          <CharString index="84">
            -76 callgsubr
            -364 hmoveto
            -76 callgsubr
            return
          </CharString>
          <CharString index="85">
            -21 167 return
          </CharString>
          <CharString index="86">
            -20 hstemhm
            122 91 106 91 hintmask 10011000
            7 callgsubr
            hintmask 01100000
            return
          </CharString>
          <CharString index="87">
            253 2 callsubr
            return
          </CharString>
          <CharString index="88">
            -39 callsubr
            -79 -168 rlineto
            76 hlineto
            endchar
          </CharString>
          <CharString index="89">
            87 241 vlineto
            -48 53 57 -9 34 hhcurveto
            106 90 101 132 hvcurveto
            -87 hmoveto
            -99 -75 -68 -78 -15 -25 2 21 -26 vhcurveto
            -30 23 -4 15 19 vvcurveto
            196 vlineto
            28 23 39 25 48 hhcurveto
            80 63 -74 -88 hvcurveto
            endchar
          </CharString>
          <CharString index="90">
            22 callgsubr
            114 78 callsubr
            hstemhm
            85 84 hintmask 11001000
            -77 callgsubr
            return
          </CharString>
          <CharString index="91">
            21 -21 381 63 194 66 hstem
            106 84 return
          </CharString>
          <CharString index="92">
            69 0 69 253 63 127 -20 hstemhm
            108 80 return
          </CharString>
          <CharString index="93">
            87 208 87 return
          </CharString>
          <CharString index="94">
            66 62 callgsubr
            vstem
            -72 callgsubr
            return
          </CharString>
          <CharString index="95">
            44 callsubr
            vlineto
            return
          </CharString>
          <CharString index="96">
            hlineto
            -27 callsubr
            return
          </CharString>
          <CharString index="97">
            -20 -10 -20 -11 -17 -14 -54 -44 rcurveline
            hintmask 10010000
            14 -17 rlineto
            41 49 53 30 51 hhcurveto
            40 29 -17 -20 35 hvcurveto
            -17 29 31 -17 40 hhcurveto
            hintmask 01000000
            25 26 8 10 22 hvcurveto
            return
          </CharString>
          <CharString index="98">
            167 rmoveto
            66 -104 423 -99 vlineto
            -267 -423 rlineto
            -66 280 -167 86 167 vlineto
            -79 66 rmoveto
            -202 hlineto
            30 47 171 267 1 60 rrcurveto
            endchar
          </CharString>
          <CharString index="99">
            750 21 -21 328 66 300 -20 return
          </CharString>
          <CharString index="100">
            -77 -63 77 -381 84 381 return
          </CharString>
          <CharString index="101">
            rmoveto
            70 -204 -70 vlineto
            127 -50 0 127 hhcurveto
            endchar
          </CharString>
          <CharString index="102">
            hmoveto
            63 -133 420 -11 vlineto
            -14 -9 -7 -6 -12 hvcurveto
            -28 -56 -65 -3 -61 hhcurveto
            -63 vlineto
            46 47 2 12 45 hvcurveto
            -327 -133 -63 vlineto
            endchar
          </CharString>
          <CharString index="103">
            219 rmoveto
            -112 219 rlineto
            -65 hlineto
            91 -219 -91 -219 rlineto
            65 hlineto
            return
          </CharString>
          <CharString index="104">
            rmoveto
            21 -17 17 -21 -21 -17 -17 -21 -21 17 -17 21 21 17 17 21 vhcurveto
            return
          </CharString>
          <CharString index="105">
            hmoveto
            63 -133 614 -22 vlineto
            -65 -60 -82 -4 -60 -2 rrcurveto
            -63 vlineto
            39 1 50 2 50 20 rrcurveto
            -508 -133 -63 vlineto
            endchar
          </CharString>
          <CharString index="106">
            708 -10 1 callgsubr
            return
          </CharString>
          <CharString index="107">
            66 276 66 228 62 return
          </CharString>
          <CharString index="108">
            83 -14 callsubr
            return
          </CharString>
          <CharString index="109">
            21 38 callgsubr
            return
          </CharString>
          <CharString index="110">
            rmoveto
            40 -74 254 -72 vlineto
            -192 -254 rlineto
            -40 202 -100 62 100 vlineto
            5 574 20 callgsubr
            return
          </CharString>
          <CharString index="111">
            13 callgsubr
            hstemhm
            return
          </CharString>
          <CharString index="112">
            -44 callsubr
            hstem
            return
          </CharString>
          <CharString index="113">
            12 callsubr
            hintmask 00111000
            return
          </CharString>
          <CharString index="114">
            -144 565 -70 callsubr
            return
          </CharString>
          <CharString index="115">
            228 565 -70 callsubr
            return
          </CharString>
          <CharString index="116">
            -76 callgsubr
            endchar
          </CharString>
          <CharString index="117">
            283 -204 70 578 -20 return
          </CharString>
          <CharString index="118">
            rmoveto
            63 -282 -63 vlineto
            endchar
          </CharString>
          <CharString index="119">
            -20 callsubr
            124 78 callsubr
            hstemhm
            84 84 hintmask 11001000
            -45 callgsubr
            return
          </CharString>
          <CharString index="120">
            407 -10 68 216 64 57 64 return
          </CharString>
          <CharString index="121">
            472 -10 69 331 69 return
          </CharString>
          <CharString index="122">
            70 hstem
            637 148 rmoveto
            -86 hlineto
            -43 -24 -40 -39 -31 -30 6 8 -30 vhcurveto
            -54 13 -56 13 -55 1 26 return
          </CharString>
          <CharString index="123">
            hlineto
            -78 -270 rlineto
            -3 -9 -1 -7 -3 37 callsubr
            17 3 12 13 4 vhcurveto
            82 287 rlineto
            return
          </CharString>
          <CharString index="124">
            hstem
            85 87 253 87 vstem
            512 223 rmoveto
            120 -66 111 -99 -45 -75 -13 -45 -58 vhcurveto
            return
          </CharString>
          <CharString index="125">
            vvcurveto
            51 -72 -48 vlineto
            -77 -32 -72 -62 -57 vhcurveto
            -39 -34 -8 -46 -34 vvcurveto
            -46 15 -44 36 -29 vhcurveto
            return
          </CharString>
          <CharString index="126">
            -28 2 -24 6 -1 30 -1 44 return
          </CharString>
          <CharString index="127">
            90 hstem
            102 90 vstem
            192 return
          </CharString>
          <CharString index="128">
            649 0 71 556 67 return
          </CharString>
          <CharString index="129">
            590 -21 75 589 72 return
          </CharString>
          <CharString index="130">
            rmoveto
            90 -90 -90 vlineto
            return
          </CharString>
          <CharString index="131">
            rrcurveto
            -56 callgsubr
            -14 59 -22 -9 -23 -6 -22 1 rlinecurve
            return
          </CharString>
          <CharString index="132">
            -28 2 -24 6 -1 30 -1 43 43 33 45 26 rrcurveto
            99 27 73 88 106 vvcurveto
            -87 11 rmoveto
            return
          </CharString>
          <CharString index="133">
            40 callsubr
            84 80 111 101 0 101 hintmask 11111100
            477 return
          </CharString>
          <CharString index="134">
            84 381 115 63 -118 115 vlineto
            72 68 7 28 24 27 -3 -14 35 vhcurveto
            return
          </CharString>
          <CharString index="135">
            hstem
            235 67 104 67 vstem
            406 return
          </CharString>
          <CharString index="136">
            hstemhm
            1 callsubr
            return
          </CharString>
          <CharString index="137">
            54 callgsubr
            hstemhm
            return
          </CharString>
          <CharString index="138">
            531 -250 28 458 28 458 28 hstem
            228 75 cntrmask 11100000
            455 return
          </CharString>
          <CharString index="139">
            hintmask 00111000
            286 867 -93 callgsubr
          </CharString>
          <CharString index="140">
            826 -46 -21 46 66 604 66 46 -20 return
          </CharString>
          <CharString index="141">
            476 90 128 -20 hstem
            return
          </CharString>
          <CharString index="142">
            548 -10 59 486 -20 return
          </CharString>
          <CharString index="143">
            549 -10 66 332 66 return
          </CharString>
          <CharString index="144">
            vvcurveto
            -13 10 -10 13 return
          </CharString>
          <CharString index="145">
            472 -212 70 -45 60 117 66 163 60 110 70 -66 66 return
          </CharString>
          <CharString index="146">
            8 -4 30 -37 -15 -24 -4 -8 -24 vhcurveto
            -26 -7 -18 -4 -16 -2 1 return
          </CharString>
          <CharString index="147">
            66 92 66 157 66 161 69 hstemhm
            return
          </CharString>
          <CharString index="148">
            66 -7 66 hstemhm
            return
          </CharString>
          <CharString index="149">
            281 410 23 callsubr
            251 -562 rmoveto
            -24 68 return
          </CharString>
          <CharString index="150">
            708 -212 70 -45 59 149 -21 198 59 437 -20 return
          </CharString>
          <CharString index="151">
            87 243 vlineto
            -71 callgsubr
            return
          </CharString>
          <CharString index="152">
            hstemhm
            97 101 23 91 106 91 35 87 return
          </CharString>
          <CharString index="153">
            253 -44 callsubr
            return
          </CharString>
          <CharString index="154">
            750 -44 callsubr
            return
          </CharString>
          <CharString index="155">
            62 -21 134 -20 hstemhm
            return
          </CharString>
          <CharString index="156">
            98 98 341 91 return
          </CharString>
          <CharString index="157">
            -167 rlineto
            endchar
          </CharString>
          <CharString index="158">
            vstem
            625 35 rmoveto
            -7 76 rlineto
            -48 -70 -43 -15 -84 hhcurveto
            return
          </CharString>
          <CharString index="159">
            159 hlineto
            137 117 -109 -184 hvcurveto
            endchar
          </CharString>
          <CharString index="160">
            -2 rlineto
            -87 vlineto
            return
          </CharString>
          <CharString index="161">
            -21 388 66 return
          </CharString>
          <CharString index="162">
            413 -228 -21 999 -20 21 -20 hstemhm
            hintmask 00100000
            return
          </CharString>
          <CharString index="163">
            vstem
            557 117 rmoveto
            288 -288 -288 vlineto
            return
          </CharString>
          <CharString index="164">
            -43 callgsubr
            97 -21 return
          </CharString>
          <CharString index="165">
            -44 callsubr
            61 91 hstemhm
            return
          </CharString>
          <CharString index="166">
            2 55 callgsubr
            return
          </CharString>
          <CharString index="167">
            384 -10 69 0 69 253 63 127 -20 return
          </CharString>
          <CharString index="168">
            47 74 47 hstem
            -374 67 104 67 vstem
            -203 return
          </CharString>
          <CharString index="169">
            rmoveto
            23 -22 0 -14 vhcurveto
            return
          </CharString>
          <CharString index="170">
            96 189 92 -27 92 return
          </CharString>
          <CharString index="171">
            -56 66 271 66 0 66 271 66 hstemhm
            return
          </CharString>
          <CharString index="172">
            100 -249 rcurveline
            48 hlineto
            89 221 rlineto
            0 return
          </CharString>
          <CharString index="173">
            -21 589 77 hstem
            156 94 vstem
            482 return
          </CharString>
          <CharString index="174">
            47 callgsubr
            66 329 69 return
          </CharString>
          <CharString index="175">
            767 0 59 576 59 return
          </CharString>
          <CharString index="176">
            502 -21 67 648 -20 return
          </CharString>
          <CharString index="177">
            679 -10 69 576 70 return
          </CharString>
          <CharString index="178">
            531 520 73 return
          </CharString>
          <CharString index="179">
            87 272 87 vstem
            return
          </CharString>
          <CharString index="180">
            826 -43 -21 628 -20 hstem
            737 return
          </CharString>
          <CharString index="181">
            679 -21 69 598 69 hstem
            68 101 return
          </CharString>
          <CharString index="182">
            vvcurveto
            -43 33 0 4 12 26 4 39 29 return
          </CharString>
          <CharString index="183">
            vvcurveto
            43 -33 0 -4 -12 -26 -4 -39 -29 return
          </CharString>
          <CharString index="184">
            -21 617 70 return
          </CharString>
          <CharString index="185">
            -22 callsubr
            -20 return
          </CharString>
          <CharString index="186">
            69 625 -20 return
          </CharString>
        <CharString name=".notdef">
          280 endchar
        </CharString>
        <CharString name="A">
          -64 callsubr
          hstem
          -104 callsubr
          endchar
        </CharString>
        <CharString name="AE">
          28 callgsubr
          hstem
          445 100 vstem
          -55 callsubr
          endchar
        </CharString>
        <CharString name="AE.dup">
          28 callgsubr
          hstem
          445 100 vstem
          -55 callsubr
          endchar
        </CharString>
        <CharString name="AEacute">
          28 callgsubr
          30 callgsubr
          445 100 hintmask 11110010
          -55 callsubr
          hintmask 00001100
          203 242 -93 callgsubr
        </CharString>
        <CharString name="Aacute">
          -64 callsubr
          92 -21 122 -88 callsubr
          202 249 -93 callgsubr
        </CharString>
        <CharString name="Abreve">
          708 21 -21 198 59 437 -20 71 73 109 -88 callsubr
          192 309 -105 callgsubr
          endchar
        </CharString>
        <CharString name="Abreveacute">
          -64 callsubr
          71 73 266 -88 callsubr
          192 309 -60 callsubr
        </CharString>
        <CharString name="Abrevedotbelow">
          43 callgsubr
          304 101 hintmask 11111000
          -104 callsubr
          192 309 -105 callgsubr
          hintmask 00000100
          -130 -1127 -82 callsubr
        </CharString>
        <CharString name="Abrevegrave">
          708 21 -21 198 59 437 -20 71 73 109 -88 callsubr
          192 309 -57 callgsubr
        </CharString>
        <CharString name="Abrevehookabove">
          -64 callsubr
          71 73 124 73 139 -90 callsubr
          hintmask 00011100
          192 309 -105 callgsubr
          -76 149 -107 callgsubr
        </CharString>
        <CharString name="Abrevetilde">
          -64 callsubr
          71 73 164 66 -7 66 -96 callsubr
          hintmask 00010100
          192 309 -105 callgsubr
          -4 180 -91 callgsubr
        </CharString>
        <CharString name="Acaron">
          -64 callsubr
          82 -21 134 -61 callsubr
          251 -83 callsubr
        </CharString>
        <CharString name="Acircumflex">
          -64 callsubr
          82 -21 134 -61 callsubr
          117 -103 callsubr
          endchar
        </CharString>
        <CharString name="Acircumflexacute">
          -64 callsubr
          82 -21 291 -61 callsubr
          117 -79 callgsubr
        </CharString>
        <CharString name="Acircumflexdotbelow">
          -64 callsubr
          82 -21 134 -20 hstemhm
          304 101 hintmask 11111000
          -104 callsubr
          168 117 -103 callsubr
          hintmask 00000100
          -47 -935 -82 callsubr
        </CharString>
        <CharString name="Acircumflexgrave">
          -64 callsubr
          82 -21 134 -61 callsubr
          117 -79 callsubr
        </CharString>
        <CharString name="Acircumflexhookabove">
          -64 callsubr
          82 -21 361 -61 callsubr
          117 -103 callsubr
          110 283 -107 callgsubr
        </CharString>
        <CharString name="Acircumflextilde">
          -64 callsubr
          82 -21 189 66 -7 66 -96 callsubr
          hintmask 00010100
          168 117 -103 callsubr
          79 314 -91 callgsubr
        </CharString>
        <CharString name="Adblgrave">
          -64 callsubr
          92 -21 167 -88 callsubr
          133 127 -87 callsubr
        </CharString>
        <CharString name="Adieresis">
          -64 callsubr
          61 91 hstemhm
          211 91 106 91 hintmask 11100000
          -104 callsubr
          hintmask 00011100
          -41 117 -73 callsubr
          endchar
        </CharString>
        <CharString name="Adotbelow">
          -64 callsubr
          hstemhm
          304 101 hintmask 11100000
          -104 callsubr
          hintmask 00010000
          62 -818 -82 callsubr
        </CharString>
        <CharString name="Agrave">
          -64 callsubr
          92 -21 122 -88 callsubr
          107 127 -70 callgsubr
        </CharString>
        <CharString name="Ahookabove">
          -64 callsubr
          82 -21 212 -88 callsubr
          115 251 -107 callgsubr
        </CharString>
        <CharString name="Alpha">
          -64 callsubr
          hstem
          -104 callsubr
          endchar
        </CharString>
        <CharString name="Amacron">
          -64 callsubr
          81 70 -96 callsubr
          hintmask 00010000
          203 137 -58 callsubr
        </CharString>
        <CharString name="Aogonek">
          43 callsubr
          hstemhm
          485 63 hintmask 01000000
          682 -187 rmoveto
          -14 59 rlineto
          hintmask 10111100
          -38 callsubr
          endchar
        </CharString>
        <CharString name="Aogonekacute">
          43 callsubr
          92 30 callsubr
          485 63 hintmask 01000000
          682 -187 rmoveto
          -14 59 rlineto
          hintmask 10111001
          -38 callsubr
          hintmask 00000110
          202 249 -93 callgsubr
        </CharString>
        <CharString name="Aring">
          -67 callgsubr
          47 74 47 hstemhm
          235 67 104 67 hintmask 11100000
          -104 callsubr
          hintmask 00111100
          63 160 -92 callgsubr
          endchar
        </CharString>
        <CharString name="Aringacute">
          -67 callgsubr
          47 74 47 157 -20 hstemhm
          235 67 104 67 hintmask 11100000
          -104 callsubr
          hintmask 00111110
          63 160 -92 callgsubr
          24 242 -93 callgsubr
        </CharString>
        <CharString name="Atilde">
          -64 callsubr
          61 66 -7 66 -96 callsubr
          hintmask 00001000
          188 242 -94 callsubr
        </CharString>
        <CharString name="B">
          -50 callsubr
        </CharString>
        <CharString name="Beta">
          -50 callsubr
        </CharString>
        <CharString name="C">
          70 callsubr
          hstem
          67 101 vstem
          -93 callsubr
          endchar
        </CharString>
        <CharString name="Cacute">
          70 callsubr
          61 30 callsubr
          67 101 hintmask 11001000
          -93 callsubr
          hintmask 00110000
          -60 821 -93 callgsubr
        </CharString>
        <CharString name="Ccaron">
          70 callsubr
          51 -21 134 -20 hstemhm
          67 101 hintmask 11001000
          -93 callsubr
          hintmask 00110000
          -94 823 -83 callsubr
        </CharString>
        <CharString name="Ccedilla">
          74 callsubr
          51 callsubr
          -160 -92 150 149 160 102 139 146 45 callgsubr
          -209 -142 -176 -192 -189 139 -179 213 87 41 13 43 77 hvcurveto
          -202 -79 -19 callsubr
        </CharString>
        <CharString name="Ccircumflex">
          70 callsubr
          51 -21 134 -20 hstemhm
          67 101 hintmask 11001000
          -93 callsubr
          hintmask 00110000
          -94 689 -103 callsubr
          endchar
        </CharString>
        <CharString name="Cdotaccent">
          70 callsubr
          30 101 hstemhm
          67 101 154 101 hintmask 11010000
          -93 callsubr
          hintmask 00101000
          -200 689 -82 callsubr
        </CharString>
        <CharString name="Chi">
          -28 callsubr
        </CharString>
        <CharString name="D">
          68 callsubr
          hstem
          98 98 413 98 vstem
          -69 callsubr
          endchar
        </CharString>
        <CharString name="Dcaron">
          68 callsubr
          48 callsubr
          98 98 413 98 hintmask 11001100
          -69 callsubr
          hintmask 00110000
          -177 527 -83 callsubr
        </CharString>
        <CharString name="Dcroat">
          -41 callsubr
        </CharString>
        <CharString name="Ddotbelow">
          68 callsubr
          hstemhm
          98 98 29 101 283 98 hintmask 11101000
          -69 callsubr
          hintmask 00010000
          -283 -542 -82 callsubr
        </CharString>
        <CharString name="Delta">
          885 0 94 600 -20 hstem
          840 hmoveto
          -348 694 rlineto
          -100 hlineto
          -348 -694 rlineto
          635 94 rmoveto
          -502 hlineto
          144 290 32 65 62 125 13 44 rlinecurve
          12 -39 30 -62 23 -46 rrcurveto
          endchar
        </CharString>
        <CharString name="Dlinebelow">
          767 -184 70 114 59 576 59 hstemhm
          98 98 413 98 hintmask 01111000
          -69 callsubr
          hintmask 10000000
          -142 -526 -58 callsubr
        </CharString>
        <CharString name="E">
          -60 callgsubr
          hstem
          97 101 vstem
          -98 callsubr
          endchar
        </CharString>
        <CharString name="Eacute">
          -60 callgsubr
          75 -21 122 -86 callsubr
          412 867 -93 callgsubr
        </CharString>
        <CharString name="Ebreve">
          -60 callgsubr
          54 73 109 -86 callsubr
          402 927 -105 callgsubr
          endchar
        </CharString>
        <CharString name="Ecaron">
          -60 callgsubr
          65 -21 134 -59 callsubr
          869 -83 callsubr
        </CharString>
        <CharString name="Ecircumflex">
          -60 callgsubr
          65 -21 134 -59 callsubr
          735 -103 callsubr
          endchar
        </CharString>
        <CharString name="Ecircumflexacute">
          -60 callgsubr
          65 -21 291 -59 callsubr
          735 -79 callgsubr
        </CharString>
        <CharString name="Ecircumflexdotbelow">
          -60 callgsubr
          65 -21 134 -20 hstemhm
          97 101 70 101 hintmask 11111100
          -98 callsubr
          378 735 -103 callsubr
          hintmask 00000010
          -47 -935 -82 callsubr
        </CharString>
        <CharString name="Ecircumflexgrave">
          -60 callgsubr
          65 -21 134 -59 callsubr
          735 -79 callsubr
        </CharString>
        <CharString name="Ecircumflexhookabove">
          -60 callgsubr
          65 -21 361 -59 callsubr
          735 -103 callsubr
          110 283 -107 callgsubr
        </CharString>
        <CharString name="Ecircumflextilde">
          -60 callgsubr
          65 -21 189 41 callsubr
          97 101 hintmask 11100010
          -98 callsubr
          hintmask 00010100
          378 735 -103 callsubr
          79 314 -91 callgsubr
        </CharString>
        <CharString name="Edblgrave">
          -60 callgsubr
          75 -21 167 -86 callsubr
          373 745 -87 callsubr
        </CharString>
        <CharString name="Edieresis">
          -60 callgsubr
          44 91 hstemhm
          97 101 -23 91 106 91 hintmask 11101000
          -98 callsubr
          hintmask 00010110
          169 735 -73 callsubr
          endchar
        </CharString>
        <CharString name="Edotaccent">
          -60 callgsubr
          44 101 hstemhm
          97 101 70 101 hintmask 11101000
          -98 callsubr
          hintmask 00010100
          272 735 -82 callsubr
        </CharString>
        <CharString name="Edotbelow">
          -60 callgsubr
          hstemhm
          97 101 70 101 hintmask 11110000
          -98 callsubr
          hintmask 00001000
          272 -200 -82 callsubr
        </CharString>
        <CharString name="Egrave">
          -60 callgsubr
          75 -21 122 -86 callsubr
          317 745 -70 callgsubr
        </CharString>
        <CharString name="Ehookabove">
          -60 callgsubr
          65 -21 212 -86 callsubr
          325 869 -107 callgsubr
        </CharString>
        <CharString name="Emacron">
          -60 callgsubr
          64 70 hstemhm
          97 101 hintmask 11101000
          -98 callsubr
          hintmask 00010000
          413 755 -58 callsubr
        </CharString>
        <CharString name="Eng">
          750 -21 86 564 86 hstem
          97 101 354 100 vstem
          652 347 rmoveto
          184 -77 184 -162 -83 -76 -32 -52 -56 vhcurveto
          63 -101 -694 101 472 vlineto
          92 26 87 65 102 hhcurveto
          115 24 -147 -135 -135 -24 -147 -115 hvcurveto
          -86 vlineto
          162 77 185 183 hvcurveto
          endchar
        </CharString>
        <CharString name="Eogonek">
          637 -212 70 142 78 248 66 229 70 hstem
          97 101 199 63 24 63 vstem
          -40 callsubr
          endchar
        </CharString>
        <CharString name="Eogonekacute">
          637 -212 70 142 78 248 66 229 70 75 30 callsubr
          97 101 199 63 24 63 hintmask 1111001110000000
          -40 callsubr
          hintmask 0000110000000000
          -85 1054 -93 callgsubr
        </CharString>
        <CharString name="Epsilon">
          -60 callgsubr
          hstem
          97 101 vstem
          -98 callsubr
          endchar
        </CharString>
        <CharString name="Ereversed">
          -60 callgsubr
          hstem
          491 101 vstem
          592 hmoveto
          691 -480 -70 197 vlineto
          12 12 1 12 hhcurveto
          146 -230 -349 -66 349 -250 -52 hlineto
          -252 2 rlineto
          -90 -78 hlineto
          endchar
        </CharString>
        <CharString name="Eta">
          -8 callsubr
          hstem
          97 101 353 101 vstem
          -55 callgsubr
          endchar
        </CharString>
        <CharString name="Eth">
          -41 callsubr
        </CharString>
        <CharString name="Etilde">
          -60 callgsubr
          44 66 -7 66 -87 callgsubr
          hintmask 00001000
          398 860 -94 callsubr
        </CharString>
        <CharString name="Euro">
          636 -21 70 206 60 64 60 206 70 hstem
          127 100 vstem
          583 35 rmoveto
          -7 76 rlineto
          -50 -52 -31 -12 -72 hhcurveto
          -57 -48 39 48 -32 hvcurveto
          -24 37 -15 40 -9 42 rrcurveto
          260 hlineto
          11 60 rlineto
          -279 hlineto
          -1 11 0 11 10 vvcurveto
          11 0 11 1 10 vhcurveto
          290 hlineto
          10 60 rlineto
          -292 hlineto
          9 42 15 41 24 36 rrcurveto
          49 32 48 38 57 hhcurveto
          56 38 -15 -39 40 hvcurveto
          16 90 rlineto
          25 -52 -40 9 -58 hhcurveto
          -82 -74 -43 -64 -52 hvcurveto
          -39 -50 -25 -58 -13 -61 rrcurveto
          -72 hlineto
          -10 -60 rlineto
          74 hlineto
          -1 -10 0 -11 -11 vvcurveto
          -10 0 -11 1 -11 vhcurveto
          -64 hlineto
          -10 -60 rlineto
          82 hlineto
          13 -61 25 -58 39 -49 rrcurveto
          -64 52 74 -44 82 hhcurveto
          74 30 11 45 58 hvcurveto
          endchar
        </CharString>
        <CharString name="F">
          608 21 -21 313 66 242 70 hstem
          97 101 vstem
          563 621 rmoveto
          70 -466 -691 101 313 320 66 -320 243 139 vlineto
          -49 callgsubr
          endchar
        </CharString>
        <CharString name="G">
          -1 callsubr
          hstem
          67 101 380 87 vstem
          -99 callsubr
          endchar
        </CharString>
        <CharString name="Gacute">
          -1 callsubr
          61 30 callsubr
          67 101 380 87 hintmask 11100110
          -99 callsubr
          hintmask 00011000
          -90 828 -93 callgsubr
        </CharString>
        <CharString name="Gamma">
          578 21 -21 621 70 hstem
          97 101 vstem
          533 621 rmoveto
          70 -436 -691 101 622 124 vlineto
          -49 callgsubr
          endchar
        </CharString>
        <CharString name="Gbreve">
          -1 callsubr
          40 73 109 -20 hstemhm
          67 101 380 87 hintmask 11100110
          -99 callsubr
          hintmask 00011000
          -100 888 -105 callgsubr
          endchar
        </CharString>
        <CharString name="Gcaron">
          -1 callsubr
          51 -21 134 -20 hstemhm
          67 101 380 87 hintmask 11100110
          -99 callsubr
          hintmask 00011000
          -124 830 -83 callsubr
        </CharString>
        <CharString name="Gcedilla">
          708 -43 callgsubr
          66 1 callgsubr
          hstem
          67 101 380 87 vstem
          -99 callsubr
          -239 -195 -85 callsubr
        </CharString>
        <CharString name="Gcircumflex">
          -1 callsubr
          51 -21 134 -20 hstemhm
          67 101 380 87 hintmask 11100110
          -99 callsubr
          hintmask 00011000
          -124 696 -103 callsubr
          endchar
        </CharString>
        <CharString name="Gcommaaccent">
          708 -43 callgsubr
          66 1 callgsubr
          hstemhm
          67 101 380 87 hintmask 00111110
          -99 callsubr
          hintmask 11000000
          -239 -195 -85 callsubr
        </CharString>
        <CharString name="Gdotaccent">
          -1 callsubr
          30 101 hstemhm
          67 101 136 101 143 87 hintmask 11101010
          -99 callsubr
          hintmask 00010100
          -230 696 -82 callsubr
        </CharString>
        <CharString name="H">
          -8 callsubr
          hstem
          97 101 353 101 vstem
          -55 callgsubr
          endchar
        </CharString>
        <CharString name="H_uni0303">
          -8 callsubr
          61 41 callsubr
          97 101 353 101 hintmask 11100110
          -55 callgsubr
          hintmask 00001000
          860 vmoveto
          -66 hlineto
          hintmask 00010000
          -32 -1 -11 -27 -28 hhcurveto
          -25 -25 17 8 -11 hvcurveto
          hintmask 00001000
          19 -30 -23 15 -28 hhcurveto
          hintmask 00010000
          -51 -52 -46 -79 -1 hvcurveto
          66 hlineto
          hintmask 00001000
          32 1 11 27 28 hhcurveto
          25 25 -17 -8 11 hvcurveto
          hintmask 00010000
          -19 30 23 -15 28 hhcurveto
          hintmask 00001010
          51 52 46 79 1 hvcurveto
          endchar
        </CharString>
        <CharString name="Hbar">
          750 21 -21 328 66 92 70 138 -20 hstem
          97 101 353 101 vstem
          709 486 rmoveto
          70 -57 138 -101 -138 -353 138 -101 -138 -57 -70 57 -486 101 328 353 -328 101 486 vlineto
          -101 -92 rmoveto
          -353 92 353 hlineto
          endchar
        </CharString>
        <CharString name="Hbrevebelow">
          750 63 callgsubr
          99 -21 328 66 300 -20 hstemhm
          97 101 353 101 hintmask 00111110
          -55 callgsubr
          hintmask 11000000
          4 -58 -105 callgsubr
          endchar
        </CharString>
        <CharString name="Hcircumflex">
          -8 callsubr
          82 -21 134 -20 hstemhm
          97 101 353 101 hintmask 11100110
          -55 callgsubr
          hintmask 00011000
          -20 735 -103 callsubr
          endchar
        </CharString>
        <CharString name="Hdieresis">
          -8 callsubr
          61 91 hstemhm
          97 101 33 91 106 91 32 101 hintmask 11101001
          -55 callgsubr
          hintmask 00010110
          -229 735 -73 callsubr
          endchar
        </CharString>
        <CharString name="Hdotbelow">
          -8 callsubr
          hstemhm
          97 101 126 101 126 101 hintmask 11110100
          -55 callgsubr
          hintmask 00001000
          -126 -200 -82 callsubr
        </CharString>
        <CharString name="I">
          -3 callgsubr
          hstem
          97 101 vstem
          -51 callsubr
          endchar
        </CharString>
        <CharString name="I_J">
          767 -21 67 648 -20 hstem
          97 101 383 98 vstem
          -51 callsubr
          582 -58 callgsubr
          endchar
        </CharString>
        <CharString name="Iacute">
          -3 callgsubr
          92 30 callsubr
          97 101 hintmask 11001000
          -51 callsubr
          32 callsubr
        </CharString>
        <CharString name="Ibreve">
          -3 callgsubr
          71 73 109 -20 hstemhm
          97 101 hintmask 11001000
          -51 callsubr
          hintmask 00110000
          231 927 -105 callgsubr
          endchar
        </CharString>
        <CharString name="Icaron">
          -3 callgsubr
          82 -21 134 -20 hstemhm
          97 101 hintmask 11001000
          -51 callsubr
          hintmask 00110000
          207 869 -83 callsubr
        </CharString>
        <CharString name="Icircumflex">
          -3 callgsubr
          82 -21 134 -20 hstemhm
          97 101 hintmask 11001000
          -51 callsubr
          hintmask 00110000
          207 735 -103 callsubr
          endchar
        </CharString>
        <CharString name="Idblgrave">
          -3 callgsubr
          92 78 callsubr
          hstemhm
          97 101 hintmask 11001000
          -51 callsubr
          hintmask 00110000
          202 745 -87 callsubr
        </CharString>
        <CharString name="Idieresis">
          295 58 callsubr
          4 91 2 101 3 91 hintmask 11001000
          -51 callsubr
          hintmask 00110100
          -2 735 -73 callsubr
          endchar
        </CharString>
        <CharString name="Idieresisacute">
          -3 callgsubr
          61 91 30 callgsubr
          4 91 2 101 3 91 hintmask 11000010
          -51 callsubr
          hintmask 00111101
          -2 735 -73 callsubr
          137 -5 callgsubr
        </CharString>
        <CharString name="Idotaccent">
          -3 callgsubr
          61 101 hstemhm
          97 101 hintmask 11010000
          -51 callsubr
          hintmask 00110000
          101 735 -82 callsubr
        </CharString>
        <CharString name="Idotbelow">
          -3 callgsubr
          hstemhm
          97 101 vstemhm
          -51 callsubr
          hintmask 00100000
          101 -200 -82 callsubr
        </CharString>
        <CharString name="Igrave">
          -3 callgsubr
          92 30 callsubr
          97 101 hintmask 11001000
          -51 callsubr
          hintmask 00111000
          101 745 -70 callgsubr
        </CharString>
        <CharString name="Ihookabove">
          -3 callgsubr
          82 -21 212 -20 hstemhm
          97 101 hintmask 11001000
          -51 callsubr
          hintmask 00110000
          154 869 -107 callgsubr
        </CharString>
        <CharString name="Imacron">
          -3 callgsubr
          81 70 hstemhm
          97 101 hintmask 11010000
          -51 callsubr
          hintmask 00100000
          242 755 -58 callsubr
        </CharString>
        <CharString name="Imacron.alt">
          -3 callgsubr
          81 70 hstemhm
          97 101 hintmask 11010000
          -51 callsubr
          hintmask 00100000
          153 755 -6 callsubr
        </CharString>
        <CharString name="Iogonek">
          295 -212 70 163 -42 callsubr
          hstem
          97 101 vstem
          242 -187 rmoveto
          -63 callgsubr
          -1 44 45 53 callgsubr
          694 -101 -694 35 vlineto
          71 callgsubr
          -56 callgsubr
          endchar
        </CharString>
        <CharString name="Iogonekacute">
          295 -212 70 163 -42 callsubr
          92 -21 122 -20 59 callgsubr
          242 -187 rmoveto
          -63 callgsubr
          -1 44 45 53 callgsubr
          694 -101 -694 35 vlineto
          71 callgsubr
          -56 callgsubr
          hintmask 00011100
          141 1054 -93 callgsubr
        </CharString>
        <CharString name="Iota">
          -3 callgsubr
          hstem
          97 101 vstem
          -51 callsubr
          endchar
        </CharString>
        <CharString name="Itilde">
          -3 callgsubr
          61 41 callsubr
          97 101 hintmask 11001000
          -51 callsubr
          hintmask 00010000
          227 860 -103 callgsubr
        </CharString>
        <CharString name="J">
          69 callsubr
          hstem
          315 98 vstem
          413 -58 callgsubr
          endchar
        </CharString>
        <CharString name="J_uni030C.cap">
          501.75 -21 67 473 -21 115 81 hstem
          315 98 vstem
          413 -58 callgsubr
          121 465 -85 callsubr
        </CharString>
        <CharString name="Jacute">
          69 callsubr
          92 30 callsubr
          315 98 hintmask 11001000
          413 -58 callgsubr
          hintmask 00111000
          188 718 -93 callgsubr
        </CharString>
        <CharString name="Jcircumflex">
          69 callsubr
          82 -21 134 -20 hstemhm
          315 98 hintmask 11001000
          413 -58 callgsubr
          hintmask 00110000
          107 586 -103 callsubr
          endchar
        </CharString>
        <CharString name="K">
          738 5 callsubr
          100 94 vstem
          -49 callsubr
          endchar
        </CharString>
        <CharString name="Kappa">
          738 5 callsubr
          100 94 vstem
          -49 callsubr
          endchar
        </CharString>
        <CharString name="Kcedilla">
          738 13 callgsubr
          hstem
          100 94 vstem
          -49 callsubr
          -180 -156 -85 callsubr
        </CharString>
        <CharString name="Kcommaaccent">
          738 4 callsubr
          100 94 hintmask 00111000
          -49 callsubr
          hintmask 11000000
          -180 -156 -85 callsubr
        </CharString>
        <CharString name="L">
          48 callgsubr
          hstem
          97 101 vstem
          -51 callgsubr
          endchar
        </CharString>
        <CharString name="L_uni0303">
          48 callgsubr
          61 41 callsubr
          97 101 hintmask 11001000
          -51 callgsubr
          hintmask 00010000
          227 860 -103 callgsubr
        </CharString>
        <CharString name="Lacute">
          48 callgsubr
          92 30 callsubr
          97 101 hintmask 11001000
          -51 callgsubr
          32 callsubr
        </CharString>
        <CharString name="Lambda">
          649 5 callsubr
          618 hmoveto
          -246 694 rlineto
          -96 hlineto
          -246 -694 rlineto
          81 hlineto
          96 272 58 176 14 40 28 88 4 37 rlinecurve
          1 hlineto
          2 -22 14 -53 17 -54 42 -130 rcurveline
          124 -354 rlineto
          endchar
        </CharString>
        <CharString name="Lcaron">
          578 0 69 450 -21 115 81 hstem
          97 101 vstem
          -51 callgsubr
          242 614 -85 callsubr
        </CharString>
        <CharString name="Lcedilla">
          578 -43 callgsubr
          76 79 callsubr
          hstem
          97 101 vstem
          -51 callgsubr
          233 -156 -85 callsubr
        </CharString>
        <CharString name="Lcommaaccent">
          578 -43 callgsubr
          76 79 callsubr
          hstemhm
          97 101 hintmask 00111000
          -51 callgsubr
          hintmask 11000000
          233 -156 -85 callsubr
        </CharString>
        <CharString name="Ldot">
          578 0 69 248 101 276 -20 hstem
          97 101 188 101 vstem
          -51 callgsubr
          390 317 -82 callsubr
        </CharString>
        <CharString name="Ldotbelow">
          48 callgsubr
          hstemhm
          97 101 40 101 hintmask 11100000
          -51 callgsubr
          hintmask 00010000
          242 -200 -82 callsubr
        </CharString>
        <CharString name="Ldotbelowmacron">
          48 callgsubr
          81 70 hstemhm
          97 101 40 101 hintmask 11011000
          -51 callgsubr
          242 -200 -76 callsubr
          hintmask 00101000
          101 955 -58 callsubr
        </CharString>
        <CharString name="Lslash">
          667 73 callgsubr
          hstem
          189 101 vstem
          625 hmoveto
          71 vlineto
          -285 -2 rlineto
          -50 298 hlineto
          163 136 -38 45 -125 -106 rlineto
          252 -101 -336 vlineto
          -94 -80 37 -43 57 48 rlineto
          -283 vlineto
          endchar
        </CharString>
        <CharString name="M">
          927 5 callsubr
          105 84 548 84 vstem
          -63 callsubr
          endchar
        </CharString>
        <CharString name="Mdotbelow">
          927 -44 callsubr
          hstemhm
          105 84 224 101 223 84 hintmask 11101000
          -63 callsubr
          hintmask 00010000
          -223 -200 -82 callsubr
        </CharString>
        <CharString name="Mu">
          927 5 callsubr
          105 84 548 84 vstem
          -63 callsubr
          endchar
        </CharString>
        <CharString name="N">
          47 callsubr
          hstem
          100 84 381 84 vstem
          -77 callsubr
          endchar
        </CharString>
        <CharString name="Nacute">
          47 callsubr
          92 30 callsubr
          100 84 381 84 hintmask 11001100
          -77 callsubr
          hintmask 00110100
          52 867 -93 callgsubr
        </CharString>
        <CharString name="Ncaron">
          47 callsubr
          82 -21 134 -20 hstemhm
          100 84 381 84 hintmask 11001100
          -77 callsubr
          hintmask 00110000
          18 869 -83 callsubr
        </CharString>
        <CharString name="Ncedilla">
          750 13 callgsubr
          hstem
          100 84 381 84 vstem
          -77 callsubr
          -97 -156 -85 callsubr
        </CharString>
        <CharString name="Ncommaaccent">
          750 4 callsubr
          100 84 381 84 hintmask 00111100
          -77 callsubr
          hintmask 11000000
          -97 -156 -85 callsubr
        </CharString>
        <CharString name="Ndotaccent">
          47 callsubr
          61 101 hstemhm
          100 84 140 101 140 84 hintmask 11010100
          -77 callsubr
          hintmask 00101000
          -88 735 -82 callsubr
        </CharString>
        <CharString name="Ndotbelow">
          47 callsubr
          hstemhm
          100 84 140 101 140 84 hintmask 11101000
          -77 callsubr
          hintmask 00010000
          -88 -200 -82 callsubr
        </CharString>
        <CharString name="Ntilde">
          47 callsubr
          61 41 callsubr
          100 84 381 84 hintmask 11001100
          -77 callsubr
          hintmask 00010000
          38 860 -103 callgsubr
        </CharString>
        <CharString name="Nu">
          47 callsubr
          hstem
          100 84 381 84 vstem
          -77 callsubr
          endchar
        </CharString>
        <CharString name="O">
          -56 callsubr
          hstem
          59 101 464 101 vstem
          -106 callgsubr
          endchar
        </CharString>
        <CharString name="OE">
          -62 callgsubr
        </CharString>
        <CharString name="OE.dup">
          -62 callgsubr
        </CharString>
        <CharString name="Oacute">
          -56 callsubr
          51 -21 122 -100 callsubr
          -41 507 -93 callgsubr
        </CharString>
        <CharString name="Obreve">
          -56 callsubr
          30 73 109 -100 callsubr
          -51 567 -105 callgsubr
          endchar
        </CharString>
        <CharString name="Ocaron">
          -56 callsubr
          41 -21 134 -81 callsubr
          509 -83 callsubr
        </CharString>
        <CharString name="Ocircumflex">
          -56 callsubr
          41 -21 134 -81 callsubr
          375 -103 callsubr
          endchar
        </CharString>
        <CharString name="Ocircumflexacute">
          -56 callsubr
          41 -21 291 -81 callsubr
          375 -79 callgsubr
        </CharString>
        <CharString name="Ocircumflexdotbelow">
          -56 callsubr
          41 -21 134 -20 hstemhm
          59 101 182 101 181 101 hintmask 11111010
          -106 callgsubr
          -75 375 -103 callsubr
          hintmask 00000100
          -47 -935 -82 callsubr
        </CharString>
        <CharString name="Ocircumflexgrave">
          -56 callsubr
          41 -21 134 -81 callsubr
          375 -79 callsubr
        </CharString>
        <CharString name="Ocircumflexhookabove">
          -56 callsubr
          41 -21 361 -81 callsubr
          375 -103 callsubr
          110 283 -107 callgsubr
        </CharString>
        <CharString name="Ocircumflextilde">
          -56 callsubr
          41 -21 189 41 callsubr
          59 101 464 101 hintmask 11000110
          -106 callgsubr
          hintmask 00101000
          -75 375 -103 callsubr
          79 314 -94 callsubr
        </CharString>
        <CharString name="Odblgrave">
          -56 callsubr
          51 -21 167 -100 callsubr
          -80 385 -87 callsubr
        </CharString>
        <CharString name="Odieresis">
          -56 callsubr
          20 91 hstemhm
          59 101 89 91 106 91 87 101 hintmask 11010010
          -106 callgsubr
          hintmask 00101100
          -284 375 -73 callsubr
          endchar
        </CharString>
        <CharString name="Odotbelow">
          -56 callsubr
          hstemhm
          59 101 182 101 181 101 hintmask 11101000
          -106 callgsubr
          hintmask 00010000
          -181 -560 -82 callsubr
        </CharString>
        <CharString name="Ograve">
          -56 callsubr
          51 -21 122 -100 callsubr
          -136 385 -70 callgsubr
        </CharString>
        <CharString name="Ohookabove">
          -56 callsubr
          41 -21 212 -100 callsubr
          -128 509 -107 callgsubr
        </CharString>
        <CharString name="Ohorn">
          -56 callsubr
          70 -20 hstemhm
          59 100 397 100 -91 91 -33 100 hintmask 11110100
          -92 callsubr
          hintmask 00000010
          64 70 33 93 95 vvcurveto
          -100 17 rmoveto
          hintmask 11011000
          -75 callgsubr
          hintmask 00000010
          47 -56 20 -73 -73 vvcurveto
          endchar
        </CharString>
        <CharString name="Ohornacute">
          -56 callsubr
          51 -21 40 -20 102 -85 callgsubr
          -70 506 -93 callgsubr
        </CharString>
        <CharString name="Ohorndotbelow">
          -56 callsubr
          70 -20 hstemhm
          59 100 183 101 113 100 -91 91 -33 100 hintmask 11110010
          -92 callsubr
          hintmask 00000001
          64 70 33 93 95 vvcurveto
          -100 17 rmoveto
          hintmask 11010100
          -75 callgsubr
          hintmask 00000001
          47 -56 20 -73 -73 vvcurveto
          hintmask 00001000
          -180 -561 -82 callsubr
        </CharString>
        <CharString name="Ohorngrave">
          -56 callsubr
          51 -21 40 -20 102 -85 callgsubr
          -135 384 -70 callgsubr
        </CharString>
        <CharString name="Ohornhookabove">
          -56 callsubr
          41 -21 50 -20 182 -85 callgsubr
          -127 508 -107 callgsubr
        </CharString>
        <CharString name="Ohorntilde">
          -56 callsubr
          20 41 callsubr
          59 100 397 100 -91 91 -33 100 hintmask 11001010
          -92 callsubr
          hintmask 00000001
          64 70 33 93 95 vvcurveto
          -100 17 rmoveto
          hintmask 11001100
          -75 callgsubr
          hintmask 00000001
          47 -56 20 -73 -73 vvcurveto
          hintmask 00010000
          -54 499 -103 callgsubr
        </CharString>
        <CharString name="Ohungarumlaut">
          -56 callsubr
          51 -21 167 -100 callsubr
          -233 552 -65 callsubr
        </CharString>
        <CharString name="Omacron">
          -56 callsubr
          40 70 hstemhm
          59 101 464 101 hintmask 11011000
          -106 callgsubr
          hintmask 00100000
          -40 395 -58 callsubr
        </CharString>
        <CharString name="Omega">
          -54 callsubr
        </CharString>
        <CharString name="Omicron">
          -56 callsubr
          hstem
          59 101 464 101 vstem
          -106 callgsubr
          endchar
        </CharString>
        <CharString name="Oogonek">
          -56 callsubr
          hstem
          59 101 464 101 vstem
          -52 callgsubr
          endchar
        </CharString>
        <CharString name="Oogonekacute">
          -56 callsubr
          51 30 callsubr
          59 101 464 101 hintmask 11001100
          -52 callgsubr
          hintmask 00110000
          -41 507 -93 callgsubr
        </CharString>
        <CharString name="Orogate">
          785 59 101 199 66 199 101 vstem
          725 344 rmoveto
          194 -134 157 -166 18 vhcurveto
          172 -66 -172 vlineto
          -166 -18 -134 -157 -194 vvcurveto
          -194 135 -151 165 -18 vhcurveto
          -172 66 172 vlineto
          165 18 135 152 193 vvcurveto
          -101 16 rmoveto
          -190 -111 -120 -121 -121 -111 121 189 177 112 109 120 120 112 -109 -177 vhcurveto
          endchar
        </CharString>
        <CharString name="Oslash">
          33 callsubr
          hstem
          59 94 382 94 43 94 vstem
          -80 callgsubr
          endchar
        </CharString>
        <CharString name="Oslash.dup">
          33 callsubr
          hstem
          59 94 382 94 43 94 vstem
          -80 callgsubr
          endchar
        </CharString>
        <CharString name="Oslashacute">
          33 callsubr
          25 30 callsubr
          59 94 382 94 43 94 hintmask 1111001110000000
          -80 callgsubr
          hintmask 0000110000000000
          -68 523 -93 callgsubr
        </CharString>
        <CharString name="Otilde">
          -56 callsubr
          20 66 -7 66 -101 callgsubr
          hintmask 00010000
          -55 500 -103 callgsubr
        </CharString>
        <CharString name="P">
          -34 callsubr
        </CharString>
        <CharString name="Phi">
          767 21 -21 106 68 346 68 -67 68 105 -20 hstemhm
          59 98 176 94 182 98 hintmask 11101111
          707 347 rmoveto
          119 -118 106 -162 16 vhcurveto
          106 -94 -107 vlineto
          -155 -17 -119 -103 -120 vvcurveto
          -120 119 -103 155 -17 vhcurveto
          -107 94 106 vlineto
          162 16 118 106 119 vvcurveto
          -374 -173 rmoveto
          -107 14 -69 71 88 vvcurveto
          87 68 72 108 14 vhcurveto
          276 -173 rmoveto
          -79 -59 -80 -123 -15 vhcurveto
          hintmask 00010011
          348 vlineto
          123 -15 59 -79 -80 vvcurveto
          endchar
        </CharString>
        <CharString name="Pi">
          750 21 -21 625 66 hstem
          97 101 353 101 vstem
          652 hmoveto
          691 -555 -691 101 625 353 -625 vlineto
          endchar
        </CharString>
        <CharString name="Psi">
          826 21 -21 108 68 372 68 78 -20 hstem
          130 94 138 94 145 94 vstem
          766 550 rmoveto
          66 -84 vlineto
          -46 -35 -13 -163 -75 -1 -153 -144 -36 hvcurveto
          518 -94 -518 vlineto
          -132 36 -6 143 68 vvcurveto
          148 -16 45 -65 vhcurveto
          -84 -66 hlineto
          70 -3 1 -96 -49 vvcurveto
          1 -154 75 -119 156 -22 rrcurveto
          -107 94 107 vlineto
          237 31 2 223 67 vvcurveto
          30 6 89 65 3 vhcurveto
          endchar
        </CharString>
        <CharString name="Q">
          785 -107 -21 107 69 598 69 hstem
          59 98 186 98 186 98 cntrmask 00011100
          725 344 rmoveto
          207 -152 164 -181 -181 -152 -164 -207 -207 154 -158 179 45 41 12 3 10 vhcurveto
          89 -122 rlineto
          118 hlineto
          -127 161 rlineto
          98 70 59 112 129 vvcurveto
          -98 hmoveto
          -113 -43 -86 -63 -51 vhcurveto
          -80 100 rlineto
          -98 hlineto
          101 -139 rlineto
          -5 -17 -22 -2 -13 hhcurveto
          -122 -113 114 182 184 112 118 123 123 112 -118 -184 hvcurveto
          endchar
        </CharString>
        <CharString name="R">
          -7 callgsubr
          hstem
          49 callsubr
          vstem
          -95 callsubr
          endchar
        </CharString>
        <CharString name="Racute">
          -7 callgsubr
          30 callgsubr
          49 callsubr
          hintmask 11100110
          -95 callsubr
          hintmask 00011000
          -3 360 -93 callgsubr
        </CharString>
        <CharString name="Rcaron">
          -7 callgsubr
          48 callsubr
          49 callsubr
          hintmask 11100110
          -95 callsubr
          hintmask 00011000
          -37 362 -83 callsubr
        </CharString>
        <CharString name="Rcedilla">
          688 57 callsubr
          314 66 255 59 hstem
          49 callsubr
          vstem
          -95 callsubr
          -152 -663 -85 callsubr
        </CharString>
        <CharString name="Rcommaaccent">
          688 57 callsubr
          314 66 255 59 hstemhm
          49 callsubr
          hintmask 00111110
          -95 callsubr
          hintmask 11000000
          -152 -663 -85 callsubr
        </CharString>
        <CharString name="Rdblgrave">
          -7 callgsubr
          72 78 callsubr
          hstemhm
          49 callsubr
          hintmask 11100110
          -95 callsubr
          hintmask 00011000
          -71 238 -87 callsubr
        </CharString>
        <CharString name="Rdotaccent">
          -7 callgsubr
          41 101 58 callgsubr
          hintmask 11101010
          -95 callsubr
          hintmask 00010100
          -143 228 -82 callsubr
        </CharString>
        <CharString name="Rdotbelow">
          -7 callgsubr
          58 callgsubr
          hintmask 11110100
          -95 callsubr
          hintmask 00001000
          -143 -707 -82 callsubr
        </CharString>
        <CharString name="Rdotbelowmacron">
          -7 callgsubr
          61 70 58 callgsubr
          hintmask 11101110
          -95 callsubr
          -143 -707 -76 callsubr
          hintmask 00010000
          242 955 -58 callsubr
        </CharString>
        <CharString name="Rho">
          -34 callsubr
        </CharString>
        <CharString name="S">
          22 callsubr
          hstem
          59 86 299 86 vstem
          530 192 rmoveto
          -101 callsubr
          endchar
        </CharString>
        <CharString name="S_S">
          1181 -21 75 589 72 hstem
          59 86 299 86 119 86 299 86 vstem
          530 192 rmoveto
          -101 callsubr
          590 hmoveto
          -101 callsubr
          endchar
        </CharString>
        <CharString name="Sacute">
          22 callsubr
          51 30 callsubr
          59 86 299 86 hintmask 11001100
          530 192 rmoveto
          -101 callsubr
          hintmask 00110000
          -44 675 -93 callgsubr
        </CharString>
        <CharString name="Scaron">
          22 callsubr
          41 -21 134 -20 hstemhm
          59 86 299 86 hintmask 11001100
          530 192 rmoveto
          -101 callsubr
          hintmask 00110000
          -78 677 -83 callsubr
        </CharString>
        <CharString name="Scedilla">
          22 callsubr
          hstem
          59 86 299 86 vstem
          530 192 rmoveto
          -101 callsubr
          -185 -236 -19 callsubr
        </CharString>
        <CharString name="Scircumflex">
          22 callsubr
          41 -21 134 -20 hstemhm
          59 86 299 86 hintmask 11001100
          530 192 rmoveto
          -101 callsubr
          hintmask 00110000
          -78 543 -103 callsubr
          endchar
        </CharString>
        <CharString name="Sdotbelow">
          22 callsubr
          hstemhm
          59 86 100 101 98 86 hintmask 11101000
          530 192 rmoveto
          -101 callsubr
          hintmask 00010000
          -184 -392 -82 callsubr
        </CharString>
        <CharString name="Sigma">
          767 0 76 548 70 hstem
          707 hmoveto
          76 -252 vlineto
          -12 -12 -1 -12 hhcurveto
          -195 hlineto
          203 272 -236 278 rlineto
          207 hlineto
          -49 callgsubr
          273 70 -648 -69 hlineto
          248 -293 -248 -332 rlineto
          endchar
        </CharString>
        <CharString name="T">
          23 callgsubr
          hstem
          312 101 vstem
          -78 callgsubr
          endchar
        </CharString>
        <CharString name="T_uni0303">
          23 callgsubr
          48 41 callsubr
          312 101 hintmask 11001000
          -78 callgsubr
          hintmask 00010000
          -4 243 -103 callgsubr
        </CharString>
        <CharString name="T_uni0308">
          23 callgsubr
          48 91 hstemhm
          219 91 2 101 3 91 hintmask 11001100
          -78 callgsubr
          hintmask 00110100
          -233 118 -73 callsubr
          endchar
        </CharString>
        <CharString name="Tau">
          23 callgsubr
          hstem
          312 101 vstem
          -78 callgsubr
          endchar
        </CharString>
        <CharString name="Tcaron">
          23 callgsubr
          69 -21 134 -20 hstemhm
          312 101 hintmask 11001000
          -78 callgsubr
          hintmask 00110000
          -24 252 -83 callsubr
        </CharString>
        <CharString name="Tcedilla">
          726 -170 -21 168 -20 64 77 callsubr
          hstemhm
          251 145 -84 101 hintmask 01110100
          -78 callgsubr
          -147 -640 -39 callsubr
          hintmask 11001000
          -79 -168 rlineto
          76 hlineto
          endchar
        </CharString>
        <CharString name="Tdotbelow">
          23 callgsubr
          hstemhm
          312 101 vstemhm
          -78 callgsubr
          hintmask 00100000
          -130 -817 -82 callsubr
        </CharString>
        <CharString name="Theta">
          826 -21 68 254 94 254 66 hstem
          59 94 519 94 vstem
          766 344 rmoveto
          206 -160 165 -193 -196 -158 -167 -204 -205 162 -160 191 195 159 162 203 vhcurveto
          -94 hmoveto
          -179 -122 -118 -137 -141 -119 121 176 183 122 122 137 140 120 -125 -180 vhcurveto
          -60 -43 rmoveto
          94 -399 -94 vlineto
          endchar
        </CharString>
        <CharString name="Thorn">
          620 21 -21 180 59 269 59 127 -20 hstem
          100 94 275 91 vstem
          560 374 rmoveto
          102 -93 91 -128 vhcurveto
          -145 127 -94 -694 94 180 131 hlineto
          169 66 113 81 hvcurveto
          -91 hmoveto
          -51 -40 -84 -135 vhcurveto
          -100 269 100 hlineto
          104 71 -64 -70 hvcurveto
          endchar
        </CharString>
        <CharString name="Tlinebelow">
          726 -184 70 135 77 callsubr
          hstemhm
          312 101 hintmask 01110000
          -78 callgsubr
          hintmask 10000000
          11 -801 -58 callsubr
        </CharString>
        <CharString name="U">
          -37 callsubr
          hstem
          97 101 346 87 vstem
          -99 callgsubr
          endchar
        </CharString>
        <CharString name="U_uni032F">
          729 -219 78 callgsubr
          37 59 656 -20 hstemhm
          97 101 346 87 hintmask 00111100
          -99 callgsubr
          hintmask 11000000
          -86 -474 -75 callsubr
        </CharString>
        <CharString name="Uacute">
          -37 callsubr
          92 30 callsubr
          97 101 346 87 hintmask 11001100
          -99 callgsubr
          hintmask 00110000
          -76 633 -93 callgsubr
        </CharString>
        <CharString name="Ubreve">
          -37 callsubr
          71 73 109 -20 hstemhm
          97 101 346 87 hintmask 11001100
          -99 callgsubr
          hintmask 00110000
          -86 693 -105 callgsubr
          endchar
        </CharString>
        <CharString name="Ucaron">
          -37 callsubr
          82 -21 134 -20 hstemhm
          97 101 346 87 hintmask 11001100
          -99 callgsubr
          hintmask 00110000
          -110 635 -83 callsubr
        </CharString>
        <CharString name="Ucircumflex">
          -37 callsubr
          82 -21 134 -20 hstemhm
          97 101 346 87 hintmask 11001100
          -99 callgsubr
          hintmask 00110000
          -110 501 -103 callsubr
          endchar
        </CharString>
        <CharString name="Udblgrave">
          -37 callsubr
          92 78 callsubr
          hstemhm
          97 101 346 87 hintmask 11001100
          -99 callgsubr
          hintmask 00110000
          -115 511 -87 callsubr
        </CharString>
        <CharString name="Udieresis">
          -37 callsubr
          61 91 45 callsubr
          hintmask 11010010
          -99 callgsubr
          hintmask 00101100
          8 callgsubr
          endchar
        </CharString>
        <CharString name="Udieresisacute">
          -37 callsubr
          61 91 72 -21 122 -20 45 callsubr
          hintmask 1100010010000000
          -99 callgsubr
          hintmask 0011101100000000
          8 callgsubr
          137 -5 callgsubr
        </CharString>
        <CharString name="Udieresiscaron">
          -37 callsubr
          61 91 62 -21 134 -20 45 callsubr
          hintmask 1100010010000000
          -99 callgsubr
          hintmask 0011101100000000
          8 callgsubr
          103 266 -83 callsubr
        </CharString>
        <CharString name="Udieresisgrave">
          -37 callsubr
          61 91 72 -21 122 -20 45 callsubr
          hintmask 1100010010000000
          -99 callgsubr
          hintmask 0011101100000000
          8 callgsubr
          42 142 -70 callgsubr
        </CharString>
        <CharString name="Udotbelow">
          -37 callsubr
          hstemhm
          97 101 116 101 129 87 hintmask 11101000
          -99 callgsubr
          hintmask 00010000
          -216 -434 -82 callsubr
        </CharString>
        <CharString name="Ugrave">
          -37 callsubr
          92 30 callsubr
          97 101 346 87 hintmask 11001100
          -99 callgsubr
          hintmask 00110000
          -171 511 -70 callgsubr
        </CharString>
        <CharString name="Uhookabove">
          -37 callsubr
          82 -21 212 -20 hstemhm
          97 101 346 87 hintmask 11001100
          -99 callgsubr
          hintmask 00110000
          -163 635 -107 callgsubr
        </CharString>
        <CharString name="Uhorn">
          729 -21 59 747 -20 -1 callgsubr
          hintmask 00001000
          21 callgsubr
          hintmask 01000100
          -2 2 rlineto
          -87 hlineto
          hintmask 00001000
          -2 53 callsubr
          hintmask 10110100
          -88 callgsubr
          hintmask 00001000
          endchar
        </CharString>
        <CharString name="Uhornacute">
          729 -21 59 728 -21 40 -20 102 -20 -1 callgsubr
          hintmask 00000010
          21 callgsubr
          hintmask 00100001
          -2 2 rlineto
          -87 hlineto
          hintmask 00000010
          -2 53 callsubr
          hintmask 10001101
          -88 callgsubr
          hintmask 00000010
          hintmask 01010000
          -211 172 -93 callgsubr
        </CharString>
        <CharString name="Uhorndotbelow">
          729 -21 59 747 -20 hstemhm
          97 100 117 101 128 87 16 91 -89 87 hintmask 00000100
          21 callgsubr
          hintmask 01000010
          -2 2 rlineto
          -87 hlineto
          hintmask 00000100
          -2 53 callsubr
          hintmask 10101010
          -88 callgsubr
          hintmask 00000100
          hintmask 00010000
          -321 -895 -82 callsubr
        </CharString>
        <CharString name="Uhorngrave">
          729 -21 59 728 -21 40 -20 102 -20 -1 callgsubr
          hintmask 00000010
          21 callgsubr
          hintmask 00100001
          -2 2 rlineto
          -87 hlineto
          hintmask 00000010
          -2 53 callsubr
          hintmask 10001101
          -88 callgsubr
          hintmask 00000010
          hintmask 01010000
          -276 50 -70 callgsubr
        </CharString>
        <CharString name="Uhornhookabove">
          729 -21 59 718 -21 50 -20 182 -20 -1 callgsubr
          hintmask 00000010
          21 callgsubr
          hintmask 00100001
          -2 2 rlineto
          -87 hlineto
          hintmask 00000010
          -2 53 callsubr
          hintmask 10001101
          -88 callgsubr
          hintmask 00000010
          hintmask 01010000
          -268 174 -107 callgsubr
        </CharString>
        <CharString name="Uhorntilde">
          729 -21 59 697 66 -7 66 -1 callgsubr
          hintmask 00000100
          21 callgsubr
          hintmask 00000010
          -2 2 rlineto
          -87 hlineto
          hintmask 00000100
          -2 53 callsubr
          hintmask 10011010
          -88 callgsubr
          hintmask 00000100
          hintmask 00100000
          -195 165 -82 callgsubr
        </CharString>
        <CharString name="Uhungarumlaut">
          -37 callsubr
          92 78 callsubr
          hstemhm
          97 101 346 87 hintmask 11001100
          -99 callgsubr
          hintmask 00110000
          -268 678 -65 callsubr
        </CharString>
        <CharString name="Umacron">
          -37 callsubr
          81 70 hstemhm
          97 101 346 87 hintmask 11011000
          -99 callgsubr
          hintmask 00100000
          -75 521 -58 callsubr
        </CharString>
        <CharString name="Uogonek">
          729 -212 70 121 59 656 -20 hstem
          97 101 170 101 75 87 vstem
          631 234 rmoveto
          460 -87 -461 vlineto
          -134 -90 -61 -86 -86 -84 62 132 vhcurveto
          462 -101 -460 vlineto
          -139 113 -104 133 -11 vhcurveto
          -35 -28 -24 -39 2 -40 24 callsubr
          -28 2 -24 6 -1 30 -1 35 28 28 35 23 rrcurveto
          123 20 97 101 131 vvcurveto
          endchar
        </CharString>
        <CharString name="Upsilon">
          826 21 -21 639 76 hstem
          59 87 216 101 216 87 cntrmask 00111000
          766 555 rmoveto
          100 -2 -84 60 -83 hhcurveto
          -147 -29 -177 -47 -8 hvcurveto
          -1 hlineto
          65 -12 -32 159 -140 hhcurveto
          -83 -84 -60 -100 -2 hvcurveto
          87 hlineto
          51 2 36 33 46 hhcurveto
          92 40 -99 -170 hvcurveto
          -370 101 370 vlineto
          161 36 108 96 46 36 -33 -51 2 vhcurveto
          endchar
        </CharString>
        <CharString name="Uring">
          729 -21 59 656 47 74 47 hstemhm
          97 101 47 67 104 67 61 87 hintmask 11010010
          -99 callgsubr
          hintmask 01101100
          -215 544 -92 callgsubr
          endchar
        </CharString>
        <CharString name="Utilde">
          -37 callsubr
          61 41 callsubr
          97 101 346 87 hintmask 11001100
          -99 callgsubr
          hintmask 00010000
          -90 626 -103 callgsubr
        </CharString>
        <CharString name="V">
          70 callgsubr
          hstem
          692 694 rmoveto
          -87 hlineto
          -126 -307 -7 -17 -99 -241 -9 -50 rlinecurve
          -1 hlineto
          -10 51 -100 242 -4 10 -128 312 rcurveline
          -106 hlineto
          288 -694 rlineto
          101 hlineto
          endchar
        </CharString>
        <CharString name="W">
          1004 5 callsubr
          -90 callgsubr
          endchar
        </CharString>
        <CharString name="Wacute">
          1004 -44 callsubr
          92 30 callsubr
          hintmask 11000000
          -90 callgsubr
          hintmask 00110000
          -78 867 -93 callgsubr
        </CharString>
        <CharString name="Wcircumflex">
          1004 -44 callsubr
          82 -21 134 -20 hstemhm
          hintmask 11000000
          -90 callgsubr
          hintmask 00110000
          -112 735 -103 callsubr
          endchar
        </CharString>
        <CharString name="Wdieresis">
          1004 58 callsubr
          358 91 106 91 hintmask 11000000
          -90 callgsubr
          hintmask 00111000
          -321 735 -73 callsubr
          endchar
        </CharString>
        <CharString name="Wgrave">
          1004 -44 callsubr
          92 30 callsubr
          hintmask 11000000
          -90 callgsubr
          hintmask 00110000
          -173 745 -70 callgsubr
        </CharString>
        <CharString name="X">
          -28 callsubr
        </CharString>
        <CharString name="Xi">
          708 0 84 -84 85 230 84 203 85 -84 84 hstemhm
          hintmask 00001000
          657 602 rmoveto
          85 -607 vlineto
          hintmask 00010000
          -85 134 vlineto
          hintmask 00001000
          169 1 rlineto
          hintmask 01010000
          170 -1 rlineto
          140 -602 rmoveto
          85 -137 vlineto
          hintmask 10000000
          -172 -1 rlineto
          hintmask 01100000
          -173 1 rlineto
          -137 -85 hlineto
          545 315 rmoveto
          84 -471 -84 vlineto
          endchar
        </CharString>
        <CharString name="Y">
          70 callgsubr
          hstem
          305 98 vstem
          -74 callgsubr
          endchar
        </CharString>
        <CharString name="Yacute">
          70 callgsubr
          92 30 callsubr
          305 98 hintmask 11001000
          -74 callgsubr
          hintmask 00110000
          142 589 -93 callgsubr
        </CharString>
        <CharString name="Ycircumflex">
          70 callgsubr
          82 -21 134 -20 hstemhm
          305 98 hintmask 11001000
          -74 callgsubr
          hintmask 00110000
          108 457 -103 callsubr
          endchar
        </CharString>
        <CharString name="Ydieresis">
          708 58 callsubr
          211 91 3 98 5 91 hintmask 11001000
          -74 callgsubr
          hintmask 00110100
          -101 457 -73 callsubr
          endchar
        </CharString>
        <CharString name="Ydotbelow">
          70 callgsubr
          hstemhm
          304 101 -100 98 hintmask 11010000
          -74 callgsubr
          hintmask 00100000
          2 -478 -82 callsubr
        </CharString>
        <CharString name="Ygrave">
          70 callgsubr
          92 30 callsubr
          305 98 hintmask 11001000
          -74 callgsubr
          hintmask 00110000
          47 467 -70 callgsubr
        </CharString>
        <CharString name="Yhookabove">
          70 callgsubr
          82 -21 212 -20 hstemhm
          305 98 hintmask 11001000
          -74 callgsubr
          hintmask 00110000
          55 591 -107 callgsubr
        </CharString>
        <CharString name="Ytilde">
          70 callgsubr
          61 41 callsubr
          305 98 hintmask 11001000
          -74 callgsubr
          hintmask 00010000
          128 582 -103 callgsubr
        </CharString>
        <CharString name="Z">
          21 callsubr
          hstem
          59 536 vstem
          -71 callsubr
          endchar
        </CharString>
        <CharString name="Zacute">
          21 callsubr
          30 callgsubr
          59 536 hintmask 11001000
          -71 callsubr
          hintmask 00110000
          456 867 -93 callgsubr
        </CharString>
        <CharString name="Zcaron">
          21 callsubr
          48 callsubr
          59 536 hintmask 11001000
          -71 callsubr
          hintmask 00110000
          422 869 -83 callsubr
        </CharString>
        <CharString name="Zdotaccent">
          21 callsubr
          41 101 hstemhm
          59 536 -321 101 hintmask 11010000
          -71 callsubr
          hintmask 00101000
          316 735 -82 callsubr
        </CharString>
        <CharString name="Zdotbelow">
          21 callsubr
          hstemhm
          59 536 -321 101 hintmask 11100000
          -71 callsubr
          hintmask 00010000
          316 -200 -82 callsubr
        </CharString>
        <CharString name="Zeta">
          21 callsubr
          hstem
          59 536 vstem
          -71 callsubr
          endchar
        </CharString>
        <CharString name="a">
          -68 callsubr
          hstem
          -29 callsubr
          vstem
          -107 callsubr
          endchar
        </CharString>
        <CharString name="aacute">
          -68 callsubr
          89 -21 167 -98 callgsubr
          56 503 -78 callsubr
        </CharString>
        <CharString name="abreve">
          -68 callsubr
          61 73 109 -102 callgsubr
          hintmask 00011010
          87 511 -105 callgsubr
          endchar
        </CharString>
        <CharString name="abreveacute">
          -68 callsubr
          61 73 266 -102 callgsubr
          hintmask 00011010
          87 511 -60 callsubr
        </CharString>
        <CharString name="abrevedotbelow">
          -68 callsubr
          61 73 109 -20 hstemhm
          55 80 70 101 43 87 hintmask 11111101
          -107 callsubr
          87 511 -105 callgsubr
          hintmask 00000010
          -130 -902 -82 callsubr
        </CharString>
        <CharString name="abrevegrave">
          -68 callsubr
          61 73 109 -102 callgsubr
          hintmask 00011010
          87 511 -57 callgsubr
        </CharString>
        <CharString name="abrevehookabove">
          -68 callsubr
          61 73 124 73 139 -20 6 callgsubr
          hintmask 11100011
          -107 callsubr
          hintmask 00011101
          87 511 -105 callgsubr
          -76 149 -107 callgsubr
        </CharString>
        <CharString name="abrevetilde">
          -68 callsubr
          61 73 164 66 -7 66 6 callgsubr
          hintmask 11100011
          -107 callsubr
          hintmask 00010101
          87 511 -105 callgsubr
          -4 180 -91 callgsubr
        </CharString>
        <CharString name="acaron">
          -68 callsubr
          87 -21 172 -98 callgsubr
          62 506 -81 callgsubr
        </CharString>
        <CharString name="acircumflex">
          -68 callsubr
          87 -21 172 -98 callgsubr
          62 334 -86 callgsubr
          endchar
        </CharString>
        <CharString name="acircumflexacute">
          -68 callsubr
          87 -21 291 -98 callgsubr
          63 334 -79 callgsubr
        </CharString>
        <CharString name="acircumflexdotbelow">
          -68 callsubr
          87 -21 172 -20 hstemhm
          55 80 70 101 43 87 hintmask 11111101
          -107 callsubr
          62 334 -86 callgsubr
          hintmask 00000010
          -46 -725 -82 callsubr
        </CharString>
        <CharString name="acircumflexgrave">
          -68 callsubr
          87 -21 134 -98 callgsubr
          63 334 -79 callsubr
        </CharString>
        <CharString name="acircumflexhookabove">
          -68 callsubr
          87 -21 361 -98 callgsubr
          63 334 -103 callsubr
          110 283 -107 callgsubr
        </CharString>
        <CharString name="acircumflextilde">
          -68 callsubr
          87 -21 189 66 -7 66 6 callgsubr
          hintmask 11100011
          -107 callsubr
          hintmask 00010100
          63 334 -103 callsubr
          79 314 -91 callgsubr
        </CharString>
        <CharString name="acute">
          531 548 2 callgsubr
          415 694 -78 callsubr
        </CharString>
        <CharString name="acute.cap">
          531 516 54 callgsubr
          hstem
          456 617 -93 callgsubr
        </CharString>
        <CharString name="acute.dup">
          531 548 2 callgsubr
          415 694 -78 callsubr
        </CharString>
        <CharString name="acute.ts1">
          531 555 -21 179 -20 hstem
          442 713 rmoveto
          -86 hlineto
          -103 -131 -36 -48 rlineto
          65 hlineto
          endchar
        </CharString>
        <CharString name="adblgrave">
          -68 callsubr
          89 -21 167 -98 callgsubr
          58 336 -87 callsubr
        </CharString>
        <CharString name="adieresis">
          -68 callsubr
          106 91 hstemhm
          55 80 -8 91 76 91 -36 87 hintmask 11101001
          -107 callsubr
          hintmask 00010110
          -131 374 -16 callgsubr
        </CharString>
        <CharString name="adotbelow">
          -68 callsubr
          hstemhm
          55 80 70 101 43 87 hintmask 11110100
          -107 callsubr
          hintmask 00001000
          -43 -391 -82 callsubr
        </CharString>
        <CharString name="ae">
          -74 callsubr
        </CharString>
        <CharString name="ae.dup">
          -74 callsubr
        </CharString>
        <CharString name="aeacute">
          767 -10 66 0 64 69 60 -30 60 0 64 50 66 -64 64 89 78 callsubr
          hstemhm
          49 80 211 64 -57 80 245 64 hintmask 1010101001100000
          736 219 rmoveto
          39 -2 71 -38 58 vhcurveto
          56 -36 -57 16 -43 hhcurveto
          -89 -54 -56 -19 -19 hvcurveto
          33 -22 -47 42 -80 hhcurveto
          -62 -50 -14 -29 -55 hvcurveto
          6 -73 rlineto
          19 28 50 33 83 hhcurveto
          10 38 0 -42 26 hvcurveto
          17 -26 0 -14 -64 vvcurveto
          -183 -5 -108 -46 -80 vvcurveto
          -25 15 -103 108 28 152 0 73 52 vhcurveto
          -23 24 56 -50 92 hhcurveto
          73 56 30 18 26 hvcurveto
          -6 71 rlineto
          -37 -45 -55 -16 -47 hhcurveto
          hintmask 0101010001011000
          -78 -68 64 99 -5 hvcurveto
          245 60 rmoveto
          -238 hlineto
          70 19 52 44 56 hhcurveto
          29 65 -13 -101 17 hvcurveto
          -325 -155 rmoveto
          -68 -97 0 -25 -61 -35 29 35 27 24 14 55 13 vhcurveto
          hintmask 0010000000010000
          37 9 34 4 63 2 rrcurveto
          2 -16 3 -34 -15 vvcurveto
          hintmask 0000000110000000
          186 570 -78 callsubr
        </CharString>
        <CharString name="agrave">
          -68 callsubr
          89 -21 167 -98 callgsubr
          -19 336 -59 callgsubr
        </CharString>
        <CharString name="ahookabove">
          -68 callsubr
          67 -21 212 -98 callgsubr
          10 448 -107 callgsubr
        </CharString>
        <CharString name="amacron">
          -68 callsubr
          117 70 6 callgsubr
          hintmask 11101100
          -107 callsubr
          hintmask 00010000
          98 385 -58 callsubr
        </CharString>
        <CharString name="ampersand">
          806 -21 69 601 66 hstemhm
          44 87 41 70 -10 87 -23 87 0 74 hintmask 10000100
          746 -6 rmoveto
          73 vlineto
          -16 -53 -43 -3 -27 hhcurveto
          -21 -40 2 32 -49 hvcurveto
          52 40 94 97 49 168 -67 19 rcurveline
          -43 -140 -70 -87 -69 -53 -40 38 -76 85 -47 92 rrcurveto
          hintmask 11110010
          74 61 87 72 82 vvcurveto
          79 -55 80 -82 -92 -56 -96 -107 -52 11 -54 20 -55 vhcurveto
          -76 -60 rlineto
          -34 -28 -49 -38 -76 vvcurveto
          -93 83 -77 112 49 79 10 48 82 vhcurveto
          -54 78 62 -4 34 hhcurveto
          17 50 1 14 56 hvcurveto
          -363 563 rmoveto
          -35 -22 -43 -93 -75 vhcurveto
          -21 65 -5 49 32 vvcurveto
          hintmask 11101010
          63 38 36 39 49 15 -59 -33 vhcurveto
          8 -473 rmoveto
          -33 -66 -62 -3 -22 hhcurveto
          -77 -33 62 46 58 30 22 71 53 hvcurveto
          38 -76 76 -86 45 -43 rrcurveto
          endchar
        </CharString>
        <CharString name="anglearc">
          826 -83 -21 708 -20 hstem
          589 46 vstem
          766 23 rmoveto
          10 -6 9 -10 3 vhcurveto
          -138 47 rlineto
          15 51 8 53 54 vvcurveto
          54 -8 53 -15 51 vhcurveto
          138 47 rlineto
          10 3 6 9 10 vvcurveto
          16 -16 11 -14 -5 vhcurveto
          -139 -48 -20 52 -28 48 -35 44 rlinecurve
          6 -4 -7 3 -7 hhcurveto
          -13 -10 -10 -13 -5 2 -5 3 -4 hvcurveto
          32 -40 25 -44 19 -47 -479 -164 rcurveline
          -10 -3 -6 -9 -10 vvcurveto
          -10 6 -9 10 -3 vhcurveto
          479 -164 -19 -47 -25 -44 -32 -40 rlinecurve
          -3 -4 -2 -5 -5 37 callsubr
          7 7 3 6 4 vhcurveto
          35 44 28 48 20 52 139 -48 rcurveline
          14 -5 16 11 16 vvcurveto
          -177 227 rmoveto
          -49 -7 -48 -14 -46 vhcurveto
          -415 143 415 143 rlineto
          14 -46 7 -48 -49 vvcurveto
          endchar
        </CharString>
        <CharString name="angleleft">
          55 callsubr
          353 -227 rmoveto
          13 -9 16 -5 11 vhcurveto
          -164 413 rlineto
          -3 7 -6 10 8 vvcurveto
          4 2 4 2 4 vhcurveto
          8 20 155 391 rlineto
          6 15 14 22 16 vvcurveto
          13 -10 11 -13 vhcurveto
          hintmask 11000000
          -5 -1 -12 -2 -4 -11 -4 -10 rlinecurve
          -9 -22 -56 -139 -87 -219 -25 -63 rlineto
          -4 -10 -7 -12 -11 vvcurveto
          -20 20 -35 10 -26 vhcurveto
          147 -369 10 -25 rlineto
          -12 5 7 -13 15 hhcurveto
          12 10 12 10 hvcurveto
          endchar
        </CharString>
        <CharString name="angleright">
          55 callsubr
          295 251 rmoveto
          10 -6 11 -4 9 vhcurveto
          -168 422 -5 12 rlineto
          15 -5 -6 21 -18 hhcurveto
          hintmask 11000000
          -6 -1 rlineto
          -11 -7 -13 -8 -12 8 -13 4 -10 hvcurveto
          65 -165 78 -195 7 -19 8 -18 7 -19 rlinecurve
          3 -8 7 -10 -9 vvcurveto
          -4 -2 -4 -2 -4 vhcurveto
          -7 -19 -154 -387 rlineto
          -7 -17 -14 -24 -17 vvcurveto
          -13 7 -11 15 vhcurveto
          2 hlineto
          20 2 5 27 6 15 169 424 rcurveline
          4 10 7 11 11 vvcurveto
          endchar
        </CharString>
        <CharString name="aogonek">
          510 -10 66 -56 56 339 64 6 callgsubr
          hintmask 01111000
          462 -187 rmoveto
          -63 callgsubr
          -1 44 45 53 callgsubr
          18 288 hlineto
          102 -78 69 -99 -63 -48 -13 -30 -56 vhcurveto
          6 -73 rlineto
          22 33 49 30 79 hhcurveto
          44 46 -33 -75 hvcurveto
          -40 vlineto
          -148 -5 -146 -31 -93 vvcurveto
          hintmask 10000000
          -50 34 -78 88 43 79 9 39 53 vhcurveto
          hintmask 01011000
          -38 vlineto
          71 callgsubr
          -56 callgsubr
          -113 329 rmoveto
          -20 0 -26 -35 -21 vhcurveto
          -18 -32 -39 -1 -11 hhcurveto
          -55 -42 25 38 64 169 6 45 2 hvcurveto
          endchar
        </CharString>
        <CharString name="aogonekacute">
          510 -10 66 -56 56 339 64 89 78 callsubr
          6 callgsubr
          hintmask 01100110
          462 -187 rmoveto
          -63 callgsubr
          -1 44 45 53 callgsubr
          18 288 hlineto
          102 -78 69 -99 -63 -48 -13 -30 -56 vhcurveto
          6 -73 rlineto
          22 33 49 30 79 hhcurveto
          44 46 -33 -75 hvcurveto
          -40 vlineto
          -148 -5 -146 -31 -93 vvcurveto
          hintmask 10000000
          -50 34 -78 88 43 79 9 39 53 vhcurveto
          hintmask 01000110
          -38 vlineto
          71 callgsubr
          -56 callgsubr
          -113 329 rmoveto
          -20 0 -26 -35 -21 vhcurveto
          -18 -32 -39 -1 -11 hhcurveto
          -55 -42 25 38 64 169 6 45 2 hvcurveto
          hintmask 00011000
          56 503 -78 callsubr
        </CharString>
        <CharString name="aring">
          -68 callsubr
          58 47 74 47 hstemhm
          55 80 1 67 104 67 -25 87 hintmask 1110010010000000
          -107 callsubr
          hintmask 0001101100000000
          -42 410 -92 callgsubr
          endchar
        </CharString>
        <CharString name="aringacute">
          -68 callsubr
          58 47 74 47 157 -20 hstemhm
          55 80 1 67 104 67 -25 87 hintmask 1110001001000000
          -107 callsubr
          hintmask 0001110110000000
          -42 410 -92 callgsubr
          24 242 -93 callgsubr
        </CharString>
        <CharString name="asciicircum">
          556 583 -21 123 59 hstem
          -5 566 vstem
          561 584 rmoveto
          -283 160 -283 -160 11 -22 271 123 272 -123 rlineto
          endchar
        </CharString>
        <CharString name="asciitilde">
          556 193 43 -25 43 -8 43 -25 43 hstemhm
          hintmask 10010000
          555 290 3 callgsubr
          hintmask 01000000
          -10 callsubr
          hintmask 00100000
          20 10 20 11 17 14 rrcurveto
          endchar
        </CharString>
        <CharString name="asciitilde.low">
          556 0 43 -25 43 -8 43 -25 43 hstemhm
          0 555 hintmask 10010000
          555 97 3 callgsubr
          hintmask 01001000
          -10 callsubr
          hintmask 00101000
          20 10 20 11 17 14 rrcurveto
          endchar
        </CharString>
        <CharString name="asterisk">
          531 327 38 callgsubr
          hstem
          227 76 vstem
          462 437 rmoveto
          22 -14 7 -12 6 vhcurveto
          -112 56 112 56 rlineto
          12 6 14 7 22 vvcurveto
          26 -22 14 -16 -10 -6 -4 -7 -10 vhcurveto
          -104 -69 9 133 rlineto
          28 -23 10 -15 -15 -23 -10 -28 vhcurveto
          9 -133 -104 69 rlineto
          7 -10 -6 4 -10 hhcurveto
          -16 -22 -14 -26 -22 14 -7 12 -6 hvcurveto
          112 -56 -112 -56 rlineto
          -12 -6 -14 -7 -22 vvcurveto
          -26 22 -14 16 9 2 0 16 22 vhcurveto
          29 18 8 7 60 39 -9 -133 rcurveline
          -28 23 -10 15 15 23 10 28 vhcurveto
          -1 9 -8 124 104 -69 rlineto
          -7 10 6 -4 10 hhcurveto
          16 22 14 26 hvcurveto
          endchar
        </CharString>
        <CharString name="asterisk.math">
          531 50 38 callgsubr
          hstem
          230 72 vstem
          462 161 rmoveto
          28 -31 8 -20 11 vhcurveto
          -52 26 -11 5 -12 7 -12 4 rlinecurve
          2 vlineto
          12 4 12 7 11 5 52 26 rcurveline
          20 11 31 8 28 vvcurveto
          20 -16 20 -22 vhcurveto
          -1 hlineto
          -17 -14 -13 -9 -13 hvcurveto
          -85 -57 5 38 1 41 2 39 rlinecurve
          12 vlineto
          18 -9 23 -27 -20 -19 -14 -23 -4 0 -5 1 -4 vhcurveto
          2 -30 1 -29 -1 -33 6 -29 rlinecurve
          -85 57 rlineto
          9 -13 -14 13 -17 hhcurveto
          -1 hlineto
          -22 -16 -20 -20 -28 31 -8 20 -11 hvcurveto
          52 -26 11 -5 12 -7 12 -4 rlinecurve
          -2 vlineto
          -12 -4 -12 -7 -11 -5 -52 -26 rcurveline
          -20 -11 -31 -8 -28 vvcurveto
          -20 16 -20 22 vhcurveto
          1 hlineto
          17 14 13 9 13 hvcurveto
          85 57 -6 -29 1 -33 -1 -29 rlinecurve
          -2 -30 rlineto
          -1 -4 0 -5 -4 vvcurveto
          -23 19 -14 20 27 9 23 18 vhcurveto
          12 vlineto
          -2 39 -1 41 -5 38 85 -57 rcurveline
          -9 13 14 -13 17 hhcurveto
          1 hlineto
          22 16 20 20 hvcurveto
          endchar
        </CharString>
        <CharString name="at">
          708 -10 66 64 66 322 66 64 66 hstem
          59 81 115 81 231 81 vstem
          648 88 rmoveto
          -54 hlineto
          -15 -2 0 -4 -8 hvcurveto
          -17 -49 -51 -11 -53 hhcurveto
          -161 -115 136 155 168 130 123 140 28 66 -7 -80 33 hvcurveto
          16 -28 -31 7 -26 hhcurveto
          -107 -90 -100 -127 -130 93 -97 103 78 119 63 178 101 -7 242 -230 -190 -162 -157 -200 -198 160 -159 193 92 86 38 60 58 hvcurveto
          -81 259 rmoveto
          -95 -56 -66 -59 -62 -54 69 92 95 56 66 59 62 54 -69 -92 vhcurveto
          endchar
        </CharString>
        <CharString name="atilde">
          -68 callsubr
          89 66 -7 66 -105 callsubr
          hintmask 00001000
          83 482 -94 callsubr
        </CharString>
        <CharString name="b">
          36 callsubr
          240 -20 12 callgsubr
          297 -84 -694 -24 callsubr
        </CharString>
        <CharString name="backslash">
          531 750 -20 hstem
          471 -227 rmoveto
          0 0 6 -5 12 vhcurveto
          -359 935 rlineto
          12 -5 -4 12 -16 hhcurveto
          -13 -10 -10 -13 0 0 -6 5 -12 hvcurveto
          359 -935 rlineto
          -12 5 4 -12 16 hhcurveto
          77 callgsubr
        </CharString>
        <CharString name="baht">
          708 0 59 269 66 241 59 hstemhm
          100 94 117 70 63 87 0 87 hintmask 00000100
          648 188 rmoveto
          88 -93 71 -111 16 vhcurveto
          hintmask 11111010
          104 25 70 60 72 vvcurveto
          87 -102 77 -135 9 vhcurveto
          71 -70 -70 -211 -694 211 -70 70 70 4 vlineto
          148 115 88 100 hvcurveto
          -117 331 rmoveto
          -56 -63 -49 -87 -15 vhcurveto
          232 vlineto
          86 -14 64 -45 -53 vvcurveto
          -220 -125 rmoveto
          -117 241 117 hlineto
          246 -446 rmoveto
          -68 -78 -53 -98 -8 vhcurveto
          265 vlineto
          103 -13 73 -57 -66 vvcurveto
          -246 -130 rmoveto
          -117 269 117 hlineto
          endchar
        </CharString>
        <CharString name="bar">
          295 750 -20 hstem
          124 46 vstem
          170 -214 rmoveto
          -15 callgsubr
          endchar
        </CharString>
        <CharString name="bigcircle">
          0 callgsubr
          608 -84 callgsubr
          endchar
        </CharString>
        <CharString name="blanksymbol">
          36 callsubr
          174 66 12 callgsubr
          139 vlineto
          100 84 -45 53 -55 -45 rlineto
          66 -84 -137 vlineto
          -85 -71 45 -53 40 33 rlineto
          -466 -24 callsubr
        </CharString>
        <CharString name="braceleft">
          31 callsubr
          -236 rmoveto
          13 -10 1 -5 vhcurveto
          -83 5 -39 37 -12 41 rrcurveto
          -3 9 0 2 36 vvcurveto
          150 vlineto
          95 0 14 -25 30 vhcurveto
          -10 11 -20 23 -60 19 rrcurveto
          115 36 0 62 48 vvcurveto
          150 vlineto
          93 0 16 27 26 vhcurveto
          29 27 36 12 40 2 rrcurveto
          12 1 8 0 13 vvcurveto
          14 -10 0 -13 -108 -95 -49 -77 -1 vhcurveto
          -234 vlineto
          -29 0 -32 -37 -30 vhcurveto
          -21 -18 -32 -14 -43 -3 rrcurveto
          -12 -1 -8 0 -13 vvcurveto
          -13 10 -1 5 vhcurveto
          99 -6 29 -54 7 -25 rrcurveto
          3 -12 0 -6 -31 vvcurveto
          -204 vlineto
          -30 0 -44 55 -36 vhcurveto
          -34 53 74 -4 22 hhcurveto
          13 10 0 14 hvcurveto
          endchar
        </CharString>
        <CharString name="braceright">
          31 callsubr
          250 rmoveto
          13 -10 1 -5 vhcurveto
          -112 6 -24 71 -1 27 rrcurveto
          234 vlineto
          31 0 43 -56 36 vhcurveto
          31 -47 -69 7 -32 hhcurveto
          -13 -11 0 -14 -13 10 -1 5 hvcurveto
          69 -4 51 -27 15 -52 rrcurveto
          3 -9 0 -2 -36 vvcurveto
          -150 vlineto
          -32 0 -51 3 -14 vhcurveto
          13 -49 46 -30 53 -16 rrcurveto
          -115 -34 0 -67 -45 vvcurveto
          -150 vlineto
          -32 0 -51 -3 -11 vhcurveto
          -17 -55 -59 -24 -54 -3 rrcurveto
          -12 -1 -8 0 -13 vvcurveto
          -14 11 0 13 106 97 48 78 1 vhcurveto
          234 vlineto
          29 0 32 37 30 vhcurveto
          36 30 43 4 16 1 rrcurveto
          12 1 8 0 13 vvcurveto
          endchar
        </CharString>
        <CharString name="bracketleft">
          309 -250 66 868 66 hstem
          107 80 vstem
          285 -250 rmoveto
          66 -98 868 98 66 -178 -1000 vlineto
          endchar
        </CharString>
        <CharString name="bracketright">
          309 -250 66 868 66 hstem
          121 80 vstem
          201 -250 rmoveto
          1000 -178 -66 98 -868 -98 -66 vlineto
          endchar
        </CharString>
        <CharString name="breve">
          71 callsubr
          109 -20 hstem
          446 702 -105 callgsubr
          endchar
        </CharString>
        <CharString name="breve.cap">
          531 495 73 109 -20 hstem
          446 677 -105 callgsubr
          endchar
        </CharString>
        <CharString name="breve.ts1">
          649 519 73 121 -20 hstem
          85 66 346 66 vstem
          563 713 -39 callsubr
          -84 -2 -93 -37 -79 hhcurveto
          -76 -94 38 83 -2 hvcurveto
          -66 hlineto
          -126 128 -68 110 115 125 71 123 vhcurveto
          endchar
        </CharString>
        <CharString name="brokenbar">
          295 750 -20 hstem
          124 46 vstem
          170 343 rmoveto
          371 vlineto
          14 0 22 -23 -23 0 -22 -14 vhcurveto
          -371 vlineto
          -18 8 -17 15 15 8 17 18 vhcurveto
          -557 vmoveto
          371 vlineto
          18 -8 17 -15 -15 -8 -17 -18 vhcurveto
          -371 vlineto
          -11 callgsubr
          endchar
        </CharString>
        <CharString name="bullet">
          826 117 288 hstem
          269 288 56 callsubr
          endchar
        </CharString>
        <CharString name="c">
          14 callsubr
          hstem
          36 87 vstem
          -83 callgsubr
          endchar
        </CharString>
        <CharString name="cacute">
          14 callsubr
          89 78 callsubr
          hstemhm
          36 87 hintmask 11001000
          -83 callgsubr
          hintmask 00110000
          -32 658 -78 callsubr
        </CharString>
        <CharString name="caron">
          531 36 callgsubr
          421 697 -81 callgsubr
        </CharString>
        <CharString name="caron.cap">
          49 callgsubr
          134 -20 hstem
          422 619 -83 callsubr
        </CharString>
        <CharString name="caron.ts1">
          649 509 -21 246 -20 hstem
          505 734 rmoveto
          -65 -2 -115 -175 rlineto
          -2 hlineto
          -115 175 -19 2 rlineto
          -46 hlineto
          11 -24 16 -22 13 -22 96 -161 rcurveline
          -8 5 1 -9 14 hhcurveto
          50 hlineto
          16 3 15 11 6 hvcurveto
          34 52 31 56 31 53 12 19 13 20 10 20 rrcurveto
          endchar
        </CharString>
        <CharString name="ccaron">
          14 callsubr
          87 -21 172 -20 hstemhm
          36 87 hintmask 11001000
          -83 callgsubr
          hintmask 00110000
          -26 661 -81 callgsubr
        </CharString>
        <CharString name="ccedilla">
          14 callsubr
          hstem
          36 87 vstem
          -83 callgsubr
          -131 -80 -19 callsubr
        </CharString>
        <CharString name="ccircumflex">
          14 callsubr
          87 -21 172 -20 hstemhm
          36 87 hintmask 11001000
          -83 callgsubr
          hintmask 00110000
          -26 489 -86 callgsubr
          endchar
        </CharString>
        <CharString name="cdotaccent">
          14 callsubr
          101 101 hstemhm
          36 87 86 101 hintmask 11010000
          -83 callgsubr
          hintmask 00101000
          -131 524 -82 callsubr
        </CharString>
        <CharString name="cedilla">
          9 callgsubr
        </CharString>
        <CharString name="cedilla.dup">
          9 callgsubr
        </CharString>
        <CharString name="cent">
          472 390 69 hstem
          36 87 102 70 vstem
          441 36 rmoveto
          -6 73 -43 -27 -46 -18 -51 -4 rlinecurve
          329 vlineto
          53 -3 30 -14 45 -28 13 72 rcurveline
          -54 27 -26 13 -61 3 rrcurveto
          55 -70 -59 vlineto
          -121 -23 -68 -107 -103 vvcurveto
          -109 76 -99 113 -20 vhcurveto
          -64 70 61 vlineto
          58 5 51 18 37 22 rrcurveto
          -216 29 rmoveto
          -65 20 -37 64 74 vvcurveto
          65 28 73 74 22 vhcurveto
          endchar
        </CharString>
        <CharString name="cent.oldstyle">
          14 callsubr
          hstem
          36 87 157 70 vstem
          -26 callsubr
          -12 -12 1 3 -11 hvcurveto
          97 322 33 -6 25 -14 34 -21 rlinecurve
          13 72 -34 17 -23 12 -29 7 rlinecurve
          19 62 rlineto
          -73 hlineto
          -16 -55 rlineto
          -8 hlineto
          -150 -86 -121 -116 -82 43 -76 70 -42 hvcurveto
          -28 -92 rlineto
          73 hlineto
          20 66 rlineto
          -4 17 18 -2 19 hhcurveto
          70 60 21 25 43 hvcurveto
          -182 354 rmoveto
          -88 -293 rlineto
          -31 30 -17 46 50 vvcurveto
          74 37 86 99 7 vhcurveto
          endchar
        </CharString>
        <CharString name="centigrade">
          915 -20 70 -19 46 382 46 71 70 0 49 -49 70 -67 46 hstemhm
          303 101 hintmask 01000000
          861 42 rmoveto
          24 -6 23 -1 24 vhcurveto
          -21 -11 -18 -14 -21 -11 rrcurveto
          hintmask 10001001
          -21 -41 -47 -6 -45 hhcurveto
          -165 -92 154 143 142 87 157 171 hvcurveto
          39 -1 40 -8 36 -16 20 -9 17 -12 19 -10 16 91 rcurveline
          hintmask 10000101
          21 -65 -62 14 -69 hhcurveto
          -201 -149 -175 -194 -188 141 -179 212 hvcurveto
          hintmask 01110010
          74 51 15 36 71 hvcurveto
          4 3 5 1 7 vvcurveto
          -625 534 rmoveto
          59 -45 60 -76 vhcurveto
          -8 hlineto
          -61 -7 -46 -50 -60 vvcurveto
          -59 45 -60 76 vhcurveto
          8 hlineto
          61 7 46 50 60 vvcurveto
          -46 1 rmoveto
          -38 -34 -34 -38 vhcurveto
          -2 hlineto
          -36 1 -29 29 -5 35 rrcurveto
          7 vlineto
          38 34 34 38 vhcurveto
          2 hlineto
          36 -1 29 -29 5 -35 rrcurveto
          endchar
        </CharString>
        <CharString name="circumflex">
          531 36 callgsubr
          421 525 -86 callgsubr
          endchar
        </CharString>
        <CharString name="circumflex.cap">
          49 callgsubr
          134 -20 hstem
          422 485 -103 callsubr
          endchar
        </CharString>
        <CharString name="circumflex.dup">
          531 36 callgsubr
          421 525 -86 callgsubr
          endchar
        </CharString>
        <CharString name="colon">
          295 0 90 264 20 callsubr
          354 23 callsubr
          90 -354 23 callsubr
          endchar
        </CharString>
        <CharString name="colonmonetary">
          74 callsubr
          169 70 51 callsubr
          -13 598 9 hlineto
          45 callgsubr
          -11 84 -70 -93 hlineto
          -164 -39 -106 -154 -166 vvcurveto
          -164 104 -156 166 -39 vhcurveto
          -93 70 84 12 vlineto
          87 41 13 43 77 hvcurveto
          -287 28 rmoveto
          -108 41 -61 122 121 vvcurveto
          129 67 116 102 40 vhcurveto
          endchar
        </CharString>
        <CharString name="comma">
          295 -107 -21 128 20 callsubr
          1 -62 callsubr
          endchar
        </CharString>
        <CharString name="copyleft">
          0 callgsubr
          608 -84 callgsubr
          -123 hmoveto
          111 -82 102 -121 -28 -37 -3 -17 -47 vhcurveto
          10 -52 rlineto
          19 28 30 13 46 hhcurveto
          84 59 -80 -93 -86 -53 -86 -93 -48 -25 8 28 -41 hvcurveto
          -4 -44 rlineto
          -25 45 24 -7 50 hhcurveto
          123 80 103 109 hvcurveto
          endchar
        </CharString>
        <CharString name="copyright">
          0 callgsubr
          608 -84 callgsubr
          -163 -180 rmoveto
          -4 44 rlineto
          -28 -40 -25 -8 -49 hhcurveto
          -92 -53 86 86 93 59 80 84 45 30 -13 -20 29 hvcurveto
          9 52 rlineto
          18 -47 -37 3 -28 hhcurveto
          -121 -82 -102 -111 -109 81 -103 123 50 24 7 25 44 hvcurveto
          endchar
        </CharString>
        <CharString name="copyright.alt">
          666 -111 43 580 43 hstem
          0 43 99 64 417 43 vstem
          666 222 rmoveto
          205 -128 128 -205 -204 -129 -128 -205 -204 129 -129 204 205 128 129 204 vhcurveto
          -43 hmoveto
          -178 -112 -112 -178 -178 -112 112 178 178 112 112 178 178 112 -112 -178 vhcurveto
          -125 -200 rmoveto
          -4 49 rlineto
          -31 -45 -28 -9 -54 hhcurveto
          -102 -59 96 95 102 65 89 94 50 33 -14 -21 32 hvcurveto
          10 57 rlineto
          19 -51 -41 4 -32 hhcurveto
          -134 -90 -113 -123 -121 89 -114 136 56 26 8 27 49 hvcurveto
          endchar
        </CharString>
        <CharString name="currency">
          826 39 46 330 46 hstem
          202 46 330 46 vstem
          663 hmoveto
          16 16 -15 16 -10 10 -76 76 rcurveline
          29 36 17 46 50 vvcurveto
          50 -17 46 -29 37 vhcurveto
          75 75 10 10 16 16 -17 16 rlinecurve
          -16 16 -15 -15 -10 -10 -76 -76 rcurveline
          29 -36 -46 17 -50 hhcurveto
          -50 -46 -17 -29 -36 hvcurveto
          -77 76 -10 10 -15 16 -16 -16 rlinecurve
          -17 -17 16 -15 10 -10 76 -77 rcurveline
          -29 -36 -17 -46 -50 vvcurveto
          -50 17 -46 29 -36 vhcurveto
          -76 -76 -10 -10 -16 -16 17 -16 rlinecurve
          16 -16 15 15 10 10 77 77 rcurveline
          -30 36 46 -17 50 hhcurveto
          50 46 17 29 36 hvcurveto
          76 -76 10 -10 16 -15 16 16 rlinecurve
          -85 250 rmoveto
          -91 -74 -74 -91 -91 -74 74 91 91 74 74 91 91 74 -74 -91 vhcurveto
          endchar
        </CharString>
        <CharString name="cwm">
          0 endchar
        </CharString>
        <CharString name="cwmascender">
          0 endchar
        </CharString>
        <CharString name="cwmcapital">
          0 endchar
        </CharString>
        <CharString name="d">
          549 -10 44 callgsubr
          hintmask 11110100
          -36 callsubr
          hintmask 11011000
          -44 callgsubr
          endchar
        </CharString>
        <CharString name="dagger">
          472 393 75 0 75 161 -20 hstemhm
          198 75 hintmask 01110000
          412 430 rmoveto
          39 callsubr
          17 0 23 11 60 rrcurveto
          4 24 9 58 34 vvcurveto
          8 0 37 -37 -38 0 -36 -9 -33 8 -50 5 -31 vhcurveto
          11 -66 0 -14 1 -22 40 callgsubr
          hvcurveto
          hintmask 10010000
          -8 4 -30 37 15 24 4 8 24 vhcurveto
          26 7 18 4 16 2 -1 -16 -1 -17 -8 -36 rrcurveto
          -15 -70 0 -7 -53 vvcurveto
          -120 8 -163 13 -129 vhcurveto
          -15 1 1 -7 14 hhcurveto
          7 7 1 12 2 hvcurveto
          2 14 20 209 198 vvcurveto
          49 0 11 -13 62 vhcurveto
          -10 45 0 10 -2 22 31 callgsubr
        </CharString>
        <CharString name="daggerdbl">
          472 -15 75 380 74 190 -20 hstem
          173 75 -50 75 -50 75 cntrmask 00011100
          412 477 rmoveto
          20 -15 17 -23 -24 -25 -6 -8 -26 vhcurveto
          -28 -7 -6 -1 -17 -2 1 20 1 11 9 41 rrcurveto
          5 29 9 42 28 76 callsubr
          8 -40 7 -35 vhcurveto
          8 -36 1 -12 1 -19 -16 2 -7 1 -27 7 rrcurveto
          9 -31 -22 5 -23 hhcurveto
          -23 -15 -17 -20 -16 7 -21 35 11 13 0 14 47 hvcurveto
          27 7 8 1 16 2 -1 -20 -1 -11 -9 -41 rrcurveto
          -5 -29 -9 -42 -28 75 callsubr
          -8 40 -7 35 vhcurveto
          -8 36 -1 12 -1 19 17 -2 6 -1 27 -7 rrcurveto
          -13 44 13 -1 15 hhcurveto
          32 10 18 19 hvcurveto
          -455 vmoveto
          39 callsubr
          21 1 10 9 41 rrcurveto
          6 31 8 41 27 76 callsubr
          9 -42 6 -33 vhcurveto
          8 -36 1 -12 1 -19 40 callgsubr
          -8 4 -30 37 15 24 4 8 24 hvcurveto
          26 7 18 4 16 2 -1 -21 -1 -10 -9 -41 rrcurveto
          -6 -31 -8 -41 -27 75 callsubr
          -9 42 -6 33 vhcurveto
          -8 36 -1 12 -1 19 31 callgsubr
        </CharString>
        <CharString name="dblbracketleft">
          428 -249 46 908 46 hstem
          123 46 87 46 vstem
          404 -249 rmoveto
          46 -102 908 102 46 -281 -1000 vlineto
          133 46 rmoveto
          -87 908 87 hlineto
          endchar
        </CharString>
        <CharString name="dblbracketright">
          428 -249 46 908 46 hstem
          125 46 87 46 vstem
          304 -249 rmoveto
          1000 -280 -46 101 -908 -101 -46 vlineto
          234 46 rmoveto
          -87 908 87 hlineto
          endchar
        </CharString>
        <CharString name="dblgrave.ts1">
          531 557 -21 177 -20 hstem
          239 536 rmoveto
          52 callgsubr
          242 hmoveto
          52 callgsubr
          endchar
        </CharString>
        <CharString name="dblverticalbar">
          433 750 -20 hstem
          124 46 92 46 vstem
          170 -214 rmoveto
          -15 callgsubr
          138 hmoveto
          -15 callgsubr
          endchar
        </CharString>
        <CharString name="dcaron">
          36 callsubr
          65 -21 115 81 hstemhm
          36 87 253 87 -84 84 hintmask 11011010
          -36 callsubr
          hintmask 11111100
          -44 callgsubr
          208 277 -85 callsubr
        </CharString>
        <CharString name="dcroat">
          36 callsubr
          80 70 90 -20 hstemhm
          36 87 253 87 -84 84 hintmask 11111010
          549 534 rmoveto
          70 -86 90 -84 -90 -160 -70 160 -133 vlineto
          47 -64 -65 6 -29 hhcurveto
          -105 -80 -105 -127 -127 79 -105 103 hvcurveto
          hintmask 11101100
          62 58 28 34 38 hvcurveto
          -52 87 534 vlineto
          -87 -410 rmoveto
          -41 -25 -38 -27 -48 hhcurveto
          -70 -72 49 116 125 85 42 68 40 34 -17 -34 26 hvcurveto
          endchar
        </CharString>
        <CharString name="ddotbelow">
          36 callsubr
          240 -20 hstemhm
          36 87 101 101 51 87 -84 84 hintmask 11110010
          -36 callsubr
          hintmask 11010100
          -44 callgsubr
          hintmask 00001000
          -51 -537 -82 callsubr
        </CharString>
        <CharString name="degree">
          398 399 46 203 46 hstem
          52 46 203 46 vstem
          347 547 rmoveto
          81 -66 66 -82 -81 -66 -66 -81 -82 66 -66 81 82 66 66 82 vhcurveto
          -46 hmoveto
          -56 -46 -46 -56 -56 -45 46 56 56 45 45 56 56 46 -45 -56 vhcurveto
          endchar
        </CharString>
        <CharString name="diameter">
          826 -83 46 574 46 hstem
          80 46 574 46 vstem
          766 581 rmoveto
          13 -10 10 -13 -6 -6 -3 -4 -4 vhcurveto
          -96 -95 rlineto
          50 -58 -77 31 -83 hhcurveto
          -184 -149 -149 -184 -84 31 -76 51 -59 hvcurveto
          -96 -96 rlineto
          -4 -4 -3 -6 -6 37 callsubr
          6 6 3 4 4 vhcurveto
          96 96 rlineto
          -51 59 76 -31 84 hhcurveto
          184 149 149 184 84 -31 77 -51 58 hvcurveto
          95 96 rlineto
          4 4 3 6 6 vvcurveto
          -66 -331 rmoveto
          -159 -128 -128 -159 -71 -65 26 43 -50 vhcurveto
          404 404 rlineto
          43 -50 26 -65 -71 vvcurveto
          -101 219 rmoveto
          -405 -405 rlineto
          -42 50 -26 65 71 vvcurveto
          159 128 128 159 71 65 -26 -42 50 vhcurveto
          endchar
        </CharString>
        <CharString name="died">
          531 -5 -21 387 74 -71 74 181 -20 hstemhm
          222 87 hintmask 00111000
          471 364 rmoveto
          74 -162 181 -87 vlineto
          hintmask 11001000
          -184 -163 -74 163 -387 87 vlineto
          hintmask 00101000
          390 vlineto
          endchar
        </CharString>
        <CharString name="dieresis">
          531 565 91 hstem
          137 91 76 91 vstem
          8 callsubr
          endchar
        </CharString>
        <CharString name="dieresis.cap">
          531 485 91 hstem
          122 91 106 91 vstem
          7 callgsubr
          endchar
        </CharString>
        <CharString name="dieresis.dup">
          531 565 91 hstem
          137 91 76 91 vstem
          8 callsubr
          endchar
        </CharString>
        <CharString name="dieresis.ts1">
          531 593 94 hstem
          115 94 112 94 vstem
          209 593 rmoveto
          94 -94 -94 vlineto
          300 hmoveto
          94 -94 -94 vlineto
          endchar
        </CharString>
        <CharString name="discount">
          531 1 137 -136 137 475 137 hstemhm
          82 137 0 137 -45 137 -136 137 -116 137 hintmask 00100100
          470 728 rmoveto
          12 -9 11 -13 vhcurveto
          -5 -1 -16 -3 -5 -20 -7 -13 rlinecurve
          hintmask 10001000
          -21 -37 -19 -37 -19 -38 -266 -512 rcurveline
          -10 -18 -21 -31 -16 vvcurveto
          -13 10 -11 14 vhcurveto
          1 hlineto
          26 3 42 105 27 52 117 225 rcurveline
          155 298 rlineto
          hintmask 01110001
          7 14 12 14 16 vvcurveto
          -251 -81 rmoveto
          71 vlineto
          24 -11 9 -19 vhcurveto
          -75 hlineto
          -5 -5 0 -1 -4 hvcurveto
          -16 -4 -2 -13 -14 vvcurveto
          -77 vlineto
          -26 17 -2 16 vhcurveto
          71 hlineto
          20 13 5 28 hvcurveto
          230 -611 rmoveto
          -28 -11 -6 -22 vhcurveto
          -76 hlineto
          hintmask 00000010
          -15 -13 5 21 hvcurveto
          67 vlineto
          hintmask 00000100
          5 -1 5 6 vvcurveto
          hintmask 10000001
          15 8 10 14 2 vhcurveto
          hintmask 01000010
          1 4 5 0 5 hhcurveto
          66 hlineto
          22 14 -6 -28 hvcurveto
          endchar
        </CharString>
        <CharString name="divide">
          826 68 90 69 46 69 90 hstem
          368 90 cntrmask 11100000
          766 250 rmoveto
          -35 callsubr
          -308 92 23 callsubr
          90 -274 23 callsubr
          endchar
        </CharString>
        <CharString name="divorced">
          531 -92 -21 142 78 289 77 142 -20 hstem
          -215 76 231 84 46 87 45 84 229 78 vstem
          176 251 rmoveto
          110 -78 112 -121 vhcurveto
          -11 hlineto
          -118 -14 -63 -106 -102 vvcurveto
          -108 74 -114 121 vhcurveto
          11 hlineto
          117 12 68 104 106 vvcurveto
          569 hmoveto
          110 -75 112 -121 vhcurveto
          -11 hlineto
          -116 -12 -68 -106 -104 vvcurveto
          -108 78 -114 120 vhcurveto
          11 hlineto
          119 14 63 105 103 vvcurveto
          -436 -364 rmoveto
          728 -87 -728 vlineto
          -130 364 rmoveto
          -70 -34 -74 -79 -76 -33 62 67 -8 vhcurveto
          5 -1 6 6 vvcurveto
          71 40 72 78 78 35 -75 -70 vhcurveto
          576 5 rmoveto
          -7 0 -7 -1 -7 vhcurveto
          -68 -6 -36 -60 -74 hhcurveto
          -79 -34 73 70 68 32 78 82 76 40 -72 -68 hvcurveto
          endchar
        </CharString>
        <CharString name="dlinebelow">
          549 -184 70 104 44 callgsubr
          hintmask 01111010
          -36 callsubr
          hintmask 01101100
          -44 callgsubr
          hintmask 10000000
          90 -521 -58 callsubr
        </CharString>
        <CharString name="dollar">
          531 -35 -21 50 69 569 69 49 -20 hstem
          59 80 95 63 94 80 vstem
          471 199 rmoveto
          88 -58 96 -116 22 vhcurveto
          229 vlineto
          60 -5 45 -24 38 -29 13 72 rcurveline
          -51 33 -43 17 -62 5 rrcurveto
          47 -63 -48 vlineto
          -102 -15 -73 -82 -96 vvcurveto
          -60 35 -104 140 -29 vhcurveto
          -255 vlineto
          -79 8 -56 32 -38 33 -14 -74 rcurveline
          67 -49 69 -15 51 -5 rrcurveto
          -47 63 49 vlineto
          102 16 72 89 101 vvcurveto
          -237 221 rmoveto
          -50 11 -45 40 55 vvcurveto
          47 36 45 59 14 vhcurveto
          157 -450 rmoveto
          -47 -29 -54 -65 -18 vhcurveto
          238 vlineto
          73 -20 21 -60 -39 vvcurveto
          endchar
        </CharString>
        <CharString name="dollar.oldstyle">
          649 -16 -21 29 70 590 70 29 -20 hstemhm
          59 81 93 63 57 63 0 63 29 63 -63 81 hintmask 0001000110000000
          589 203 rmoveto
          72 -47 63 -63 36 vhcurveto
          -19 11 -22 11 -22 4 rrcurveto
          246 vlineto
          0 45 -10 27 -10 vhcurveto
          28 -10 42 -23 0 vvcurveto
          13 73 -45 19 -44 20 -49 9 rlinecurve
          -9 2 -8 1 0 vvcurveto
          34 vlineto
          hintmask 1111111001000000
          -63 -29 -57 29 -63 -40 hlineto
          -80 -17 -94 -74 -94 vvcurveto
          -9 vlineto
          5 -81 68 -59 73 -27 9 -3 4 -2 15 -3 rrcurveto
          -272 vlineto
          -61 7 -58 32 -54 29 rrcurveto
          -3 -23 -9 -27 -21 vvcurveto
          -26 154 -37 16 -3 vhcurveto
          10 -2 5 0 0 vvcurveto
          -36 63 29 57 -29 63 41 vlineto
          0 36 13 15 7 vhcurveto
          68 34 54 67 78 vvcurveto
          -236 213 rmoveto
          -57 16 rlineto
          220 57 vlineto
          -120 -206 rmoveto
          -38 15 -55 22 63 vvcurveto
          52 57 27 36 14 vhcurveto
          275 -453 rmoveto
          -51 -46 -40 -46 -17 vhcurveto
          217 vlineto
          40 -19 52 -29 -61 vvcurveto
          -155 -126 rmoveto
          -57 264 hlineto
          57 -16 rlineto
          endchar
        </CharString>
        <CharString name="dong">
          549 -70 70 hstem
          522 542 rmoveto
          67 vlineto
          -82 -1 rlineto
          86 -80 -85 -152 -67 152 -126 vlineto
          44 -61 -62 6 -27 hhcurveto
          -100 -76 -100 -120 -121 75 -100 98 59 55 27 32 36 hvcurveto
          -49 83 507 vlineto
          82 -612 rmoveto
          70 -488 -70 vlineto
          323 223 rmoveto
          -39 -24 -36 -26 -45 hhcurveto
          -67 -68 46 111 118 81 40 64 38 32 -16 -32 25 hvcurveto
          endchar
        </CharString>
        <CharString name="dotaccent">
          295 560 69 callgsubr
          560 -82 callsubr
        </CharString>
        <CharString name="dotaccent.alt">
          295 519 69 callgsubr
          519 -82 callsubr
        </CharString>
        <CharString name="dotaccent.cap">
          295 485 69 callgsubr
          485 -82 callsubr
        </CharString>
        <CharString name="dotlessi">
          -20 callsubr
          hstem
          84 84 vstem
          -45 callgsubr
          endchar
        </CharString>
        <CharString name="dotlessj">
          10 callsubr
          hstem
          114 84 vstem
          -68 callgsubr
          endchar
        </CharString>
        <CharString name="e">
          -54 callgsubr
          hstem
          -106 callsubr
          endchar
        </CharString>
        <CharString name="eacute">
          -54 callgsubr
          89 -21 167 -97 callsubr
          6 415 -78 callsubr
        </CharString>
        <CharString name="ebreve">
          -54 callgsubr
          61 73 109 -97 callsubr
          37 423 -105 callgsubr
          endchar
        </CharString>
        <CharString name="ecaron">
          -54 callgsubr
          87 -21 172 -97 callsubr
          12 418 -81 callgsubr
        </CharString>
        <CharString name="ecircumflex">
          -54 callgsubr
          87 -21 172 -97 callsubr
          12 246 -86 callgsubr
          endchar
        </CharString>
        <CharString name="ecircumflexacute">
          -54 callgsubr
          87 -21 291 -97 callsubr
          13 246 -79 callgsubr
        </CharString>
        <CharString name="ecircumflexdotbelow">
          -54 callgsubr
          87 -21 172 -20 hstemhm
          186 101 hintmask 11111000
          -106 callsubr
          12 246 -86 callgsubr
          hintmask 00000100
          -45 -725 -82 callsubr
        </CharString>
        <CharString name="ecircumflexgrave">
          -54 callgsubr
          87 -21 134 -97 callsubr
          13 246 -79 callsubr
        </CharString>
        <CharString name="ecircumflexhookabove">
          -54 callgsubr
          87 -21 361 -97 callsubr
          13 246 -103 callsubr
          110 283 -107 callgsubr
        </CharString>
        <CharString name="ecircumflextilde">
          -54 callgsubr
          87 -21 189 66 -7 66 -100 callgsubr
          hintmask 00010100
          13 246 -103 callsubr
          79 314 -91 callgsubr
        </CharString>
        <CharString name="edblgrave">
          -54 callgsubr
          89 -21 167 -97 callsubr
          8 248 -87 callsubr
        </CharString>
        <CharString name="edieresis">
          -54 callgsubr
          106 91 hstemhm
          107 91 76 91 hintmask 11100000
          -106 callsubr
          hintmask 00011100
          -181 286 -16 callgsubr
        </CharString>
        <CharString name="edotaccent">
          -54 callgsubr
          101 101 hstemhm
          186 101 hintmask 11100000
          -106 callsubr
          hintmask 00011000
          -92 281 -82 callsubr
        </CharString>
        <CharString name="edotbelow">
          -54 callgsubr
          hstemhm
          186 101 hintmask 11100000
          -106 callsubr
          hintmask 00010000
          -92 -479 -82 callsubr
        </CharString>
        <CharString name="egrave">
          -54 callgsubr
          89 -21 167 -97 callsubr
          -69 248 -59 callgsubr
        </CharString>
        <CharString name="ehookabove">
          -54 callgsubr
          67 -21 212 -97 callsubr
          -40 360 -107 callgsubr
        </CharString>
        <CharString name="eight">
          531 -21 0 callsubr
          hstemhm
          59 77 52 77 0 77 52 77 hintmask 00110110
          486 -36 callgsubr
          hintmask 11111010
          -66 callsubr
          5 callgsubr
          vhcurveto
          endchar
        </CharString>
        <CharString name="eight.oldstyle">
          600 -21 0 callsubr
          hstemhm
          79 51 callgsubr
          521 -36 callgsubr
          hintmask 1111010100000000
          -66 callsubr
          vhcurveto
          hintmask 0100101010000000
          5 callgsubr
          hvcurveto
          endchar
        </CharString>
        <CharString name="eight.prop">
          600 -21 0 callsubr
          hstemhm
          94 77 52 77 0 77 52 77 hintmask 00110110
          521 -36 callgsubr
          hintmask 11111010
          -66 callsubr
          5 callgsubr
          vhcurveto
          endchar
        </CharString>
        <CharString name="eight.taboldstyle">
          531 -21 0 callsubr
          hstemhm
          44 51 callgsubr
          486 -36 callgsubr
          hintmask 1111010100000000
          -66 callsubr
          vhcurveto
          hintmask 0100101010000000
          5 callgsubr
          hvcurveto
          endchar
        </CharString>
        <CharString name="ellipsis">
          668 0 90 hstem
          103 90 96 90 96 90 cntrmask 01110000
          193 hmoveto
          90 -90 -90 vlineto
          276 hmoveto
          90 -90 -90 vlineto
          276 hmoveto
          90 -90 -90 vlineto
          endchar
        </CharString>
        <CharString name="emacron">
          -54 callgsubr
          117 70 -100 callgsubr
          hintmask 00010000
          48 297 -58 callsubr
        </CharString>
        <CharString name="emdash">
          1063 241 66 hstem
          0 1062 vstem
          1062 241 rmoveto
          66 -1062 -66 vlineto
          endchar
        </CharString>
        <CharString name="emdash.alt">
          708 242 66 hstem
          707 242 rmoveto
          66 -707 -66 vlineto
          endchar
        </CharString>
        <CharString name="endash">
          531 241 66 hstem
          0 530 vstem
          530 241 rmoveto
          66 -530 -66 vlineto
          endchar
        </CharString>
        <CharString name="eng">
          549 -207 70 525 -13 callsubr
          -67 -19 -70 -57 vhcurveto
          -70 vlineto
          99 64 100 107 hvcurveto
          endchar
        </CharString>
        <CharString name="eogonek">
          38 callsubr
          hstemhm
          35 77 85 63 hintmask 01101011
          -6 callgsubr
          hintmask 10000000
          -43 1 31 -42 67 hhcurveto
          hintmask 01000000
          33 25 6 19 40 hvcurveto
          -14 59 rlineto
          hintmask 10110111
          -28 callgsubr
          endchar
        </CharString>
        <CharString name="eogonekacute">
          38 callsubr
          89 78 callsubr
          hstemhm
          35 77 85 63 hintmask 0110100011000000
          -6 callgsubr
          hintmask 1000000000000000
          -43 1 31 -42 67 hhcurveto
          hintmask 0100000000000000
          33 25 6 19 40 hvcurveto
          -14 59 rlineto
          hintmask 1011010011000000
          -28 callgsubr
          hintmask 0000001100000000
          6 415 -78 callsubr
        </CharString>
        <CharString name="equal">
          826 118 46 172 46 hstem
          59 707 vstem
          766 359 rmoveto
          -35 callsubr
          -218 vmoveto
          -35 callsubr
          endchar
        </CharString>
        <CharString name="ereversed">
          -54 callgsubr
          hstem
          440 225 rmoveto
          127 -94 107 -122 -49 -60 -19 -51 -36 vhcurveto
          -39 -57 -5 -67 -46 vvcurveto
          328 hlineto
          -92 -3 -66 -71 -87 hhcurveto
          -43 -63 13 40 -56 hvcurveto
          -6 -71 rlineto
          -31 51 60 -17 58 hhcurveto
          132 100 107 128 hvcurveto
          -84 54 rmoveto
          -260 hlineto
          93 19 65 21 44 hhcurveto
          50 59 -34 -80 23 hvcurveto
          endchar
        </CharString>
        <CharString name="estimated">
          714 -9 66 305 60 222 66 hstem
          29 96 470 89 vstem
          684 362 rmoveto
          165 -73 183 -234 -206 -142 -174 -191 vhcurveto
          -7 vlineto
          -192 3 163 -155 199 hhcurveto
          89 90 15 26 85 hvcurveto
          9 2 11 1 11 vvcurveto
          21 -5 21 -1 21 vhcurveto
          -23 -6 -23 -10 -23 -6 rrcurveto
          -20 -70 -73 -10 -73 hhcurveto
          -12 hlineto
          -141 11 -109 121 173 vvcurveto
          470 60 rmoveto
          -463 hlineto
          110 27 79 112 137 hhcurveto
          119 93 -93 -129 8 hvcurveto
          endchar
        </CharString>
        <CharString name="eth">
          -46 callsubr
          hstem
          30 87 296 87 vstem
          500 250 rmoveto
          145 -63 134 -103 88 vhcurveto
          66 46 -36 51 -84 -58 -45 27 -50 19 -54 10 rlinecurve
          -33 -54 42 -9 40 -16 36 -22 rlinecurve
          -68 -48 36 -51 86 60 45 -39 37 -48 26 -55 rlinecurve
          13 -24 -42 16 -47 hhcurveto
          -130 -105 -109 -131 -127 106 -102 129 60 67 23 55 49 hvcurveto
          59 65 0 61 56 vvcurveto
          -87 -25 rmoveto
          -92 -57 -74 -91 -78 -70 57 114 115 77 48 70 97 52 -82 -86 vhcurveto
          endchar
        </CharString>
        <CharString name="etilde">
          -54 callgsubr
          89 66 -7 66 -100 callgsubr
          hintmask 00001000
          33 394 -94 callsubr
        </CharString>
        <CharString name="eturned">
          -39 callgsubr
        </CharString>
        <CharString name="exclam">
          337 0 90 0 90 514 -20 hstemhm
          123 90 hintmask 01110000
          213 694 rmoveto
          -90 hlineto
          9 -514 rlineto
          72 hlineto
          9 -180 rmoveto
          90 -90 vlineto
          hintmask 10010000
          -90 vlineto
          endchar
        </CharString>
        <CharString name="exclamdown">
          337 -173 -21 514 -20 110 90 hstem
          123 90 vstem
          213 410 23 callsubr
          90 -604 rmoveto
          -9 514 rlineto
          -72 hlineto
          -9 -514 rlineto
          endchar
        </CharString>
        <CharString name="f">
          -32 callgsubr
        </CharString>
        <CharString name="f_f">
          620 -16 callsubr
          95 84 31 84 95 84 vstem
          369 621 rmoveto
          73 vlineto
          6 -26 -31 4 -27 hhcurveto
          -104 -75 -74 -99 hvcurveto
          -87 -77 -63 77 -381 27 callsubr
          294 hmoveto
          73 vlineto
          6 -26 -31 4 -27 hhcurveto
          -104 -75 -74 -99 hvcurveto
          -531 27 callsubr
          endchar
        </CharString>
        <CharString name="f_f_i">
          865 57 callgsubr
          211 84 123 84 3 84 hintmask 11100011
          782 605 23 callsubr
          87 -605 rmoveto
          444 -84 -444 vlineto
          -87 381 rmoveto
          63 -126 117 vlineto
          hintmask 00010010
          60 33 17 30 30 24 -12 -6 9 vhcurveto
          hintmask 00100010
          75 vlineto
          hintmask 11011110
          7 -24 -7 2 -32 hhcurveto
          -81 -63 -72 -100 hvcurveto
          -532 84 381 vlineto
          -146 240 -10 callgsubr
          endchar
        </CharString>
        <CharString name="f_f_l">
          865 -16 callsubr
          211 84 210 84 vstem
          339 621 -10 callgsubr
          440 -621 rmoveto
          694 79 callgsubr
          -87 -31 callgsubr
          -532 84 381 vlineto
          endchar
        </CharString>
        <CharString name="f_i">
          569 57 callgsubr
          209 84 hintmask 11100100
          486 605 23 callsubr
          87 -605 rmoveto
          444 -84 -444 vlineto
          -86 381 rmoveto
          63 -126 117 vlineto
          hintmask 11011000
          64 38 13 24 17 25 -4 -15 22 vhcurveto
          75 vlineto
          1 -3 -28 9 -33 hhcurveto
          -77 -66 -69 -103 75 callgsubr
          vlineto
          endchar
        </CharString>
        <CharString name="f_k">
          837 -16 callsubr
          212 78 vstem
          313 -31 callgsubr
          -88 -77 -63 77 -381 84 381 vlineto
          624 -381 rmoveto
          -43 callsubr
          endchar
        </CharString>
        <CharString name="f_l">
          569 -16 callsubr
          209 84 vstem
          313 -31 callgsubr
          -88 -77 -63 77 -381 84 381 vlineto
          293 -381 rmoveto
          694 79 callgsubr
          endchar
        </CharString>
        <CharString name="five">
          531 -21 26 callsubr
          203 -73 callgsubr
        </CharString>
        <CharString name="five.oldstyle">
          595 -215 24 callgsubr
          9 -73 callgsubr
        </CharString>
        <CharString name="five.prop">
          595 -21 24 callgsubr
          203 -73 callgsubr
        </CharString>
        <CharString name="five.taboldstyle">
          531 -215 26 callsubr
          9 -73 callgsubr
        </CharString>
        <CharString name="florin">
          -32 callgsubr
        </CharString>
        <CharString name="four">
          531 21 -22 callsubr
          66 423 -20 hstem
          317 79 vstem
          500 -9 callsubr
        </CharString>
        <CharString name="four.oldstyle">
          549 -173 -21 194 66 417 -20 hstemhm
          320 86 -79 79 hintmask 11110000
          510 -9 callgsubr
        </CharString>
        <CharString name="four.prop">
          549 21 -22 callsubr
          66 423 -20 hstem
          327 79 vstem
          510 -9 callsubr
        </CharString>
        <CharString name="four.taboldstyle">
          531 -173 -21 194 66 417 -20 hstemhm
          310 86 -79 79 hintmask 11110000
          500 -9 callgsubr
        </CharString>
        <CharString name="fraction">
          598 539 18 callgsubr
        </CharString>
        <CharString name="fraction.alt">
          0 240 18 callgsubr
        </CharString>
        <CharString name="g">
          -37 callgsubr
          -24 callgsubr
          hintmask 0001010000000000
          -12 callgsubr
          hintmask 1110101110000000
          -55 -32 -11 -46 -24 vvcurveto
          -76 105 -60 130 131 104 60 76 141 -175 0 -43 vhcurveto
          -93 hlineto
          -16 -43 0 52 20 7 10 1 2 hvcurveto
          -22 35 35 -7 27 hhcurveto
          98 73 77 86 32 -9 29 -18 27 hvcurveto
          -4 6 0 2 0 vvcurveto
          4 60 0 5 vhcurveto
          0 39 0 36 -4 vhcurveto
          -186 -95 rmoveto
          -78 -50 -24 -43 vhcurveto
          hintmask 1001011100000000
          -54 -40 34 67 78 50 24 43 54 40 -34 -67 hvcurveto
          95 -361 rmoveto
          -43 -75 -30 -84 vhcurveto
          hintmask 0100100010000000
          -84 -75 30 43 5 0 59 81 hvcurveto
          96 hlineto
          23 118 0 -64 hvcurveto
          endchar
        </CharString>
        <CharString name="gacute">
          -37 callgsubr
          94 78 callsubr
          -24 callgsubr
          hintmask 0001000100000000
          515 386 -102 callsubr
          hintmask 0000110000000000
          -47 764 -78 callsubr
        </CharString>
        <CharString name="gbreve">
          -37 callgsubr
          66 73 109 -20 -24 callgsubr
          hintmask 0001000100000000
          515 386 -102 callsubr
          hintmask 0000110000000000
          -16 772 -105 callgsubr
          endchar
        </CharString>
        <CharString name="gcaron">
          -37 callgsubr
          92 -21 172 -20 -24 callgsubr
          hintmask 0001000100000000
          515 386 -102 callsubr
          hintmask 0000110000000000
          -41 767 -81 callgsubr
        </CharString>
        <CharString name="gcedilla">
          -37 callgsubr
          80 81 115 -20 -24 callgsubr
          hintmask 0001110100000000
          269 730 rmoveto
          -40 hlineto
          -42 -116 rlineto
          -80 81 81 -25 vlineto
          272 -229 -102 callsubr
          endchar
        </CharString>
        <CharString name="gcircumflex">
          -37 callgsubr
          92 -21 172 -20 -24 callgsubr
          hintmask 0001000100000000
          515 386 -102 callsubr
          hintmask 0000110000000000
          -41 595 -86 callgsubr
          endchar
        </CharString>
        <CharString name="gcommaaccent">
          -37 callgsubr
          80 81 115 -20 -24 callgsubr
          hintmask 0001110100000000
          269 730 rmoveto
          -40 hlineto
          -42 -116 rlineto
          -80 81 81 -25 vlineto
          272 -229 -102 callsubr
          endchar
        </CharString>
        <CharString name="gdotaccent">
          -37 callgsubr
          106 101 hstemhm
          30 76 -41 77 35 101 -89 76 64 77 18 76 hintmask 0001001000000000
          -12 callgsubr
          hintmask 1110010011100000
          -55 -32 -11 -46 -24 vvcurveto
          -76 105 -60 130 131 104 60 76 141 -175 0 -43 vhcurveto
          -93 hlineto
          -16 -43 0 52 20 7 10 1 2 hvcurveto
          -22 35 35 -7 27 hhcurveto
          98 73 77 86 32 -9 29 -18 27 hvcurveto
          -4 6 0 2 0 vvcurveto
          4 60 0 5 vhcurveto
          0 39 0 36 -4 vhcurveto
          -186 -95 rmoveto
          -78 -50 -24 -43 vhcurveto
          hintmask 1001001011000000
          -54 -40 34 67 78 50 24 43 54 40 -34 -67 hvcurveto
          95 -361 rmoveto
          -43 -75 -30 -84 vhcurveto
          hintmask 0100010000100000
          -84 -75 30 43 5 0 59 81 hvcurveto
          96 hlineto
          23 118 0 -64 hvcurveto
          hintmask 0000100100000000
          -146 630 -82 callsubr
        </CharString>
        <CharString name="germandbls">
          -50 callgsubr
        </CharString>
        <CharString name="germandbls.dup">
          -50 callgsubr
        </CharString>
        <CharString name="gnaborretni">
          502 320 -20 110 90 hstem
          59 87 54 72 vstem
          42 callsubr
          -57 -34 -49 -14 -41 -4 rlinecurve
          -5 339 rlineto
          4 22 2 21 23 18 callsubr
          29 -23 33 -9 28 -3 rrcurveto
          -27 72 26 vlineto
          52 5 59 15 59 31 rrcurveto
          -238 210 rmoveto
          -3 -193 rlineto
          -35 8 -20 22 54 vvcurveto
          45 15 15 15 15 vhcurveto
          10 10 9 11 9 13 rrcurveto
          endchar
        </CharString>
        <CharString name="grave">
          531 548 2 callgsubr
          340 527 -59 callgsubr
        </CharString>
        <CharString name="grave.cap">
          531 516 54 callgsubr
          hstem
          361 495 -70 callgsubr
        </CharString>
        <CharString name="grave.ts1">
          531 556 -21 178 -20 hstem
          313 535 rmoveto
          -139 177 -27 1 rlineto
          -59 hlineto
          160 -178 rlineto
          endchar
        </CharString>
        <CharString name="greater">
          73 callsubr
          250 rmoveto
          13 -9 6 -12 6 vhcurveto
          -587 282 rlineto
          7 -13 -2 0 -3 hhcurveto
          -13 -10 -10 -13 -13 9 -6 12 -6 hvcurveto
          552 -266 -552 -266 rlineto
          -12 -6 -9 -6 -13 37 callsubr
          3 2 0 7 13 vhcurveto
          587 282 rlineto
          12 6 9 6 13 vvcurveto
          endchar
        </CharString>
        <CharString name="guarani">
          708 -21 69 185 66 347 69 hstem
          68 101 122 70 188 87 vstem
          636 28 rmoveto
          271 -223 -66 136 -165 vlineto
          -20 -67 -56 0 -9 hhcurveto
          -20 -18 3 4 -18 hvcurveto
          584 vlineto
          4 18 18 3 20 hhcurveto
          68 62 -17 -53 64 hvcurveto
          16 89 rlineto
          39 -75 -69 11 -66 hhcurveto
          -19 -19 -2 -3 -18 hvcurveto
          89 -70 -108 vlineto
          -135 -54 -88 -138 -152 vvcurveto
          -154 89 -137 134 -53 vhcurveto
          -108 70 88 vlineto
          -2 18 18 -2 19 hhcurveto
          62 79 13 36 79 hvcurveto
          -345 60 rmoveto
          -75 53 -47 99 107 vvcurveto
          107 47 99 75 53 vhcurveto
          endchar
        </CharString>
        <CharString name="guillemotleft">
          531 21 -21 438 -20 hstem
          295 -4 callgsubr
          242 -4 callgsubr
          endchar
        </CharString>
        <CharString name="guillemotright">
          531 21 -21 438 -20 hstem
          413 -4 callsubr
          -65 -4 callsubr
          endchar
        </CharString>
        <CharString name="guilsinglleft">
          354 21 -21 438 -20 hstem
          295 -4 callgsubr
          endchar
        </CharString>
        <CharString name="guilsinglright">
          354 21 -21 438 -20 hstem
          236 -4 callsubr
          endchar
        </CharString>
        <CharString name="h">
          -25 callgsubr
          240 -20 39 callgsubr
          hintmask 11110100
          -48 callgsubr
          hintmask 11001100
          87 243 hlineto
          -46 callgsubr
          endchar
        </CharString>
        <CharString name="h_uni0303">
          -25 callgsubr
          240 -20 61 66 -7 66 39 callgsubr
          hintmask 11100101
          -48 callgsubr
          hintmask 11000011
          87 243 hlineto
          -46 callgsubr
          hintmask 00001000
          73 860 -94 callsubr
        </CharString>
        <CharString name="hbar">
          -25 callgsubr
          80 70 90 -20 39 callgsubr
          hintmask 11111010
          -42 callgsubr
          151 107 70 -107 90 -84 -90 -86 -70 86 -534 vlineto
          hintmask 11000110
          87 243 hlineto
          -46 callgsubr
          endchar
        </CharString>
        <CharString name="hbrevebelow">
          549 63 callgsubr
          99 54 callsubr
          240 -20 39 callgsubr
          hintmask 00111101
          -48 callgsubr
          hintmask 00110011
          87 243 hlineto
          -46 callgsubr
          hintmask 11000000
          76 -58 -105 callgsubr
          endchar
        </CharString>
        <CharString name="hcircumflex">
          -25 callgsubr
          240 -20 82 -21 134 -20 39 callgsubr
          hintmask 11100101
          -48 callgsubr
          hintmask 11000011
          87 243 hlineto
          -46 callgsubr
          hintmask 00011000
          53 735 -103 callsubr
          endchar
        </CharString>
        <CharString name="hdieresis">
          -25 callgsubr
          240 -20 61 91 hstemhm
          83 84 -84 87 -39 91 106 91 -41 87 hintmask 1110100010000000
          -48 callgsubr
          hintmask 1100010010000000
          87 243 hlineto
          -46 callgsubr
          hintmask 0001001100000000
          -156 735 -73 callsubr
          endchar
        </CharString>
        <CharString name="hdotbelow">
          -25 callgsubr
          240 -20 hstemhm
          83 84 -84 87 53 101 54 87 hintmask 11110010
          -48 callgsubr
          hintmask 11001010
          87 243 hlineto
          -46 callgsubr
          hintmask 00000100
          -54 -200 -82 callsubr
        </CharString>
        <CharString name="hungarumlaut">
          531 548 2 callgsubr
          264 694 -65 callsubr
        </CharString>
        <CharString name="hungarumlaut.cap">
          531 516 2 callgsubr
          264 662 -65 callsubr
        </CharString>
        <CharString name="hungarumlaut.ts1">
          531 555 -21 179 -20 hstem
          265 713 61 callgsubr
          263 179 61 callgsubr
          endchar
        </CharString>
        <CharString name="hyphen">
          -8 callgsubr
        </CharString>
        <CharString name="hyphen.alt">
          177 191 63 hstem
          292 191 rmoveto
          63 -280 -63 vlineto
          endchar
        </CharString>
        <CharString name="hyphen.dup">
          -8 callgsubr
        </CharString>
        <CharString name="hyphen.prop">
          354 302 63 hstem
          36 282 vstem
          318 302 11 callsubr
        </CharString>
        <CharString name="hyphendbl">
          354 83 63 155 63 hstem
          294 301 rmoveto
          63 -282 -63 vlineto
          282 -218 11 callsubr
        </CharString>
        <CharString name="hyphendbl.alt">
          177 83 63 155 63 hstem
          292 301 rmoveto
          63 -280 -63 vlineto
          280 -218 rmoveto
          63 -280 -63 vlineto
          endchar
        </CharString>
        <CharString name="i">
          -20 callsubr
          136 101 hstemhm
          76 101 -93 84 hintmask 11001000
          -45 callgsubr
          hintmask 00110000
          93 560 -82 callsubr
        </CharString>
        <CharString name="i_j">
          511 -204 70 694 101 hstemhm
          75 101 -92 84 157 101 -84 84 hintmask 01100100
          176 560 -76 callsubr
          351 hmoveto
          101 vlineto
          hintmask 01011000
          -101 -101 hlineto
          -157 -560 rmoveto
          444 -84 -444 vlineto
          342 -59 rmoveto
          503 vlineto
          hintmask 10000100
          -84 -510 hlineto
          -18 0 -16 -21 -17 vhcurveto
          -17 -23 -28 0 -9 hhcurveto
          -42 -26 19 11 -12 hvcurveto
          -18 -66 rlineto
          -25 46 45 -9 38 hhcurveto
          69 65 53 92 hvcurveto
          endchar
        </CharString>
        <CharString name="iacute">
          6 callsubr
          224 694 -78 callsubr
        </CharString>
        <CharString name="ibreve">
          -20 callsubr
          96 73 109 -20 hstemhm
          84 84 hintmask 11001000
          -45 callgsubr
          hintmask 00110000
          223 702 -105 callgsubr
          endchar
        </CharString>
        <CharString name="icaron">
          -20 callsubr
          122 -21 172 -20 hstemhm
          84 84 hintmask 11001000
          -45 callgsubr
          hintmask 00110000
          198 697 -81 callgsubr
        </CharString>
        <CharString name="icircumflex">
          -20 callsubr
          122 -21 172 -20 hstemhm
          84 84 hintmask 11001000
          -45 callgsubr
          hintmask 00110000
          198 525 -86 callgsubr
          endchar
        </CharString>
        <CharString name="idblgrave">
          12 callsubr
          hintmask 00110000
          194 527 -87 callsubr
        </CharString>
        <CharString name="idieresis">
          -20 callsubr
          141 91 hstemhm
          -2 91 -5 84 -3 91 hintmask 11001000
          -45 callgsubr
          hintmask 00110100
          5 565 -16 callgsubr
        </CharString>
        <CharString name="idieresisacute">
          -20 callsubr
          141 91 30 callgsubr
          -2 91 -5 84 -3 91 hintmask 11000010
          -45 callgsubr
          hintmask 00111101
          5 565 -70 callsubr
          152 -5 callgsubr
        </CharString>
        <CharString name="idotbelow">
          -20 callsubr
          136 101 hstemhm
          76 101 -93 84 hintmask 11001000
          -45 callgsubr
          93 560 rmoveto
          hintmask 00110000
          -61 callgsubr
          hintmask 00010000
          101 -760 -82 callsubr
        </CharString>
        <CharString name="igrave">
          6 callsubr
          84 527 -59 callgsubr
        </CharString>
        <CharString name="ihookabove">
          -20 callsubr
          102 -21 212 -20 hstemhm
          84 84 hintmask 11001000
          -45 callgsubr
          hintmask 00110000
          146 639 -107 callgsubr
        </CharString>
        <CharString name="imacron">
          -20 callsubr
          152 70 hstemhm
          84 84 hintmask 11010000
          -45 callgsubr
          hintmask 00100000
          234 576 -58 callsubr
        </CharString>
        <CharString name="imacron.alt">
          -20 callsubr
          152 70 hstemhm
          84 84 hintmask 11010000
          -45 callgsubr
          hintmask 00100000
          145 576 -6 callsubr
        </CharString>
        <CharString name="infinity">
          1063 -25 60 -57 69 350 69 -57 60 hstemhm
          59 66 813 66 hintmask 10101000
          485 212 rmoveto
          -94 -55 -76 -83 -104 hhcurveto
          -83 -42 94 93 89 46 86 80 80 58 -65 -63 50 hvcurveto
          499 -47 rmoveto
          hintmask 01010100
          -89 -46 -86 -80 -80 -58 65 63 -50 vhcurveto
          -46 57 rlineto
          94 55 76 83 104 hhcurveto
          83 42 -94 -93 hvcurveto
          66 hmoveto
          133 -98 114 -129 -108 -79 -81 -96 -60 vhcurveto
          -24 31 rlineto
          hintmask 10101000
          73 -58 -71 70 -93 hhcurveto
          -128 -97 -113 -131 -133 98 -114 129 108 79 81 96 60 hvcurveto
          24 -31 rlineto
          hintmask 01000100
          -73 58 71 -70 93 hhcurveto
          128 97 113 131 hvcurveto
          endchar
        </CharString>
        <CharString name="interrobang">
          502 296 hmoveto
          90 -90 -90 vlineto
          222 548 rmoveto
          46 -15 44 -36 29 vhcurveto
          -29 23 -34 9 -28 3 1 27 rcurveline
          -72 -26 hlineto
          -52 -5 -59 -15 -59 -31 24 -68 rcurveline
          57 34 49 14 41 4 5 -339 rcurveline
          -4 -22 -2 -21 -23 vvcurveto
          -51 72 48 vlineto
          77 32 72 62 57 vhcurveto
          39 34 8 46 34 vvcurveto
          -87 3 rmoveto
          -45 -15 -15 -15 -15 vhcurveto
          -10 -10 -9 -11 -9 -13 3 193 rcurveline
          35 -8 20 -22 -54 vvcurveto
          endchar
        </CharString>
        <CharString name="iogonek">
          253 -212 70 163 38 callgsubr
          161 101 hstemhm
          84 84 -54 84 hintmask 10010100
          176 585 -76 callsubr
          137 -772 rmoveto
          -63 callgsubr
          rrcurveto
          hintmask 01101000
          27 callgsubr
          hintmask 10000100
          -56 callgsubr
          endchar
        </CharString>
        <CharString name="iogonekacute">
          253 -212 70 163 38 callgsubr
          124 78 callsubr
          hstemhm
          84 84 -54 84 hintmask 10000010
          212 -187 rmoveto
          -63 callgsubr
          rrcurveto
          hintmask 01100100
          27 callgsubr
          hintmask 10001010
          -56 callgsubr
          96 881 rmoveto
          -87 hlineto
          hintmask 00011100
          -137 -167 rlineto
          66 hlineto
          endchar
        </CharString>
        <CharString name="itilde">
          -20 callsubr
          124 41 callsubr
          84 84 hintmask 11001000
          -45 callgsubr
          hintmask 00010000
          219 673 -103 callgsubr
        </CharString>
        <CharString name="j">
          10 callsubr
          136 101 hstemhm
          97 101 -84 84 hintmask 11001000
          -68 callgsubr
          hintmask 00101000
          619 vmoveto
          101 vlineto
          hintmask 00110000
          -101 -101 hlineto
          endchar
        </CharString>
        <CharString name="jacute">
          10 callsubr
          124 78 callsubr
          hstemhm
          114 84 hintmask 11001000
          -68 callgsubr
          hintmask 00111000
          140 753 -78 callsubr
        </CharString>
        <CharString name="jcaron">
          10 callsubr
          122 -21 172 -20 hstemhm
          114 84 hintmask 11001000
          -68 callgsubr
          hintmask 00110000
          105 756 -81 callgsubr
        </CharString>
        <CharString name="jcircumflex">
          10 callsubr
          122 -21 172 -20 hstemhm
          114 84 hintmask 11001000
          -68 callgsubr
          hintmask 00110000
          105 584 -86 callgsubr
          endchar
        </CharString>
        <CharString name="k">
          519 5 callsubr
          88 78 vstem
          500 hmoveto
          -43 callsubr
          endchar
        </CharString>
        <CharString name="kcedilla">
          519 13 callgsubr
          hstem
          88 78 vstem
          500 hmoveto
          -43 callsubr
          -111 -156 -85 callsubr
        </CharString>
        <CharString name="kcommaaccent">
          519 4 callsubr
          88 78 hintmask 00111000
          500 hmoveto
          -43 callsubr
          hintmask 11000000
          -111 -156 -85 callsubr
        </CharString>
        <CharString name="l">
          46 callsubr
          hstem
          84 84 vstem
          -26 callgsubr
          endchar
        </CharString>
        <CharString name="l_uni0303">
          46 callsubr
          61 41 callsubr
          84 84 hintmask 11001000
          -26 callgsubr
          hintmask 00010000
          219 860 -103 callgsubr
        </CharString>
        <CharString name="lacute">
          46 callsubr
          92 30 callsubr
          84 84 hintmask 11001000
          -26 callgsubr
          32 callsubr
        </CharString>
        <CharString name="lcaron">
          253 21 -21 519 -21 115 81 hstem
          84 84 vstem
          -26 callgsubr
          205 614 -85 callsubr
        </CharString>
        <CharString name="lcedilla">
          253 13 callgsubr
          hstem
          84 84 vstem
          -26 callgsubr
          84 -156 -85 callsubr
        </CharString>
        <CharString name="lcommaaccent">
          253 4 callsubr
          84 84 hintmask 00111000
          -26 callgsubr
          hintmask 11001000
          84 -156 -85 callsubr
        </CharString>
        <CharString name="ldot">
          316 21 -21 317 101 276 -20 hstem
          84 84 65 101 vstem
          -26 callgsubr
          250 317 -82 callsubr
        </CharString>
        <CharString name="ldotbelow">
          46 callsubr
          hstemhm
          76 101 -93 84 hintmask 11010000
          -26 callgsubr
          hintmask 00100000
          93 -200 -82 callsubr
        </CharString>
        <CharString name="ldotbelowmacron">
          46 callsubr
          81 70 hstemhm
          76 101 -93 84 hintmask 11001000
          -26 callgsubr
          93 -200 rmoveto
          hintmask 00010000
          -61 callgsubr
          hintmask 00100000
          255 955 -58 callsubr
        </CharString>
        <CharString name="leaf">
          1062 -58 29 193 29 15 29 141 29 337 29 hstem
          -12 28 235 28 291 28 378 28 vstem
          1075 709 rmoveto
          24 -47 4 -24 8 vhcurveto
          18 -67 -73 10 -69 -6 -5 -1 -6 hhcurveto
          -62 -6 -58 -4 -60 -15 -326 -84 -258 -287 -26 -350 rrcurveto
          -1 -5 -1 -8 -7 vvcurveto
          -25 55 -8 27 -7 vhcurveto
          -16 64 67 -8 66 hhcurveto
          379 350 272 406 71 hvcurveto
          5 29 5 31 29 vvcurveto
          -505 -282 rmoveto
          -2 -26 -241 -164 -48 -32 rlineto
          331 vlineto
          23 44 25 23 17 vhcurveto
          68 47 76 39 80 23 rrcurveto
          210 -545 rmoveto
          -127 -139 -193 -67 -186 hhcurveto
          -58 -57 6 12 -56 hvcurveto
          -19 5 -22 3 -18 9 238 158 rcurveline
          682 215 rmoveto
          -34 -62 -42 -59 -50 -50 rrcurveto
          -8 -8 -5 -7 -11 hhcurveto
          -490 hlineto
          276 185 rlineto
          441 330 rmoveto
          -335 -224 -96 -65 rlineto
          275 vlineto
          3 -1 4 4 vvcurveto
          34 161 5 41 68 67 -9 -18 66 vhcurveto
          10 -2 10 -3 9 -4 rrcurveto
          -778 -510 rmoveto
          -2 -11 -19 -15 -159 -106 -55 -37 14 187 89 174 132 132 rlinecurve
          794 163 rmoveto
          -6 -90 -27 -87 -36 -82 rrcurveto
          -9 -5 0 -10 -15 hhcurveto
          -325 hlineto
          endchar
        </CharString>
        <CharString name="less">
          73 callsubr
          -41 rmoveto
          13 -9 6 -12 6 vhcurveto
          -552 266 552 266 rlineto
          12 6 9 6 13 vvcurveto
          13 -10 10 -13 -3 -2 0 -7 -13 vhcurveto
          -587 -282 rlineto
          -12 -6 -9 -6 -13 vvcurveto
          -13 9 -6 12 -6 vhcurveto
          587 -282 rlineto
          -7 13 2 0 3 hhcurveto
          77 callgsubr
        </CharString>
        <CharString name="lira">
          708 -5 70 176 70 72 15 callsubr
          42 19 45 7 48 rrcurveto
          141 70 -139 hlineto
          -1 12 -2 13 -4 12 -2 8 -3 9 -3 8 -4 10 rcurveline
          158 70 -183 hlineto
          32 callgsubr
          -128 -95 -115 -126 16 vhcurveto
          -84 -70 105 hlineto
          14 -39 3 -6 2 -6 1 -6 rlinecurve
          3 -15 rlineto
          -128 -70 126 hlineto
          -16 -73 -49 -61 -50 -56 19 callgsubr
        </CharString>
        <CharString name="logicalnot">
          826 336 46 hstem
          720 46 vstem
          766 141 rmoveto
          218 vlineto
          13 -10 10 -13 vhcurveto
          -661 hlineto
          -13 -10 -10 -13 -13 10 -10 13 hvcurveto
          638 -195 hlineto
          -13 10 -10 13 13 10 10 13 vhcurveto
          endchar
        </CharString>
        <CharString name="longs">
          303 638 66 hstem
          84 84 94 84 vstem
          346 621 rmoveto
          73 vlineto
          6 -26 -31 4 -27 hhcurveto
          -103 -75 -74 -99 hvcurveto
          -531 84 559 vlineto
          69 60 10 33 21 27 -3 -14 37 vhcurveto
          endchar
        </CharString>
        <CharString name="lslash">
          344 5 callsubr
          136 84 vstem
          322 448 rmoveto
          -40 44 -62 -55 rlineto
          257 -84 -328 vlineto
          -95 -84 38 -45 57 50 rlineto
          -287 84 360 vlineto
          endchar
        </CharString>
        <CharString name="m">
          844 21 54 callsubr
          62 callgsubr
          208 87 cntrmask 00111000
          -33 callsubr
          endchar
        </CharString>
        <CharString name="macron">
          531 576 70 hstem
          457 576 -58 callsubr
        </CharString>
        <CharString name="macron.alt">
          531 576 70 hstem
          368 576 -6 callsubr
        </CharString>
        <CharString name="macron.cap">
          531 505 70 hstem
          457 505 -58 callsubr
        </CharString>
        <CharString name="macron.cap.alt">
          531 505 70 hstem
          368 505 -6 callsubr
        </CharString>
        <CharString name="macron.dup">
          531 576 70 hstem
          457 576 -58 callsubr
        </CharString>
        <CharString name="macron.ts1">
          826 666 46 -45 46 1 -20 hstemhm
          hintmask 00100000
          737 689 rmoveto
          19 -17 6 -19 vhcurveto
          hintmask 01000000
          -8 -8 -1 -7 hhcurveto
          -563 hlineto
          hintmask 10000000
          -3 -3 0 -1 -3 hvcurveto
          -11 -3 -7 -10 -10 vvcurveto
          hintmask 01000000
          -12 8 -10 17 vhcurveto
          574 hlineto
          hintmask 10000000
          6 7 -1 7 hhcurveto
          15 15 7 16 hvcurveto
          endchar
        </CharString>
        <CharString name="married">
          531 29 76 291 77 1 -20 hstemhm
          -97 77 188 194 188 76 hintmask 01000000
          626 251 rmoveto
          121 -102 101 -125 -39 -54 -11 -24 -32 vhcurveto
          -2 -3 -3 -2 -3 hhcurveto
          -9 -21 17 6 -17 hvcurveto
          hintmask 00100000
          10 -27 -31 7 -29 hhcurveto
          hintmask 11011100
          -5 -6 -1 -5 hhcurveto
          -119 -13 -93 -92 -117 vvcurveto
          -121 103 -101 125 39 54 11 24 32 vhcurveto
          2 3 3 2 3 hhcurveto
          10 22 -18 -6 18 hvcurveto
          -10 27 30 -5 29 hhcurveto
          123 102 100 122 hvcurveto
          -417 -127 rmoveto
          -9 -27 -23 -10 -28 hhcurveto
          -80 -71 56 89 84 62 62 87 29 24 -8 -10 27 hvcurveto
          -25 -39 -16 -40 -47 vvcurveto
          -48 16 -40 25 -40 vhcurveto
          341 126 rmoveto
          -87 -69 -58 -82 -28 -23 10 9 -27 vhcurveto
          25 39 16 40 47 vvcurveto
          48 -16 40 -25 40 vhcurveto
          10 27 24 8 29 hhcurveto
          87 62 -62 -84 hvcurveto
          -272 -8 rmoveto
          -1 -19 -6 -18 -5 -18 rrcurveto
          -2 hlineto
          -5 22 -7 20 23 vvcurveto
          8 vlineto
          1 19 6 18 5 18 rrcurveto
          2 hlineto
          5 -22 7 -20 -23 vvcurveto
          endchar
        </CharString>
        <CharString name="mdotbelow">
          844 21 54 callsubr
          hstemhm
          83 87 201 101 -94 -14 callsubr
          hintmask 11101100
          -33 callsubr
          hintmask 00010000
          -201 -200 -82 callsubr
        </CharString>
        <CharString name="minus">
          826 227 46 hstem
          766 250 rmoveto
          -35 callsubr
          endchar
        </CharString>
        <CharString name="multiply">
          826 -41 callgsubr
          endchar
        </CharString>
        <CharString name="n">
          549 21 -21 388 -13 callsubr
          endchar
        </CharString>
        <CharString name="nacute">
          -25 callgsubr
          94 -21 167 -17 callgsubr
          46 694 -78 callsubr
        </CharString>
        <CharString name="naira">
          750 21 -21 241 70 72 70 241 -20 hstem
          100 84 381 84 vstem
          696 241 rmoveto
          70 -47 72 47 70 -47 241 -84 -241 -201 vlineto
          -128 241 rlineto
          -136 -241 -47 -70 47 -72 -47 -70 47 -241 84 241 200 hlineto
          129 -241 rlineto
          136 241 hlineto
          -378 212 rmoveto
          -87 162 1 hlineto
          162 -304 rmoveto
          -163 72 125 hlineto
          256 -72 rmoveto
          -125 hlineto
          -38 72 rlineto
          163 hlineto
          -304 vmoveto
          -1 hlineto
          -87 162 rlineto
          88 hlineto
          endchar
        </CharString>
        <CharString name="ncaron">
          -25 callgsubr
          92 -21 172 -17 callgsubr
          52 697 -81 callgsubr
        </CharString>
        <CharString name="ncedilla">
          549 57 callsubr
          388 -13 callsubr
          -62 -156 -85 callsubr
        </CharString>
        <CharString name="ncommaaccent">
          549 57 callsubr
          388 66 29 callsubr
          hintmask 00111100
          -72 callgsubr
          hintmask 11000000
          -62 -156 -85 callsubr
        </CharString>
        <CharString name="ndotaccent">
          -25 callgsubr
          106 101 hstemhm
          83 87 54 101 53 87 hintmask 11010100
          -72 callgsubr
          hintmask 00101000
          -53 560 -82 callsubr
        </CharString>
        <CharString name="ndotbelow">
          -25 callgsubr
          hstemhm
          83 87 54 101 53 87 hintmask 11101000
          -72 callgsubr
          hintmask 00010000
          -53 -200 -82 callsubr
        </CharString>
        <CharString name="nine">
          531 -21 46 callgsubr
          hstem
          44 92 254 96 vstem
          486 335 -84 callsubr
          97 21 -117 -64 3 hvcurveto
          1 -6 0 -10 -6 vvcurveto
          endchar
        </CharString>
        <CharString name="nine.oldstyle">
          600 -215 46 callgsubr
          hstemhm
          79 60 callgsubr
          521 141 -84 callsubr
          hintmask 00000100
          97 21 -117 -64 3 hvcurveto
          hintmask 00000010
          1 -6 0 -10 -6 vvcurveto
          endchar
        </CharString>
        <CharString name="nine.prop">
          600 -21 46 callgsubr
          hstem
          79 92 254 96 vstem
          521 335 -84 callsubr
          97 21 -117 -64 3 hvcurveto
          1 -6 0 -10 -6 vvcurveto
          endchar
        </CharString>
        <CharString name="nine.taboldstyle">
          531 -215 46 callgsubr
          hstemhm
          44 60 callgsubr
          486 141 -84 callsubr
          hintmask 00000100
          97 21 -117 -64 3 hvcurveto
          hintmask 00000010
          1 -6 0 -10 -6 vvcurveto
          endchar
        </CharString>
        <CharString name="ntilde">
          -25 callgsubr
          94 66 -7 66 29 callsubr
          hintmask 11001100
          -72 callgsubr
          hintmask 00010000
          73 673 -103 callgsubr
        </CharString>
        <CharString name="numbersign">
          885 -173 -21 312 46 172 46 312 -20 hstem
          59 766 vstem
          825 141 62 callsubr
          -227 hlineto
          49 172 rlineto
          178 hlineto
          14 22 0 23 23 -22 0 -14 hvcurveto
          -164 16 callgsubr
          -195 16 callgsubr
          -241 -11 callsubr
          227 hlineto
          -49 -172 rlineto
          -178 -11 callsubr
          164 16 callsubr
          195 16 callsubr
          241 hlineto
          14 22 0 23 hvcurveto
          -261 195 rmoveto
          -49 -172 rlineto
          -195 hlineto
          49 172 rlineto
          endchar
        </CharString>
        <CharString name="numero">
          867 22 -21 147 63 48 64 151 60 161 -20 hstemhm
          100 84 221 84 81 68 79 69 -69 70 hintmask 0011000110000000
          786 392 rmoveto
          59 -34 83 -74 -73 -35 -76 -66 -56 35 -77 73 74 34 77 56 vhcurveto
          1 -244 rmoveto
          hintmask 1111111101000000
          63 -217 -63 vlineto
          -81 -147 rmoveto
          694 -84 -617 vlineto
          0 -5 40 -12 50 vhcurveto
          -151 527 rlineto
          -137 -694 84 617 hlineto
          0 4 -36 6 -22 vhcurveto
          160 -559 rlineto
          363 392 rmoveto
          -31 -11 -39 -28 -34 -6 39 31 36 2 45 38 38 1 -45 -36 vhcurveto
          endchar
        </CharString>
        <CharString name="o">
          -46 callsubr
          hstem
          30 87 296 87 vstem
          -104 callgsubr
          endchar
        </CharString>
        <CharString name="oacute">
          -46 callsubr
          89 78 callsubr
          -22 callgsubr
          hintmask 11001100
          -104 callgsubr
          hintmask 00110000
          2 464 -78 callsubr
        </CharString>
        <CharString name="obreve">
          -46 callsubr
          61 73 109 -20 -22 callgsubr
          hintmask 11001100
          -104 callgsubr
          hintmask 00110000
          33 472 -105 callgsubr
          endchar
        </CharString>
        <CharString name="ocaron">
          -46 callsubr
          87 -21 172 -20 -22 callgsubr
          hintmask 11001100
          -104 callgsubr
          hintmask 00110000
          8 467 -81 callgsubr
        </CharString>
        <CharString name="ocircumflex">
          -46 callsubr
          87 -21 172 -20 -22 callgsubr
          hintmask 11001100
          -104 callgsubr
          hintmask 00110000
          8 295 -86 callgsubr
          endchar
        </CharString>
        <CharString name="ocircumflexacute">
          -46 callsubr
          87 -21 291 -20 -22 callgsubr
          hintmask 11001100
          -104 callgsubr
          hintmask 00110000
          9 295 -79 callgsubr
        </CharString>
        <CharString name="ocircumflexdotbelow">
          -46 callsubr
          87 -21 172 -20 hstemhm
          30 87 98 101 97 87 hintmask 11111010
          -104 callgsubr
          8 295 -86 callgsubr
          hintmask 00000100
          -46 -725 -82 callsubr
        </CharString>
        <CharString name="ocircumflexgrave">
          -46 callsubr
          87 -21 134 -20 -22 callgsubr
          hintmask 11001100
          -104 callgsubr
          hintmask 00110000
          9 295 -79 callsubr
        </CharString>
        <CharString name="ocircumflexhookabove">
          -46 callsubr
          87 -21 361 -20 -22 callgsubr
          hintmask 11001100
          -104 callgsubr
          hintmask 00110000
          9 295 -103 callsubr
          110 283 -107 callgsubr
        </CharString>
        <CharString name="ocircumflextilde">
          -46 callsubr
          87 -21 189 66 -7 66 -22 callgsubr
          hintmask 11000110
          -104 callgsubr
          hintmask 00101000
          9 295 -103 callsubr
          79 314 -94 callsubr
        </CharString>
        <CharString name="odblgrave">
          -46 callsubr
          89 78 callsubr
          -22 callgsubr
          hintmask 11001100
          -104 callgsubr
          hintmask 00110000
          4 297 -87 callsubr
        </CharString>
        <CharString name="odieresis">
          -46 callsubr
          106 91 hstemhm
          30 87 20 91 76 91 18 87 hintmask 11010010
          -104 callgsubr
          hintmask 00101100
          -185 335 -16 callgsubr
        </CharString>
        <CharString name="odotbelow">
          -46 callsubr
          hstemhm
          30 87 98 101 97 87 hintmask 11101000
          -104 callgsubr
          hintmask 00010000
          -97 -430 -82 callsubr
        </CharString>
        <CharString name="oe">
          -64 callgsubr
        </CharString>
        <CharString name="oe.dup">
          -64 callgsubr
        </CharString>
        <CharString name="ogonek">
          531 -212 70 hstem
          364 -187 rmoveto
          -63 callgsubr
          -1 44 45 53 callgsubr
          -66 hlineto
          71 callgsubr
          -56 callgsubr
          endchar
        </CharString>
        <CharString name="ograve">
          -46 callsubr
          89 78 callsubr
          -22 callgsubr
          hintmask 11001100
          -104 callgsubr
          hintmask 00110000
          -73 297 -59 callgsubr
        </CharString>
        <CharString name="ohm">
          -54 callsubr
        </CharString>
        <CharString name="ohookabove">
          -46 callsubr
          67 -21 212 -20 -22 callgsubr
          hintmask 11001100
          -104 callgsubr
          hintmask 00110000
          -44 409 -107 callgsubr
        </CharString>
        <CharString name="ohorn">
          14 callgsubr
          hstemhm
          30 87 295 87 -85 85 hintmask 11110100
          -97 callgsubr
          hintmask 00001000
          28 -31 12 -43 -43 vvcurveto
          endchar
        </CharString>
        <CharString name="ohornacute">
          14 callgsubr
          33 78 callsubr
          hstemhm
          30 87 295 87 -85 85 hintmask 11100101
          -97 callgsubr
          hintmask 00000010
          28 -31 12 -43 -43 vvcurveto
          hintmask 00011000
          -27 463 -78 callsubr
        </CharString>
        <CharString name="ohorndotbelow">
          14 callgsubr
          hstemhm
          30 87 98 101 96 87 -85 85 hintmask 11110010
          -97 callgsubr
          hintmask 00000100
          28 -31 12 -43 -43 vvcurveto
          hintmask 00001000
          -96 -431 -82 callsubr
        </CharString>
        <CharString name="ohorngrave">
          14 callgsubr
          33 78 callsubr
          hstemhm
          30 87 295 87 -85 85 hintmask 11100101
          -97 callgsubr
          hintmask 00000010
          28 -31 12 -43 -43 vvcurveto
          hintmask 00011000
          -72 296 -59 callgsubr
        </CharString>
        <CharString name="ohornhookabove">
          531 -10 69 335 66 66 -21 30 -20 202 -20 hstemhm
          30 87 295 87 -85 85 hintmask 11010101
          -97 callgsubr
          hintmask 00000010
          28 -31 12 -43 -43 vvcurveto
          hintmask 00101000
          -43 408 -107 callgsubr
        </CharString>
        <CharString name="ohorntilde">
          14 callgsubr
          33 41 callsubr
          30 87 295 87 -85 85 hintmask 11100101
          -97 callgsubr
          hintmask 00000010
          28 -31 12 -43 -43 vvcurveto
          hintmask 00001000
          30 442 -94 callsubr
        </CharString>
        <CharString name="ohungarumlaut">
          -46 callsubr
          89 78 callsubr
          -22 callgsubr
          hintmask 11001100
          -104 callgsubr
          hintmask 00110000
          -149 464 -65 callsubr
        </CharString>
        <CharString name="omacron">
          -46 callsubr
          117 70 -22 callgsubr
          hintmask 11011000
          -104 callgsubr
          hintmask 00100000
          44 346 -58 callsubr
        </CharString>
        <CharString name="one">
          531 0 63 485 63 66 -20 hstem
          231 90 vstem
          454 -2 callsubr
        </CharString>
        <CharString name="one.oldstyle">
          440 0 63 313 63 44 -20 hstem
          178 90 vstem
          401 -5 callsubr
        </CharString>
        <CharString name="one.prop">
          441 0 63 485 63 66 -20 hstem
          179 90 vstem
          402 -2 callsubr
        </CharString>
        <CharString name="one.superior">
          393 -32 callsubr
          endchar
        </CharString>
        <CharString name="one.taboldstyle">
          531 0 63 313 63 44 -20 hstem
          231 90 vstem
          454 -5 callsubr
        </CharString>
        <CharString name="onehalf">
          834 0 41 87 41 196 41 268 41 hstemhm
          521 74 -40 74 0 72 -7 74 hintmask 00010101
          -32 callsubr
          697 -309 rmoveto
          46 -139 vlineto
          -26 hlineto
          hintmask 01101001
          -82 hlineto
          111 82 62 41 rlineto
          32 24 42 31 53 vvcurveto
          67 -60 62 -103 -76 -48 -34 -61 -24 vhcurveto
          33 -36 rlineto
          51 17 25 39 63 hhcurveto
          hintmask 00000010
          60 46 -36 -54 -49 -35 -29 -43 -34 hvcurveto
          hintmask 10010101
          -14 -12 -39 -27 -15 -12 -21 -15 -50 -41 -21 -15 rrcurveto
          -41 vlineto
          194 18 callgsubr
        </CharString>
        <CharString name="onequarter">
          834 430 61 141 62 -57 62 hintmask 11000000
          -32 callsubr
          697 -209 3 callsubr
          55 hlineto
          hintmask 10100000
          33 callgsubr
        </CharString>
        <CharString name="oogonek">
          -46 callsubr
          hstemhm
          30 87 61 87 -24 87 85 87 hintmask 01110000
          -23 callgsubr
          hintmask 00001100
          25 callsubr
          hintmask 11110100
          -114 -71 -57 -77 -79 -69 58 113 113 74 50 74 75 73 -52 -111 vhcurveto
          endchar
        </CharString>
        <CharString name="oogonekacute">
          -46 callsubr
          89 78 callsubr
          hstemhm
          30 87 61 87 -24 87 85 87 hintmask 01001100
          -23 callgsubr
          hintmask 00000011
          25 callsubr
          hintmask 11001101
          -114 -71 -57 -77 -79 -69 58 113 113 74 50 74 75 73 -52 -111 vhcurveto
          hintmask 00110010
          2 464 -78 callsubr
        </CharString>
        <CharString name="openbullet">
          826 117 46 196 46 hstem
          269 46 196 46 56 callsubr
          242 144 rmoveto
          -54 -44 -44 -54 -54 -44 44 54 54 44 44 54 54 44 -44 -54 vhcurveto
          endchar
        </CharString>
        <CharString name="ordfeminine">
          396 358 394 rmoveto
          202 vlineto
          71 -66 48 -83 -53 -40 -9 -21 -47 vhcurveto
          5 -51 rlineto
          16 28 41 21 66 hhcurveto
          37 39 -23 -53 hvcurveto
          -28 vlineto
          -125 -3 -122 -22 -65 vvcurveto
          -35 28 -55 74 36 67 6 28 44 vhcurveto
          -27 vlineto
          36 -61 rmoveto
          13 -16 11 -19 vhcurveto
          -180 hlineto
          -20 -15 -11 -13 -14 15 -11 20 hvcurveto
          180 hlineto
          19 16 11 14 hvcurveto
          -38 161 rmoveto
          -14 0 -19 -30 -14 vhcurveto
          -13 -27 -32 -1 -10 hhcurveto
          -46 -35 18 26 45 142 4 38 2 hvcurveto
          endchar
        </CharString>
        <CharString name="ordmasculine">
          445 420 547 rmoveto
          93 -88 75 -109 -110 -88 -76 -92 -88 89 -72 109 109 88 72 88 vhcurveto
          -35 -214 rmoveto
          13 -16 11 -19 vhcurveto
          -255 hlineto
          -19 -16 -11 -13 -14 16 -11 19 hvcurveto
          255 hlineto
          19 16 11 14 hvcurveto
          -38 222 rmoveto
          -80 -60 -40 -64 -67 -58 41 79 79 62 35 63 63 61 -36 -78 vhcurveto
          endchar
        </CharString>
        <CharString name="orogate">
          531 30 87 115 66 115 87 vstem
          500 219 rmoveto
          121 -88 100 -114 17 vhcurveto
          178 -66 -178 vlineto
          -114 -17 -88 -101 -120 vvcurveto
          -116 88 -95 114 -16 vhcurveto
          -183 66 183 vlineto
          114 16 88 95 116 vvcurveto
          -87 11 rmoveto
          -114 -71 -57 -77 -79 -69 58 113 113 74 50 74 75 73 -52 -111 vhcurveto
          endchar
        </CharString>
        <CharString name="oslash">
          34 callgsubr
          34 -20 hstemhm
          33 81 302 81 hintmask 11011110
          -66 callgsubr
          hintmask 01100010
          -34 callgsubr
          endchar
        </CharString>
        <CharString name="oslash.dup">
          34 callgsubr
          34 -20 hstemhm
          33 81 302 81 hintmask 11011110
          -66 callgsubr
          hintmask 01100010
          -34 callgsubr
          endchar
        </CharString>
        <CharString name="oslashacute">
          34 callgsubr
          23 -21 32 -20 155 -20 hstemhm
          33 81 302 81 hintmask 1101010110000000
          -66 callgsubr
          hintmask 0110000010000000
          -34 callgsubr
          hintmask 0000101000000000
          -1 474 -78 callsubr
        </CharString>
        <CharString name="otilde">
          -46 callsubr
          89 66 -7 66 -22 callgsubr
          hintmask 11001100
          -104 callgsubr
          hintmask 00010000
          29 443 -103 callgsubr
        </CharString>
        <CharString name="p">
          67 callsubr
          17 callsubr
          48 -84 -638 -18 callsubr
        </CharString>
        <CharString name="paragraph">
          649 648 46 hstem
          363 46 74 46 vstem
          618 671 62 callsubr
          -258 hlineto
          -142 -123 -99 -134 -161 176 -69 128 -3 hvcurveto
          -386 vlineto
          -11 callgsubr
          806 74 -806 vlineto
          -11 callgsubr
          806 53 vlineto
          14 22 0 23 hvcurveto
          endchar
        </CharString>
</ttFont>
